<?xml version="1.0" encoding="utf-8"?>
<svg version="1.1" xmlns="http://www.w3.org/2000/svg" width="200.456" height="31.21" viewBox="196.073 405.397 200.456 31.21" xml:space="preserve">
<g>
			<path fill-rule="evenodd" clip-rule="evenodd" fill="#707173" d="M276.15,420.667c0.003,0.05,0.004,0.099,0.004,0.149
				l-0.001,0.052l0.001,0.067c0,0.05-0.001,0.1-0.004,0.149c-0.145,7.919-6.391,14.369-14.304,14.75
				c-0.067,0.006-0.136,0.01-0.203,0.01h-0.054c-0.07,0.002-0.14,0.002-0.21,0.002c-0.054,0.001-0.107,0.002-0.162,0.002
				c-0.045,0-0.091-0.001-0.136-0.004h-1.043c-0.002,0-0.005,0-0.007,0c-2.911-0.006-5.221-2.402-5.221-5.295
				c0-0.022,0.001-0.045,0.002-0.066v-16.121c0-1.104,0.898-2.003,2.003-2.003c1.104,0,2.003,0.899,2.003,2.003v16.187
				c0,0.014,0,0.027-0.001,0.042c0.021,0.666,0.535,1.247,1.221,1.247h1.483l0.019-0.001c5.884-0.228,10.536-5.016,10.605-10.902
				v-0.054v-0.067c-0.07-5.953-4.827-10.845-10.811-10.909c-0.039,0-0.078-0.001-0.118-0.001c-0.048,0-0.097-0.002-0.145-0.005
				c-0.049,0.003-0.098,0.005-0.146,0.005h-4.11c-1.104,0-2.003-0.899-2.003-2.003s0.898-2.003,2.003-2.003h4.11
				c0.049,0,0.098,0.002,0.146,0.005c0.048-0.003,0.097-0.005,0.145-0.005c0.054,0,0.107,0.002,0.162,0.002
				C269.499,405.988,276.003,412.579,276.15,420.667L276.15,420.667z M207.623,425.545l6.904,6.835
				c0.785,0.776,0.791,2.048,0.015,2.832c-0.776,0.785-2.048,0.791-2.833,0.015l-6.703-6.635c-0.012-0.011-0.022-0.021-0.033-0.031
				c-0.076-0.072-0.15-0.146-0.21-0.211l-0.09-0.088c-0.081-0.081-0.155-0.168-0.222-0.261c-0.917-1.106-1.422-2.474-1.422-3.913
				c0-2.904,2.328-5.239,5.234-5.235c0.626,0,1.242-0.127,1.814-0.382c1.608-0.716,2.647-2.31,2.666-4.068v-0.015v-0.027
				c-0.026-2.446-1.993-4.455-4.453-4.455h-9.713c-1.104,0-2.004-0.899-2.004-2.003s0.899-2.003,2.004-2.003h9.713
				c4.623,0,8.357,3.728,8.457,8.333c0.002,0.042,0.003,0.084,0.003,0.126l-0.001,0.017l0.001,0.029
				c0,0.041-0.001,0.083-0.003,0.125c-0.069,3.293-2.028,6.262-5.04,7.603c-1.086,0.483-2.26,0.729-3.448,0.729
				c-0.693-0.001-1.224,0.538-1.224,1.229c0,0.535,0.199,1.021,0.554,1.42C207.601,425.521,207.611,425.533,207.623,425.545
				L207.623,425.545z M200.581,414.334c0-1.104-0.899-2.004-2.003-2.004c-1.104,0-2.004,0.9-2.004,2.004v19.504
				c0,1.104,0.899,2.002,2.004,2.002c1.104,0,2.003-0.898,2.003-2.002V414.334L200.581,414.334z M387.612,410.988
				c-2.638,3.612-7.235,3.614-9.87-0.002c-0.005-0.007-0.01-0.014-0.016-0.021c-0.387-0.542-0.966-1.061-1.671-1.061
				c-0.132,0-0.262,0.018-0.389,0.051c-0.652,0.174-1.178,0.756-1.514,1.315c-0.559,0.928-0.799,2.07-0.799,3.146v19.386
				c0,1.104-0.899,2.003-2.004,2.003c-1.104,0-2.003-0.899-2.003-2.003v-19.386c0-3.418,1.716-7.382,5.289-8.333
				c0.463-0.123,0.94-0.186,1.419-0.186c2.035,0,3.76,1.118,4.927,2.732c1.027,1.42,2.362,1.41,3.387,0.007
				c0.006-0.008,0.012-0.017,0.018-0.024c1.18-1.599,2.917-2.715,4.946-2.715c0.439,0,0.879,0.054,1.306,0.159
				c3.63,0.893,5.391,4.915,5.391,8.36v19.386c0,1.104-0.899,2.003-2.003,2.003c-1.104,0-2.003-0.899-2.003-2.003v-19.386
				c0-1.085-0.247-2.237-0.817-3.17c-0.339-0.555-0.871-1.139-1.525-1.3c-0.113-0.028-0.23-0.042-0.348-0.042
				C388.621,409.905,388.01,410.444,387.612,410.988L387.612,410.988z M363.656,420.858c0,8.259-6.711,14.949-14.966,14.949
				c-8.256,0-14.948-6.691-14.948-14.949c0-8.26,6.686-14.959,14.948-14.959C356.951,405.898,363.656,412.595,363.656,420.858
				L363.656,420.858z M311.296,421.042c-0.003-0.047-0.004-0.095-0.003-0.142v-0.041v-0.054c-0.001-0.048,0-0.095,0.003-0.142
				c0.144-8.153,6.738-14.764,14.923-14.764h3.258c1.104,0,2.003,0.899,2.003,2.003s-0.899,2.003-2.003,2.003h-3.258
				c-6.028,0-10.846,4.901-10.918,10.898l-0.001,0.042l0.001,0.055c0.073,5.994,4.892,10.899,10.918,10.899h3.262
				c1.104,0,2.002,0.899,2.002,2.004c0,1.104-0.898,2.003-2.002,2.003h-3.262C318.037,435.807,311.44,429.191,311.296,421.042
				L311.296,421.042z M246.391,434.529l-6.864-18.925c-0.391-1.079-0.885-2.181-1.469-3.168c-0.511-0.865-1.592-2.463-2.736-2.463
				c-1.144,0-2.224,1.598-2.735,2.463c-0.584,0.987-1.077,2.089-1.469,3.168l-6.864,18.925c-0.376,1.037-1.528,1.576-2.565,1.2
				c-1.037-0.377-1.577-1.529-1.2-2.566l6.863-18.925c1.242-3.424,3.743-8.271,7.971-8.271c4.229,0,6.729,4.846,7.972,8.271
				l6.863,18.925c0.377,1.037-0.162,2.189-1.199,2.566C247.92,436.105,246.767,435.566,246.391,434.529L246.391,434.529z
				 M286.038,414.25l0.005-0.011c0.018-0.05,0.037-0.1,0.056-0.15c1.249-3.383,3.739-8.12,7.915-8.12
				c4.223,0,6.723,4.84,7.967,8.259c0.001,0.003,0.003,0.007,0.004,0.01l6.866,18.926c0.376,1.037-0.162,2.189-1.2,2.566
				c-1.037,0.376-2.189-0.163-2.565-1.2l-6.864-18.92c-0.001-0.002-0.001-0.002-0.002-0.004l-0.003-0.007
				c-0.392-1.077-0.885-2.176-1.468-3.161c-0.511-0.864-1.592-2.462-2.734-2.462c-1.124,0-2.189,1.553-2.697,2.402
				c-0.579,0.965-1.07,2.043-1.46,3.1c-0.016,0.042-0.031,0.084-0.042,0.112c-0.004,0.013-0.009,0.024-0.008,0.023l-6.859,18.917
				c-0.376,1.038-1.528,1.577-2.565,1.201c-1.037-0.377-1.576-1.529-1.2-2.566L286.038,414.25L286.038,414.25z M359.65,420.858
				c0-6.051-4.91-10.953-10.96-10.953c-6.052,0-10.942,4.905-10.942,10.953c0,6.045,4.897,10.942,10.942,10.942
				C354.734,431.8,359.65,426.906,359.65,420.858z"/>
		</g>
		<g>
			<path fill-rule="evenodd" clip-rule="evenodd" fill="#EB690A" d="M238.08,423.938c0,1.6-1.31,2.896-2.907,2.896
				c-1.602,0-2.915-1.29-2.915-2.896c0-1.614,1.3-2.921,2.915-2.921C236.783,421.017,238.08,422.33,238.08,423.938z"/>
			<path fill-rule="evenodd" clip-rule="evenodd" fill="#EB690A" d="M296.628,423.938c0,1.6-1.31,2.896-2.907,2.896
				c-1.602,0-2.915-1.291-2.915-2.896c0-1.614,1.3-2.921,2.915-2.921C295.33,421.017,296.628,422.33,296.628,423.938z"/>
		</g>
</svg>
