<?xml version="1.0" encoding="utf-8"?>
<!-- Generator: Adobe Illustrator 12.0.0, SVG Export Plug-In . SVG Version: 6.00 Build 51448)  -->
<!DOCTYPE svg PUBLIC "-//W3C//DTD SVG 1.1//EN" "http://www.w3.org/Graphics/SVG/1.1/DTD/svg11.dtd" [
	<!ENTITY ns_svg "http://www.w3.org/2000/svg">
	<!ENTITY ns_xlink "http://www.w3.org/1999/xlink">
]>
<svg  version="1.1" id="Ebene_1" xmlns="&ns_svg;" xmlns:xlink="&ns_xlink;" width="464.42" height="464.42"
	 viewBox="0 0 464.42 464.42" overflow="visible" enable-background="new 0 0 464.42 464.42" xml:space="preserve">
<path fill="#D3D2D2" d="M225.16,238.2L30.92,318c10.58,24.56,25.86,47.59,45.86,67.71c20.01,20.12,42.95,35.55,67.46,46.27
	L225.16,238.2"/>
<g>
	<defs>
		<rect id="XMLID_1_" y="0" width="463.84" height="463.84"/>
	</defs>
	<clipPath id="XMLID_5_">
		<use xlink:href="#XMLID_1_" />
	</clipPath>
	<g clip-path="url(#XMLID_5_)">
		
			<path fill="none" stroke="#D3D2D2" stroke-width="5.9925" stroke-linecap="round" stroke-linejoin="round" stroke-miterlimit="10" d="
			M460.85,231.92c0,126.43-102.49,228.92-228.93,228.92S3,358.35,3,231.92C3,105.49,105.49,2.99,231.92,2.99
			S460.85,105.49,460.85,231.92z"/>
	</g>
</g>
<path fill="#D3D2D2" d="M235.32,222.68L383.48,73.94c-39.91-38.38-93.21-60.34-148.57-61.21L235.32,222.68"/>
<path fill="#D3D2D2" d="M240.51,228l210.07-0.41c-0.5-26.76-5.93-53.87-16.85-80.07c-10.91-26.2-26.32-49.16-44.96-68.35L240.51,228
	"/>
<path fill="#D3D2D2" d="M240.52,235.43l148.8,148.22c38.41-39.91,60.39-93.24,61.25-148.63L240.52,235.43"/>
<path fill="#D3D2D2" d="M234.72,241.05l0.41,209.92c26.73-0.51,53.82-5.95,80-16.85c26.18-10.91,49.13-26.3,68.31-44.92
	L234.72,241.05"/>
<path fill="#D3D2D2" d="M225.59,224.81l-79.8-194.25C94.95,52.51,54.06,93.17,31.84,143.89L225.59,224.81"/>
<g>
	<path fill="none" d="M225.66,238.5L31.34,318.33c21.95,50.87,62.63,91.78,113.38,114.01L225.66,238.5"/>
</g>
<path fill="#D3D2D2" d="M222.73,231.67L28.96,150.75c-9.89,24.85-15.36,51.94-15.45,80.3c-0.08,28.38,5.23,55.5,14.98,80.41
	L222.73,231.67"/>
<path fill="#FCDAC0" d="M327.58,231.92c0,52.8-42.8,95.6-95.6,95.6c-52.8,0-95.6-42.8-95.6-95.6c0-52.8,42.8-95.6,95.6-95.6
	C284.78,136.32,327.58,179.12,327.58,231.92"/>
<path fill="#FFFFFF" d="M272.2,265.58h-80.65c-4.9,0-8.91-4.01-8.91-8.91v-49.7c0-4.9,4.01-8.91,8.91-8.91h81.15
	c4.63,0,8.41,3.79,8.41,8.41v50.2C281.11,261.57,277.1,265.58,272.2,265.58"/>
<path fill="#F25C19" d="M233.82,222.91l-1.13-45.3c1.62-0.52,2.8-2.02,2.8-3.81c0-2.22-1.8-4.02-4.02-4.02s-4.02,1.8-4.02,4.02
	c0,1.82,1.21,3.33,2.86,3.83l-1.13,45.28h-23.97v16.3h52.52v-16.3H233.82"/>
<path fill="none" stroke="#231F20" stroke-width="1.4981" stroke-linecap="round" stroke-linejoin="round" stroke-miterlimit="10" d="
	M233.82,222.91l-1.13-45.3c1.62-0.52,2.8-2.02,2.8-3.81c0-2.22-1.8-4.02-4.02-4.02s-4.02,1.8-4.02,4.02c0,1.82,1.21,3.33,2.86,3.83
	l-1.13,45.28h-23.97v16.3h52.52v-16.3H233.82z"/>
<path fill="none" stroke="#F25C19" stroke-width="1.4981" stroke-miterlimit="10" d="M240.23,173.63c0,4.84-3.92,8.76-8.76,8.76
	c-4.84,0-8.76-3.92-8.76-8.76c0-4.84,3.92-8.76,8.76-8.76C236.31,164.87,240.23,168.79,240.23,173.63z"/>
<path fill="none" stroke="#F25C19" stroke-width="2.4969" stroke-miterlimit="10" d="M247.1,173.63c0,8.63-7,15.63-15.63,15.63
	c-8.63,0-15.63-7-15.63-15.63c0-8.63,6.99-15.63,15.63-15.63C240.1,158,247.1,165,247.1,173.63z"/>
<path fill="none" stroke="#F25C19" stroke-width="3.995" stroke-miterlimit="10" d="M256.74,173.63c0,13.95-11.32,25.27-25.27,25.27
	c-13.96,0-25.27-11.31-25.27-25.27c0-13.96,11.31-25.27,25.27-25.27C245.43,148.36,256.74,159.68,256.74,173.63z"/>
<path fill="#FFFFFF" d="M213.67,233.27h-5.26v-4.45h5.26V233.27"/>
<path fill="none" stroke="#231F20" stroke-width="0.9988" stroke-miterlimit="10" d="M213.67,233.27h-5.26v-4.45h5.26V233.27z"/>
<path fill="none" stroke="#F25C19" stroke-width="4.9938" stroke-miterlimit="10" d="M271.45,173.63c0,22.08-17.9,39.98-39.98,39.98
	s-39.98-17.9-39.98-39.98c0-22.08,17.9-39.98,39.98-39.98S271.45,151.55,271.45,173.63z"/>
<path fill="#F25C19" d="M246.8,249.59h-30.77v-3.32h30.77V249.59"/>
<path fill="#F25C19" d="M246.8,257.44h-30.77v-3.32h30.77V257.44"/>
<path fill="#F25C19" d="M246.89,265.59h-30.77v-3.32h30.77V265.59"/>
<path fill="#F25C19" d="M246.8,274.05h-30.77v-3.32h30.77V274.05"/>
<path fill="#F9A672" d="M268.44,316.33h-73.86V283.7l36.93-11.39l36.93,11.39V316.33"/>
<path fill="none" stroke="#231F20" stroke-width="1.4981" stroke-linecap="round" stroke-linejoin="round" stroke-miterlimit="10" d="
	M268.44,316.33h-73.86V283.7l36.93-11.39l36.93,11.39V316.33z"/>
<path fill="#BDBCBC" stroke="#040606" stroke-width="1.4981" stroke-linecap="round" stroke-linejoin="round" stroke-miterlimit="10" d="
	M251.06,412.81l-35.84-5.43v-9.26l35.84,3.67"/>
<path fill="#FFFFFF" stroke="#040606" stroke-width="1.4981" stroke-linecap="round" stroke-linejoin="round" stroke-miterlimit="10" d="
	M266.99,366.8c-2.41-0.98-4.78-4.21-3.8-6.62s4.93-3.07,7.34-2.1"/>
<path fill="#F8A671" d="M276.1,365.53c-1.14,2.82-4.02,4.31-6.84,3.17c-2.82-1.14-3.84-4.22-2.7-7.04c1.14-2.82,4.02-4.32,6.84-3.17
	C276.23,359.64,277.25,362.71,276.1,365.53"/>
<path fill="none" stroke="#040606" stroke-width="1.4981" stroke-linecap="round" stroke-linejoin="round" stroke-miterlimit="10" d="
	M276.1,365.53c-1.14,2.82-4.02,4.31-6.84,3.17c-2.82-1.14-3.84-4.22-2.7-7.04c1.14-2.82,4.02-4.32,6.84-3.17
	C276.23,359.64,277.25,362.71,276.1,365.53z"/>
<path fill="#FFFFFF" d="M271.97,363.91c-0.15,0.38-0.48,0.57-0.74,0.43s-0.34-0.56-0.19-0.93s0.48-0.57,0.74-0.43
	C272.04,363.11,272.13,363.53,271.97,363.91"/>
<path fill="#FFFFFF" d="M272.71,362c-0.15,0.38-0.48,0.56-0.74,0.42s-0.34-0.56-0.19-0.93c0.15-0.38,0.48-0.57,0.74-0.43
	C272.78,361.2,272.86,361.63,272.71,362"/>
<path fill="#FFFFFF" d="M271.27,365.91c-0.15,0.38-0.48,0.56-0.74,0.42s-0.34-0.56-0.19-0.93c0.15-0.38,0.48-0.57,0.74-0.43
	C271.34,365.11,271.42,365.54,271.27,365.91"/>
<path fill="#FFFFFF" d="M270.52,363.32c-0.15,0.38-0.48,0.56-0.74,0.43c-0.25-0.14-0.34-0.56-0.19-0.93
	c0.15-0.38,0.48-0.57,0.74-0.43C270.59,362.52,270.67,362.94,270.52,363.32"/>
<path fill="#FFFFFF" d="M271.26,361.41c-0.16,0.38-0.48,0.56-0.74,0.42c-0.25-0.14-0.34-0.56-0.18-0.93
	c0.15-0.38,0.48-0.56,0.74-0.43C271.32,360.61,271.41,361.03,271.26,361.41"/>
<path fill="#FFFFFF" d="M269.81,365.32c-0.15,0.38-0.48,0.57-0.74,0.43c-0.25-0.14-0.34-0.56-0.19-0.93
	c0.15-0.38,0.48-0.56,0.74-0.43C269.88,364.52,269.97,364.94,269.81,365.32"/>
<path fill="#FFFFFF" d="M273.34,364.46c-0.15,0.38-0.48,0.57-0.74,0.43c-0.25-0.14-0.34-0.56-0.19-0.93
	c0.16-0.38,0.48-0.56,0.74-0.43C273.41,363.66,273.49,364.08,273.34,364.46"/>
<path fill="#FFFFFF" d="M274.07,362.55c-0.15,0.38-0.48,0.57-0.74,0.43c-0.26-0.14-0.34-0.56-0.19-0.93s0.48-0.57,0.74-0.43
	C274.14,361.76,274.23,362.18,274.07,362.55"/>
<path fill="#FFFFFF" d="M272.63,366.46c-0.15,0.38-0.48,0.57-0.74,0.43c-0.25-0.14-0.34-0.56-0.18-0.93s0.48-0.57,0.74-0.43
	C272.7,365.67,272.79,366.09,272.63,366.46"/>
<path fill="none" stroke="#040606" stroke-width="1.4981" stroke-linecap="round" stroke-linejoin="round" stroke-miterlimit="10" d="
	M234.52,356.48v41.02l58.91-1.5v-40.35"/>
<path fill="none" stroke="#040606" stroke-width="1.4981" stroke-linecap="round" stroke-linejoin="round" stroke-miterlimit="10" d="
	M338.79,398.65l-33.04-2.63l-9.08-0.03v-40.36"/>
<path fill="#FFFFFF" d="M264.06,354.8l61.29,1.41v42.64l-61.29,2.46V354.8z M329.05,356.37l9.73,0.21v-4.52l-43.86-8.03l-43.86,5.1
	v5.67h9.29v46.52l-9.29,0.47v11.02l87.73-4.23v-9.93l-9.73,0.21V356.37"/>
<path fill="none" stroke="#040606" stroke-width="1.4981" stroke-linecap="round" stroke-linejoin="round" stroke-miterlimit="10" d="
	M264.06,354.8l61.29,1.41v42.64l-61.29,2.46V354.8z M329.05,356.37l9.73,0.21v-4.52l-43.86-8.03l-43.86,5.1v5.67h9.29v46.52
	l-9.29,0.47v11.02l87.73-4.23v-9.93l-9.73,0.21V356.37z"/>
<path fill="#F25C19" d="M339.82,385.57h15v-1.32h-15V385.57"/>
<path fill="#F25C19" d="M339.82,389.26l12.99,7.5l0.66-1.14l-12.99-7.5L339.82,389.26"/>
<path fill="#F25C19" d="M353.47,374.18l-12.99,7.5l-0.66-1.15l12.99-7.5L353.47,374.18"/>
<path fill="#BDBCBC" d="M250.95,354.88l-35.72,2.79v-4.9l35.79-3.63L250.95,354.88"/>
<path fill="none" stroke="#040606" stroke-width="1.4981" stroke-linecap="round" stroke-linejoin="round" stroke-miterlimit="10" d="
	M250.95,354.88l-35.72,2.79v-4.9l35.79-3.63L250.95,354.88z"/>
<path fill="none" stroke="#040606" stroke-width="1.4981" stroke-linecap="round" stroke-linejoin="round" stroke-miterlimit="10" d="
	M215.23,398.12l15.93-0.47v-41.05"/>
<path fill="#FFFFFF" stroke="#040606" stroke-width="1.4981" stroke-linecap="round" stroke-linejoin="round" stroke-miterlimit="10" d="
	M283.1,367.21c-2.41-0.98-4.77-4.21-3.8-6.62c0.98-2.41,4.93-3.07,7.34-2.1"/>
<path fill="#F8A671" d="M292.21,365.94c-1.14,2.82-4.02,4.31-6.84,3.17c-2.82-1.14-3.84-4.22-2.7-7.04
	c1.14-2.82,4.02-4.32,6.84-3.17S293.36,363.12,292.21,365.94"/>
<path fill="none" stroke="#040606" stroke-width="1.4981" stroke-linecap="round" stroke-linejoin="round" stroke-miterlimit="10" d="
	M292.21,365.94c-1.14,2.82-4.02,4.31-6.84,3.17c-2.82-1.14-3.84-4.22-2.7-7.04c1.14-2.82,4.02-4.32,6.84-3.17
	S293.36,363.12,292.21,365.94z"/>
<path fill="#FFFFFF" d="M288.08,364.31c-0.15,0.38-0.48,0.57-0.74,0.43c-0.25-0.14-0.34-0.56-0.19-0.93s0.48-0.57,0.74-0.43
	S288.23,363.94,288.08,364.31"/>
<path fill="#FFFFFF" d="M288.82,362.41c-0.15,0.38-0.48,0.56-0.74,0.42c-0.25-0.14-0.34-0.56-0.19-0.93
	c0.16-0.37,0.48-0.56,0.74-0.43C288.89,361.61,288.97,362.03,288.82,362.41"/>
<path fill="#FFFFFF" d="M287.38,366.32c-0.15,0.38-0.48,0.56-0.74,0.42c-0.25-0.14-0.34-0.56-0.18-0.93
	c0.15-0.38,0.48-0.56,0.73-0.43C287.45,365.52,287.53,365.94,287.38,366.32"/>
<path fill="#FFFFFF" d="M286.63,363.72c-0.15,0.38-0.48,0.56-0.74,0.42c-0.25-0.14-0.34-0.56-0.19-0.93s0.48-0.56,0.74-0.42
	C286.7,362.93,286.78,363.34,286.63,363.72"/>
<path fill="#FFFFFF" d="M287.36,361.81c-0.15,0.38-0.48,0.57-0.73,0.43c-0.26-0.14-0.34-0.56-0.19-0.93s0.48-0.56,0.73-0.43
	C287.43,361.02,287.52,361.44,287.36,361.81"/>
<path fill="#FFFFFF" d="M285.93,365.72c-0.16,0.38-0.48,0.57-0.74,0.43c-0.25-0.14-0.34-0.56-0.18-0.93s0.48-0.56,0.73-0.43
	C285.99,364.93,286.07,365.35,285.93,365.72"/>
<path fill="#FFFFFF" d="M289.45,364.87c-0.16,0.38-0.48,0.56-0.74,0.42c-0.25-0.14-0.34-0.56-0.18-0.93
	c0.15-0.38,0.48-0.56,0.73-0.43C289.52,364.07,289.6,364.49,289.45,364.87"/>
<path fill="#FFFFFF" d="M290.18,362.96c-0.15,0.38-0.48,0.57-0.74,0.43c-0.26-0.14-0.34-0.56-0.19-0.93s0.48-0.57,0.74-0.43
	C290.25,362.16,290.34,362.58,290.18,362.96"/>
<path fill="#FFFFFF" d="M288.74,366.87c-0.15,0.38-0.48,0.57-0.74,0.43c-0.26-0.14-0.34-0.56-0.19-0.93s0.48-0.57,0.74-0.43
	S288.89,366.49,288.74,366.87"/>
<path fill="#FFFFFF" stroke="#040606" stroke-width="1.4981" stroke-linecap="round" stroke-linejoin="round" stroke-miterlimit="10" d="
	M301.68,367.41c-2.27-0.92-4.48-4.05-3.53-6.41s4.72-3.06,7-2.14"/>
<path fill="#F8A671" d="M310.35,366.05c-1.12,2.77-3.87,4.26-6.53,3.18s-3.6-4.07-2.48-6.83c1.13-2.77,3.87-4.26,6.54-3.18
	C310.54,360.3,311.48,363.29,310.35,366.05"/>
<path fill="none" stroke="#040606" stroke-width="1.4981" stroke-linecap="round" stroke-linejoin="round" stroke-miterlimit="10" d="
	M310.35,366.05c-1.12,2.77-3.87,4.26-6.53,3.18s-3.6-4.07-2.48-6.83c1.13-2.77,3.87-4.26,6.54-3.18
	C310.54,360.3,311.48,363.29,310.35,366.05z"/>
<path fill="#FFFFFF" d="M306.45,364.52c-0.15,0.37-0.46,0.56-0.71,0.42c-0.24-0.13-0.31-0.54-0.16-0.91s0.46-0.56,0.71-0.43
	C306.52,363.74,306.6,364.15,306.45,364.52"/>
<path fill="#FFFFFF" d="M307.17,362.65c-0.15,0.37-0.46,0.56-0.71,0.43c-0.24-0.14-0.31-0.54-0.16-0.91s0.46-0.56,0.71-0.42
	C307.25,361.88,307.32,362.28,307.17,362.65"/>
<path fill="#FFFFFF" d="M305.76,366.48c-0.15,0.37-0.47,0.56-0.71,0.42c-0.24-0.13-0.31-0.54-0.16-0.91s0.46-0.56,0.71-0.42
	C305.83,365.71,305.91,366.11,305.76,366.48"/>
<path fill="#FFFFFF" d="M305.08,363.96c-0.15,0.37-0.46,0.56-0.71,0.42c-0.24-0.13-0.32-0.54-0.16-0.91
	c0.15-0.37,0.46-0.56,0.7-0.43C305.15,363.18,305.23,363.59,305.08,363.96"/>
<path fill="#FFFFFF" d="M305.8,362.09c-0.15,0.37-0.46,0.56-0.71,0.43c-0.24-0.14-0.31-0.54-0.16-0.91s0.46-0.55,0.7-0.42
	C305.88,361.32,305.95,361.72,305.8,362.09"/>
<path fill="#FFFFFF" d="M304.38,365.92c-0.15,0.37-0.46,0.56-0.71,0.42c-0.24-0.13-0.32-0.54-0.16-0.91
	c0.15-0.37,0.46-0.56,0.7-0.42C304.46,365.15,304.53,365.55,304.38,365.92"/>
<path fill="#FFFFFF" d="M307.74,365.04c-0.15,0.37-0.47,0.55-0.71,0.42c-0.24-0.13-0.32-0.54-0.17-0.91
	c0.15-0.37,0.46-0.56,0.71-0.43S307.89,364.67,307.74,365.04"/>
<path fill="#FFFFFF" d="M308.46,363.17c-0.15,0.37-0.46,0.56-0.71,0.42c-0.24-0.13-0.31-0.54-0.16-0.91s0.46-0.56,0.71-0.43
	S308.61,362.8,308.46,363.17"/>
<path fill="#FFFFFF" d="M307.05,367c-0.15,0.37-0.47,0.56-0.71,0.42c-0.24-0.13-0.32-0.54-0.17-0.91s0.46-0.56,0.71-0.43
	S307.2,366.63,307.05,367"/>
<path fill="#FFFFFF" stroke="#040606" stroke-width="1.4981" stroke-linecap="round" stroke-linejoin="round" stroke-miterlimit="10" d="
	M316.93,367.73c-2.28-0.92-4.49-4.05-3.53-6.41s4.72-3.06,7-2.14"/>
<path fill="#F8A671" d="M325.6,366.38c-1.12,2.77-3.87,4.26-6.53,3.18s-3.59-4.07-2.47-6.83s3.87-4.26,6.53-3.18
	C325.79,360.63,326.72,363.62,325.6,366.38"/>
<path fill="none" stroke="#040606" stroke-width="1.4981" stroke-linecap="round" stroke-linejoin="round" stroke-miterlimit="10" d="
	M325.6,366.38c-1.12,2.77-3.87,4.26-6.53,3.18s-3.59-4.07-2.47-6.83s3.87-4.26,6.53-3.18C325.79,360.63,326.72,363.62,325.6,366.38z
	"/>
<path fill="#FFFFFF" d="M321.7,364.85c-0.15,0.37-0.46,0.56-0.71,0.42c-0.24-0.13-0.31-0.54-0.16-0.91s0.46-0.56,0.71-0.42
	C321.77,364.07,321.85,364.48,321.7,364.85"/>
<path fill="#FFFFFF" d="M322.42,362.98c-0.15,0.37-0.46,0.56-0.71,0.43c-0.24-0.14-0.31-0.54-0.16-0.91s0.46-0.55,0.71-0.42
	S322.57,362.61,322.42,362.98"/>
<path fill="#FFFFFF" d="M321,366.81c-0.15,0.37-0.47,0.56-0.71,0.43c-0.24-0.14-0.32-0.54-0.17-0.91s0.46-0.55,0.71-0.42
	C321.07,366.04,321.15,366.44,321,366.81"/>
<path fill="#FFFFFF" d="M320.32,364.29c-0.15,0.37-0.46,0.56-0.71,0.42c-0.24-0.13-0.31-0.54-0.16-0.91s0.46-0.55,0.7-0.43
	C320.4,363.52,320.47,363.92,320.32,364.29"/>
<path fill="#FFFFFF" d="M321.05,362.42c-0.15,0.37-0.46,0.56-0.71,0.43s-0.32-0.54-0.16-0.91c0.15-0.36,0.46-0.55,0.7-0.42
	C321.12,361.64,321.2,362.05,321.05,362.42"/>
<path fill="#FFFFFF" d="M319.63,366.25c-0.15,0.37-0.46,0.56-0.71,0.43c-0.24-0.14-0.31-0.54-0.16-0.91s0.46-0.56,0.71-0.42
	C319.7,365.48,319.78,365.88,319.63,366.25"/>
<path fill="#FFFFFF" d="M322.99,365.37c-0.15,0.37-0.47,0.55-0.71,0.42c-0.24-0.13-0.32-0.54-0.17-0.91
	c0.15-0.37,0.46-0.56,0.71-0.43S323.14,365,322.99,365.37"/>
<path fill="#FFFFFF" d="M323.71,363.5c-0.15,0.37-0.47,0.56-0.71,0.42c-0.24-0.13-0.32-0.54-0.17-0.91s0.46-0.55,0.71-0.43
	C323.79,362.73,323.86,363.13,323.71,363.5"/>
<path fill="#FFFFFF" d="M322.29,367.33c-0.15,0.37-0.47,0.56-0.71,0.42c-0.24-0.13-0.32-0.54-0.17-0.91
	c0.15-0.37,0.46-0.56,0.71-0.43C322.37,366.56,322.44,366.97,322.29,367.33"/>
<path fill="#FFFFFF" d="M273.16,396.63l-16.87,0.47v-21.74h16.87V396.63"/>
<path fill="none" stroke="#040606" stroke-width="1.4981" stroke-linecap="round" stroke-linejoin="round" stroke-miterlimit="10" d="
	M273.16,396.63l-16.87,0.47v-21.74h16.87V396.63z"/>
<path fill="#F9A672" d="M270,389.22c0,3.05-2.21,5.53-5.27,5.53s-5.27-2.48-5.27-5.53c0-3.05,2.21-5.53,5.27-5.53
	S270,386.17,270,389.22"/>
<path fill="none" stroke="#231F20" stroke-width="1.4981" stroke-linecap="round" stroke-linejoin="round" stroke-miterlimit="10" d="
	M270,389.22c0,3.05-2.21,5.53-5.27,5.53s-5.27-2.48-5.27-5.53c0-3.05,2.21-5.53,5.27-5.53S270,386.17,270,389.22z"/>
<path fill="#F9A672" d="M263.89,379.65c0,1.34-0.93,2.43-2.27,2.43c-1.34,0-2.27-1.09-2.27-2.43s0.93-2.43,2.27-2.43
	C262.97,377.23,263.89,378.31,263.89,379.65"/>
<path fill="none" stroke="#231F20" stroke-width="1.4981" stroke-linecap="round" stroke-linejoin="round" stroke-miterlimit="10" d="
	M263.89,379.65c0,1.34-0.93,2.43-2.27,2.43c-1.34,0-2.27-1.09-2.27-2.43s0.93-2.43,2.27-2.43
	C262.97,377.23,263.89,378.31,263.89,379.65z"/>
<path fill="#F9A672" d="M269.97,380.58c0,0.98-0.69,1.78-1.68,1.78c-0.99,0-1.68-0.8-1.68-1.78s0.69-1.79,1.68-1.79
	C269.28,378.79,269.97,379.59,269.97,380.58"/>
<path fill="none" stroke="#231F20" stroke-width="1.4981" stroke-linecap="round" stroke-linejoin="round" stroke-miterlimit="10" d="
	M269.97,380.58c0,0.98-0.69,1.78-1.68,1.78c-0.99,0-1.68-0.8-1.68-1.78s0.69-1.79,1.68-1.79
	C269.28,378.79,269.97,379.59,269.97,380.58z"/>
<path fill="none" stroke="#231F20" stroke-width="1.4981" stroke-linecap="round" stroke-linejoin="round" stroke-miterlimit="10" d="
	M256.29,397.1l-5.19-0.29v-21.41l5.19-0.04"/>
<path fill="#FFFFFF" d="M337.21,394.65l-15.36,0.43v-19.8h15.36V394.65"/>
<path fill="none" stroke="#040606" stroke-width="1.4981" stroke-linecap="round" stroke-linejoin="round" stroke-miterlimit="10" d="
	M337.21,394.65l-15.36,0.43v-19.8h15.36V394.65z"/>
<path fill="#F9A672" d="M334.32,387.91c0,2.78-2.02,5.04-4.8,5.04c-2.78,0-4.8-2.25-4.8-5.04s2.02-5.04,4.8-5.04
	C332.3,382.87,334.32,385.13,334.32,387.91"/>
<path fill="none" stroke="#231F20" stroke-width="1.4981" stroke-linecap="round" stroke-linejoin="round" stroke-miterlimit="10" d="
	M334.32,387.91c0,2.78-2.02,5.04-4.8,5.04c-2.78,0-4.8-2.25-4.8-5.04s2.02-5.04,4.8-5.04C332.3,382.87,334.32,385.13,334.32,387.91z
	"/>
<path fill="#F9A672" d="M328.77,379.19c0,1.22-0.84,2.21-2.07,2.21c-1.22,0-2.07-0.99-2.07-2.21c0-1.22,0.85-2.21,2.07-2.21
	C327.92,376.98,328.77,377.97,328.77,379.19"/>
<path fill="none" stroke="#231F20" stroke-width="1.4981" stroke-linecap="round" stroke-linejoin="round" stroke-miterlimit="10" d="
	M328.77,379.19c0,1.22-0.84,2.21-2.07,2.21c-1.22,0-2.07-0.99-2.07-2.21c0-1.22,0.85-2.21,2.07-2.21
	C327.92,376.98,328.77,377.97,328.77,379.19z"/>
<path fill="#F9A672" d="M334.3,380.04c0,0.89-0.63,1.62-1.53,1.62c-0.89,0-1.52-0.73-1.52-1.62c0-0.9,0.63-1.63,1.52-1.63
	C333.67,378.41,334.3,379.14,334.3,380.04"/>
<path fill="none" stroke="#231F20" stroke-width="1.4981" stroke-linecap="round" stroke-linejoin="round" stroke-miterlimit="10" d="
	M334.3,380.04c0,0.89-0.63,1.62-1.53,1.62c-0.89,0-1.52-0.73-1.52-1.62c0-0.9,0.63-1.63,1.52-1.63
	C333.67,378.41,334.3,379.14,334.3,380.04z"/>
<path fill="none" stroke="#231F20" stroke-width="1.4981" stroke-linecap="round" stroke-linejoin="round" stroke-miterlimit="10" d="
	M321.85,395.07l-4.73-0.27v-19.5l4.73-0.04"/>
<path fill="#231F20" d="M329.16,395l-3.91,0.11l0.05,2.12L329.16,395z"/>
<path fill="#231F20" d="M264.36,397.27l-3.91,0.11l0.05,2.12L264.36,397.27z"/>
<path fill="#231F20" d="M234.95,356.66l-3.91,0.1l0.05,2.13L234.95,356.66z"/>
<path fill="#231F20" d="M297.46,355.64l-3.91,0.11l0.05,2.12L297.46,355.64z"/>
<path fill="#231F20" d="M294.93,344.04l-79.7,8.73"/>
<path fill="#F25C19" d="M253.83,386.63h-16.74v-1.48h16.74V386.63"/>
<path fill="#F25C19" d="M253.83,390.74l-14.5,8.37l-0.74-1.28l14.5-8.37L253.83,390.74"/>
<path fill="#F25C19" d="M238.59,373.91l14.5,8.37l0.73-1.28l-14.5-8.37L238.59,373.91"/>
<path fill="#FFFFFF" d="M87.79,217.22c-7.58,0.41-14.11-2.48-18.63-7.56c-4.86,3.42-10.44,5.56-16.22,5.91
	c-15.21,0.93-26.42-11.07-26.42-26.72c0-15.65,11.21-31.45,26.42-35.66c10.35-2.87,20.08,0.2,26.11,7.36
	c2.69-1.8,47.63-14.25,40.56,28.55C117.06,204.49,99.2,216.59,87.79,217.22"/>
<path fill="#BDBCBC" d="M55.26,297.96c0.88,0,1.54-0.26,2.12-0.55v-98.06h-4.13v98.02C53.24,297.36,54.39,297.96,55.26,297.96"/>
<path fill="none" stroke="#040606" stroke-width="1.4981" stroke-linecap="round" stroke-linejoin="round" stroke-miterlimit="10" d="
	M55.26,297.96c0.88,0,1.54-0.26,2.12-0.55v-98.06h-4.13v98.02C53.24,297.36,54.39,297.96,55.26,297.96z"/>
<path fill="#FFFFFF" d="M65.91,179v-3.3c0,0-2.01-2.1-10.61-2.1c-8.59,0-10.68,2.1-10.68,2.1v3.3c0,0,3.51-1.86,10.62-1.89
	C61.76,177.08,65.91,179,65.91,179"/>
<path fill="none" stroke="#040606" stroke-width="1.4981" stroke-linecap="round" stroke-linejoin="round" stroke-miterlimit="10" d="
	M65.91,179v-3.3c0,0-2.01-2.1-10.61-2.1c-8.59,0-10.68,2.1-10.68,2.1v3.3c0,0,3.51-1.86,10.62-1.89
	C61.76,177.08,65.91,179,65.91,179z"/>
<path fill="#040606" d="M44.63,179c0,0,1.61,1.38,10.44,1.44S65.91,179,65.91,179s-4.21-2.02-10.66-1.89S44.63,179,44.63,179"/>
<path fill="none" stroke="#040606" stroke-width="1.4981" stroke-linecap="round" stroke-linejoin="round" stroke-miterlimit="10" d="
	M44.63,179c0,0,1.61,1.38,10.44,1.44S65.91,179,65.91,179s-4.21-2.02-10.66-1.89S44.63,179,44.63,179z"/>
<path fill="#F9A672" d="M62.13,178.73l-1.53,20.48H50.1l-1.53-20.48c0,0,2.35-0.82,6.67-0.76
	C59.57,178.03,62.13,178.73,62.13,178.73"/>
<path fill="none" stroke="#040606" stroke-width="1.4981" stroke-linecap="round" stroke-linejoin="round" stroke-miterlimit="10" d="
	M62.13,178.73l-1.53,20.48H50.1l-1.53-20.48c0,0,2.35-0.82,6.67-0.76C59.57,178.03,62.13,178.73,62.13,178.73z"/>
<path fill="#231F20" d="M57.36,199.77l-4.07,0.09v2.43L57.36,199.77z"/>
<path fill="#FFFFFF" d="M50.72,180.01l1.55,17.23h1.54l-0.18-17.46C53.63,179.77,52.23,179.75,50.72,180.01"/>
<path fill="#BDBCBC" d="M90.44,295.15c0.87,0,1.52-0.26,2.09-0.55v-92.71h-4.07v92.67C88.46,294.55,89.59,295.15,90.44,295.15"/>
<path fill="none" stroke="#040606" stroke-width="1.4981" stroke-linecap="round" stroke-linejoin="round" stroke-miterlimit="10" d="
	M90.44,295.15c0.87,0,1.52-0.26,2.09-0.55v-92.71h-4.07v92.67C88.46,294.55,89.59,295.15,90.44,295.15z"/>
<path fill="#FFFFFF" d="M100.94,181.84v-3.26c0,0-1.98-2.07-10.45-2.07s-10.52,2.07-10.52,2.07v3.26c0,0,3.46-1.83,10.46-1.86
	C96.85,179.95,100.94,181.84,100.94,181.84"/>
<path fill="none" stroke="#040606" stroke-width="1.4981" stroke-linecap="round" stroke-linejoin="round" stroke-miterlimit="10" d="
	M100.94,181.84v-3.26c0,0-1.98-2.07-10.45-2.07s-10.52,2.07-10.52,2.07v3.26c0,0,3.46-1.83,10.46-1.86
	C96.85,179.95,100.94,181.84,100.94,181.84z"/>
<path fill="none" stroke="#040606" stroke-width="1.4981" stroke-linecap="round" stroke-linejoin="round" stroke-miterlimit="10" d="
	M79.97,181.84c0,0,1.59,1.36,10.29,1.42c8.7,0.05,10.68-1.42,10.68-1.42s-4.14-1.99-10.51-1.86
	C84.07,180.11,79.97,181.84,79.97,181.84z"/>
<path fill="#F9A672" d="M97.21,181.59l-1.5,20.18H85.36l-1.5-20.18c0,0,2.31-0.81,6.57-0.75S97.21,181.59,97.21,181.59"/>
<path fill="none" stroke="#040606" stroke-width="1.4981" stroke-linecap="round" stroke-linejoin="round" stroke-miterlimit="10" d="
	M97.21,181.59l-1.5,20.18H85.36l-1.5-20.18c0,0,2.31-0.81,6.57-0.75S97.21,181.59,97.21,181.59z"/>
<path fill="#FFFFFF" d="M85.97,182.84l1.52,16.98h1.52l-0.18-17.21C88.84,182.61,87.46,182.59,85.97,182.84"/>
<path fill="none" stroke="#231F20" stroke-width="1.4981" stroke-linecap="round" stroke-linejoin="round" stroke-miterlimit="10" d="
	M375.11,307.86c0,4.39-3.57,7.61-7.84,7.19c-4.13-0.4-7.39-4.07-7.39-8.21c0-4.14,3.25-7.38,7.39-7.23
	C371.54,299.78,375.11,303.47,375.11,307.86z"/>
<path fill="none" stroke="#231F20" stroke-width="1.4981" stroke-linecap="round" stroke-linejoin="round" stroke-miterlimit="10" d="
	M320.99,308.9c0,4.7-3.82,8.14-8.39,7.69c-4.42-0.43-7.9-4.36-7.9-8.78s3.48-7.89,7.9-7.73C317.17,300.25,320.99,304.2,320.99,308.9
	z"/>
<path fill="none" stroke="#231F20" stroke-width="1.4981" stroke-linecap="round" stroke-linejoin="round" stroke-miterlimit="10" d="
	M390.46,318.36c-0.21-0.04-0.43-0.09-0.64-0.16c-3.22-1.01-5.28-4.79-4.69-8.95c0.5-3.5,2.72-6.01,5.34-6.26l3.54-0.07l0.1,15.89
	L390.46,318.36z"/>
<path fill="none" stroke="#231F20" stroke-width="1.4981" stroke-linecap="round" stroke-linejoin="round" stroke-miterlimit="10" d="
	M338.59,320.39c-0.23-0.04-0.46-0.1-0.7-0.17c-3.47-1.09-5.7-5.17-5.06-9.67c0.54-3.78,2.94-6.49,5.77-6.76l3.82-0.07l0.11,17.16
	L338.59,320.39z"/>
<path fill="#FFFFFF" stroke="#231F20" stroke-width="1.4981" stroke-linecap="round" stroke-linejoin="round" stroke-miterlimit="10" d="
	M324.06,271.06l-24.96,1.89l-11.53,19.99l0.05,17.96l25.87,2.23"/>
<path fill="#FFFFFF" d="M312.58,311.77c0,0.78,0.64,1.4,1.41,1.38l101.05-2.6c0.78-0.02,1.41-0.68,1.41-1.45v-34.37
	c0-0.78-0.64-1.43-1.41-1.45l-90.37-2.23c-0.78-0.02-1.69,0.54-2.04,1.24l-9.43,19.38c-0.34,0.7-0.62,1.91-0.62,2.69V311.77"/>
<path fill="none" stroke="#231F20" stroke-width="1.4981" stroke-linecap="round" stroke-linejoin="round" stroke-miterlimit="10" d="
	M312.58,311.77c0,0.78,0.64,1.4,1.41,1.38l101.05-2.6c0.78-0.02,1.41-0.68,1.41-1.45v-34.37c0-0.78-0.64-1.43-1.41-1.45l-90.37-2.23
	c-0.78-0.02-1.69,0.54-2.04,1.24l-9.43,19.38c-0.34,0.7-0.62,1.91-0.62,2.69V311.77z"/>
<path fill="#FFFFFF" d="M412.07,305.74l-5.89,0.11c-0.44,0-0.8-0.36-0.8-0.8v-11.32c0-0.44,0.36-0.8,0.8-0.8h5.89
	c0.44,0,0.8,0.36,0.8,0.8v11.21C412.88,305.38,412.51,305.74,412.07,305.74"/>
<path fill="none" stroke="#231F20" stroke-width="1.4981" stroke-linecap="round" stroke-linejoin="round" stroke-miterlimit="10" d="
	M412.07,305.74l-5.89,0.11c-0.44,0-0.8-0.36-0.8-0.8v-11.32c0-0.44,0.36-0.8,0.8-0.8h5.89c0.44,0,0.8,0.36,0.8,0.8v11.21
	C412.88,305.38,412.51,305.74,412.07,305.74z"/>
<path fill="none" stroke="#231F20" stroke-width="0.9988" stroke-linecap="round" stroke-linejoin="round" stroke-miterlimit="10" d="
	M405.55,299.35h7.14"/>
<path fill="none" stroke="#231F20" stroke-width="0.9988" stroke-linecap="round" stroke-linejoin="round" stroke-miterlimit="10" d="
	M405.41,297.18h7.14"/>
<path fill="none" stroke="#231F20" stroke-width="0.9988" stroke-linecap="round" stroke-linejoin="round" stroke-miterlimit="10" d="
	M405.67,295.09h7.14"/>
<path fill="none" stroke="#231F20" stroke-width="0.9988" stroke-linecap="round" stroke-linejoin="round" stroke-miterlimit="10" d="
	M405.67,301.5h7.14"/>
<path fill="#FFFFFF" stroke="#231F20" stroke-width="0.9988" stroke-linecap="round" stroke-linejoin="round" stroke-miterlimit="10" d="
	M405.82,303.54l7.14-0.11"/>
<path fill="#FFFFFF" d="M349.16,289.56h-14.49c-0.74,0-1.34-0.6-1.34-1.34v-12.16c0-0.74,0.6-1.34,1.34-1.34l14.49,0.27
	c0.73,0,1.34,0.61,1.34,1.34v11.89C350.5,288.97,349.89,289.56,349.16,289.56"/>
<path fill="none" stroke="#231F20" stroke-width="1.4981" stroke-linecap="round" stroke-linejoin="round" stroke-miterlimit="10" d="
	M349.16,289.56h-14.49c-0.74,0-1.34-0.6-1.34-1.34v-12.16c0-0.74,0.6-1.34,1.34-1.34l14.49,0.27c0.73,0,1.34,0.61,1.34,1.34v11.89
	C350.5,288.97,349.89,289.56,349.16,289.56z"/>
<path fill="#FFFFFF" d="M369.96,289.5h-14.49c-0.73,0-1.34-0.61-1.34-1.34v-11.52c0-0.73,0.6-1.34,1.34-1.34l14.49,0.27
	c0.74,0,1.34,0.6,1.34,1.34v11.25C371.3,288.89,370.7,289.5,369.96,289.5"/>
<path fill="none" stroke="#231F20" stroke-width="1.4981" stroke-linecap="round" stroke-linejoin="round" stroke-miterlimit="10" d="
	M369.96,289.5h-14.49c-0.73,0-1.34-0.61-1.34-1.34v-11.52c0-0.73,0.6-1.34,1.34-1.34l14.49,0.27c0.74,0,1.34,0.6,1.34,1.34v11.25
	C371.3,288.89,370.7,289.5,369.96,289.5z"/>
<path fill="#FFFFFF" d="M390.56,289.63h-14.49c-0.73,0-1.34-0.6-1.34-1.34v-11.04c0-0.73,0.61-1.34,1.34-1.34l14.49,0.21
	c0.73,0,1.34,0.6,1.34,1.34v10.82C391.9,289.02,391.3,289.63,390.56,289.63"/>
<path fill="none" stroke="#231F20" stroke-width="1.4981" stroke-linecap="round" stroke-linejoin="round" stroke-miterlimit="10" d="
	M390.56,289.63h-14.49c-0.73,0-1.34-0.6-1.34-1.34v-11.04c0-0.73,0.61-1.34,1.34-1.34l14.49,0.21c0.73,0,1.34,0.6,1.34,1.34v10.82
	C391.9,289.02,391.3,289.63,390.56,289.63z"/>
<path fill="#FFFFFF" d="M411.43,289.71h-14.49c-0.73,0-1.34-0.6-1.34-1.34v-10.71c0-0.74,0.6-1.34,1.34-1.34l14.49,0.32
	c0.74,0,1.34,0.6,1.34,1.34v10.39C412.77,289.11,412.16,289.71,411.43,289.71"/>
<path fill="none" stroke="#231F20" stroke-width="1.4981" stroke-linecap="round" stroke-linejoin="round" stroke-miterlimit="10" d="
	M411.43,289.71h-14.49c-0.73,0-1.34-0.6-1.34-1.34v-10.71c0-0.74,0.6-1.34,1.34-1.34l14.49,0.32c0.74,0,1.34,0.6,1.34,1.34v10.39
	C412.77,289.11,412.16,289.71,411.43,289.71z"/>
<path fill="#FCDAC0" d="M330.38,276.17c0.01-0.78-0.62-1.43-1.4-1.43l-1.44-0.02c-0.78-0.01-1.71,0.55-2.06,1.24l-8,15.66
	c-0.36,0.69-0.64,1.9-0.64,2.68v13.6c0,0.78,0.63,1.4,1.41,1.38l10.34-0.25c0.78-0.02,1.42-0.67,1.43-1.45L330.38,276.17"/>
<path fill="none" stroke="#231F20" stroke-width="1.4981" stroke-linecap="round" stroke-linejoin="round" stroke-miterlimit="10" d="
	M330.38,276.17c0.01-0.78-0.62-1.43-1.4-1.43l-1.44-0.02c-0.78-0.01-1.71,0.55-2.06,1.24l-8,15.66c-0.36,0.69-0.64,1.9-0.64,2.68
	v13.6c0,0.78,0.63,1.4,1.41,1.38l10.34-0.25c0.78-0.02,1.42-0.67,1.43-1.45L330.38,276.17z"/>
<path fill="#FFFFFF" stroke="#231F20" stroke-width="1.4981" stroke-linecap="round" stroke-linejoin="round" stroke-miterlimit="10" d="
	M312.58,292.93l-25.02,0.02"/>
<path fill="#FFFFFF" stroke="#231F20" stroke-width="1.4981" stroke-linecap="round" stroke-linejoin="round" stroke-miterlimit="10" d="
	M296.63,277.9l23.72-1.42"/>
<path fill="#BDBCBC" d="M310.05,297.97c0,1.57-0.96,2.97-2.14,3.13c-1.17,0.15-2.11-0.98-2.11-2.52c0-1.55,0.94-2.94,2.11-3.12
	C309.09,295.28,310.05,296.4,310.05,297.97"/>
<path fill="none" stroke="#231F20" stroke-width="1.4981" stroke-linecap="round" stroke-linejoin="round" stroke-miterlimit="10" d="
	M310.05,297.97c0,1.57-0.96,2.97-2.14,3.13c-1.17,0.15-2.11-0.98-2.11-2.52c0-1.55,0.94-2.94,2.11-3.12
	C309.09,295.28,310.05,296.4,310.05,297.97z"/>
<path fill="#BDBCBC" d="M293.66,297.69c0,1.41-0.87,2.66-1.92,2.8c-1.05,0.14-1.89-0.88-1.89-2.26c0-1.38,0.84-2.64,1.89-2.8
	C292.79,295.27,293.66,296.28,293.66,297.69"/>
<path fill="none" stroke="#231F20" stroke-width="1.4981" stroke-linecap="round" stroke-linejoin="round" stroke-miterlimit="10" d="
	M293.66,297.69c0,1.41-0.87,2.66-1.92,2.8c-1.05,0.14-1.89-0.88-1.89-2.26c0-1.38,0.84-2.64,1.89-2.8
	C292.79,295.27,293.66,296.28,293.66,297.69z"/>
<path fill="#F25C19" d="M304.35,273.86l9.66-0.68l-1.18,2.36l-9.82,0.65L304.35,273.86"/>
<path fill="#FFFFFF" d="M349.18,314.07c-0.68,4.75-4.2,7.67-7.79,6.55c-3.47-1.09-5.7-5.6-5.06-10.1s3.93-7.49,7.43-6.64
	C347.38,304.75,349.85,309.32,349.18,314.07"/>
<path fill="none" stroke="#231F20" stroke-width="1.4981" stroke-linecap="round" stroke-linejoin="round" stroke-miterlimit="10" d="
	M349.18,314.07c-0.68,4.75-4.2,7.67-7.79,6.55c-3.47-1.09-5.7-5.6-5.06-10.1s3.93-7.49,7.43-6.64
	C347.38,304.75,349.85,309.32,349.18,314.07z"/>
<path fill="#FFFFFF" d="M346.67,313.28c-0.39,2.78-2.45,4.48-4.54,3.82c-2.03-0.64-3.33-3.27-2.96-5.89
	c0.38-2.63,2.29-4.37,4.34-3.88C345.63,307.83,347.07,310.5,346.67,313.28"/>
<path fill="none" stroke="#231F20" stroke-width="1.4981" stroke-linecap="round" stroke-linejoin="round" stroke-miterlimit="10" d="
	M346.67,313.28c-0.39,2.78-2.45,4.48-4.54,3.82c-2.03-0.64-3.33-3.27-2.96-5.89c0.38-2.63,2.29-4.37,4.34-3.88
	C345.63,307.83,347.07,310.5,346.67,313.28z"/>
<path fill="#FFFFFF" d="M400.26,312.5c-0.62,4.4-3.89,7.1-7.21,6.06c-3.21-1.01-5.28-5.18-4.69-9.35c0.59-4.16,3.63-6.93,6.88-6.15
	C398.6,303.87,400.88,308.11,400.26,312.5"/>
<path fill="none" stroke="#231F20" stroke-width="1.4981" stroke-linecap="round" stroke-linejoin="round" stroke-miterlimit="10" d="
	M400.26,312.5c-0.62,4.4-3.89,7.1-7.21,6.06c-3.21-1.01-5.28-5.18-4.69-9.35c0.59-4.16,3.63-6.93,6.88-6.15
	C398.6,303.87,400.88,308.11,400.26,312.5z"/>
<path fill="#FFFFFF" d="M398.05,311.93c-0.37,2.57-2.27,4.14-4.21,3.54c-1.88-0.59-3.08-3.03-2.74-5.46
	c0.34-2.44,2.12-4.05,4.02-3.59C397.08,306.89,398.42,309.36,398.05,311.93"/>
<path fill="none" stroke="#231F20" stroke-width="1.4981" stroke-linecap="round" stroke-linejoin="round" stroke-miterlimit="10" d="
	M398.05,311.93c-0.37,2.57-2.27,4.14-4.21,3.54c-1.88-0.59-3.08-3.03-2.74-5.46c0.34-2.44,2.12-4.05,4.02-3.59
	C397.08,306.89,398.42,309.36,398.05,311.93z"/>
<path fill="#FFFFFF" d="M427.75,310.73v-71.01l-2.86,1.12v69.71c0,0-0.05,1.36,1.41,1.47C427.78,312.14,427.75,310.73,427.75,310.73
	"/>
<path fill="none" stroke="#231F20" stroke-width="1.4981" stroke-linecap="round" stroke-linejoin="round" stroke-miterlimit="10" d="
	M427.75,310.73v-71.01l-2.86,1.12v69.71c0,0-0.05,1.36,1.41,1.47C427.78,312.14,427.75,310.73,427.75,310.73z"/>
<path fill="#FFFFFF" d="M437.44,236.34c0-4.25,1.45-7.85,3.21-8.05c1.72-0.19,3.09,2.97,3.09,7.06c0,4.09-1.37,7.68-3.09,8.03
	C438.89,243.73,437.44,240.58,437.44,236.34"/>
<path fill="none" stroke="#040606" stroke-width="1.4981" stroke-linecap="round" stroke-linejoin="round" stroke-miterlimit="10" d="
	M437.44,236.34c0-4.25,1.45-7.85,3.21-8.05c1.72-0.19,3.09,2.97,3.09,7.06c0,4.09-1.37,7.68-3.09,8.03
	C438.89,243.73,437.44,240.58,437.44,236.34z"/>
<path fill="#F9A672" d="M438.39,241.28l-6.91-4.73c0,0-0.57-0.19-0.57-1.47s0.57-1.3,0.57-1.3l6.91-3.57c0,0,1.8,1,1.8,5.41
	S438.39,241.28,438.39,241.28"/>
<path fill="none" stroke="#040606" stroke-width="1.4981" stroke-linecap="round" stroke-linejoin="round" stroke-miterlimit="10" d="
	M438.39,241.28l-6.91-4.73c0,0-0.57-0.19-0.57-1.47s0.57-1.3,0.57-1.3l6.91-3.57c0,0,1.8,1,1.8,5.41S438.39,241.28,438.39,241.28z"
	/>
<path fill="#F25C19" d="M404.61,233.6l-18.72-1.31v-1.66l18.72,1.31V233.6"/>
<path fill="#F25C19" d="M404.61,238.23l-16.21,8.27l-0.83-1.49l16.21-8.27L404.61,238.23"/>
<path fill="#F25C19" d="M387.57,218.13l16.21,10.54l0.83-1.38l-16.21-10.54L387.57,218.13"/>
<g>
	<defs>
		<rect id="XMLID_3_" x="446" y="235" width="17.84" height="4"/>
	</defs>
	<clipPath id="XMLID_6_">
		<use xlink:href="#XMLID_3_" />
	</clipPath>
	<g clip-path="url(#XMLID_6_)">
		<path fill="#F25C19" d="M446.22,237.3l17.04,1.19v-1.51l-17.04-1.19V237.3"/>
	</g>
</g>
<path fill="#F25C19" d="M446.22,241.51l14.75,9.59l0.75-1.25l-14.75-9.59L446.22,241.51"/>
<path fill="#F25C19" d="M461.72,225.39l-14.75,7.52l-0.75-1.36l14.75-7.52L461.72,225.39"/>
<path fill="#FFFFFF" d="M432.7,232.54c0.71,4.91-1.71,9.86-5.31,11.01c-3.51,1.13-6.83-1.78-7.5-6.46s1.52-9.54,5-10.9
	C428.45,224.8,431.99,227.63,432.7,232.54"/>
<path fill="none" stroke="#231F20" stroke-width="1.4981" stroke-linecap="round" stroke-linejoin="round" stroke-miterlimit="10" d="
	M432.7,232.54c0.71,4.91-1.71,9.86-5.31,11.01c-3.51,1.13-6.83-1.78-7.5-6.46s1.52-9.54,5-10.9
	C428.45,224.8,431.99,227.63,432.7,232.54z"/>
<path fill="#F9A672" stroke="#040606" stroke-width="1.4981" stroke-linecap="round" stroke-linejoin="round" stroke-miterlimit="10" d="
	M414.27,227.73l7.24,4.95c0,0,0.6,0.2,0.6,1.54c0,1.34-0.6,1.37-0.6,1.37l-7.24,3.74"/>
<path fill="#FFFFFF" d="M415.26,232.91c0,4.45-1.52,8.23-3.37,8.43c-1.81,0.2-3.25-3.11-3.25-7.4c0-4.29,1.44-8.05,3.25-8.41
	C413.74,225.16,415.26,228.46,415.26,232.91"/>
<path fill="none" stroke="#040606" stroke-width="1.4981" stroke-linecap="round" stroke-linejoin="round" stroke-miterlimit="10" d="
	M415.26,232.91c0,4.45-1.52,8.23-3.37,8.43c-1.81,0.2-3.25-3.11-3.25-7.4c0-4.29,1.44-8.05,3.25-8.41
	C413.74,225.16,415.26,228.46,415.26,232.91z"/>
<path fill="none" stroke="#040606" stroke-width="1.4981" stroke-linecap="round" stroke-linejoin="round" stroke-miterlimit="10" d="
	M415.01,231.31l-2.32-0.12c0,0-1.75-0.12-1.75,2.05c0,1.99,1.79,2.3,1.79,2.3l1.9,0.32"/>
<path fill="#7B7979" d="M423.66,230.29l2.12,0.17v2.83l2.32,0.17v-2.83l2.13,0.11v8.58l-2.13-0.11v-3.64l-2.32-0.17v3.59l-2.12-0.11
	V230.29"/>
<path fill="#231F20" d="M427.77,244.92l-2.99,1.1l-0.05-2.35l3-0.01L427.77,244.92"/>
<path fill="none" stroke="#040606" stroke-width="0.9988" stroke-miterlimit="10" d="M69.96,369.04"/>
<path fill="#FFFFFF" d="M69.87,369.98h103.35v-5.37H69.87V369.98z"/>
<path fill="none" stroke="#040606" stroke-width="0.9988" stroke-miterlimit="10" d="M69.87,364.61h103.35v5.37H69.87"/>
<path fill="#FFFFFF" d="M71.93,367.22c0,1.36-0.73,2.7-1.95,2.72c-1.21,0.02-1.91-1.25-1.91-2.6c0-1.34,0.71-2.68,1.91-2.72
	C71.2,364.58,71.93,365.86,71.93,367.22"/>
<path fill="none" stroke="#040606" stroke-width="0.9988" stroke-miterlimit="10" d="M71.93,367.22c0,1.36-0.73,2.7-1.95,2.72
	c-1.21,0.02-1.91-1.25-1.91-2.6c0-1.34,0.71-2.68,1.91-2.72C71.2,364.58,71.93,365.86,71.93,367.22z"/>
<path fill="#F25C19" d="M83.13,365.06c0,0,0.77,0.31,0.83,2.26c0.07,1.95-0.83,2.23-0.83,2.23l11.98-0.07c0,0,0.91,0.02,0.94-2.12
	c0.04-2.25-1.15-2.28-1.15-2.28L83.13,365.06"/>
<path fill="#F25C19" d="M106.4,365.05c0,0,0.77,0.31,0.83,2.27c0.07,1.95-0.83,2.23-0.83,2.23l11.98-0.07c0,0,0.9,0.02,0.94-2.13
	c0.04-2.25-1.15-2.28-1.15-2.28L106.4,365.05"/>
<path fill="#F25C19" d="M129.53,365.05c0,0,0.77,0.31,0.83,2.27c0.07,1.95-0.83,2.23-0.83,2.23l11.98-0.07c0,0,0.91,0.02,0.94-2.13
	c0.04-2.25-1.15-2.28-1.15-2.28L129.53,365.05"/>
<path fill="#F25C19" d="M152.3,365.05c0,0,0.77,0.31,0.84,2.27c0.07,1.95-0.84,2.23-0.84,2.23l11.98-0.07c0,0,0.91,0.02,0.94-2.13
	c0.04-2.25-1.15-2.28-1.15-2.28L152.3,365.05"/>
<path fill="#BDBCBC" stroke="#231F20" stroke-width="1.4981" stroke-linecap="round" stroke-linejoin="round" stroke-miterlimit="10" d="
	M168.25,393.16l-6.1-0.69l-0.23-24.83c0,0-0.46-7.61,6.9-7.61l7.02,0.11"/>
<path fill="#FFFFFF" d="M175.84,360.14c-4.19,0-7.59,3.4-7.59,7.59v25.43l15.17-0.52v-24.91
	C183.42,363.54,180.03,360.14,175.84,360.14"/>
<path fill="none" stroke="#231F20" stroke-width="1.4981" stroke-linecap="round" stroke-linejoin="round" stroke-miterlimit="10" d="
	M175.84,360.14c-4.19,0-7.59,3.4-7.59,7.59v25.43l15.17-0.52v-24.91C183.42,363.54,180.03,360.14,175.84,360.14z"/>
<path fill="#FFFFFF" d="M179.21,367.38c0,2.01-1.37,3.64-3.38,3.64c-2.01,0-3.38-1.63-3.38-3.64c0-2.01,1.37-3.64,3.38-3.64
	C177.85,363.74,179.21,365.37,179.21,367.38"/>
<path fill="none" stroke="#231F20" stroke-width="1.4981" stroke-linecap="round" stroke-linejoin="round" stroke-miterlimit="10" d="
	M179.21,367.38c0,2.01-1.37,3.64-3.38,3.64c-2.01,0-3.38-1.63-3.38-3.64c0-2.01,1.37-3.64,3.38-3.64
	C177.85,363.74,179.21,365.37,179.21,367.38z"/>
<path fill="#231F20" d="M158.08,364.75c0,0,2.71,0.28,2.79,5.09h1.01l0.02-2.79l0.23-2.28L158.08,364.75"/>
<path fill="#FFFFFF" d="M64.27,348.33H63v-43.57h1.27V348.33"/>
<path fill="none" stroke="#FFFFFF" stroke-width="1.9975" stroke-linecap="round" stroke-linejoin="round" stroke-miterlimit="10" d="
	M64.27,348.33H63v-43.57h1.27V348.33z"/>
<path fill="#FFFFFF" d="M118.83,348.33h-1.27v-43.57h1.27V348.33"/>
<path fill="none" stroke="#FFFFFF" stroke-width="1.9975" stroke-linecap="round" stroke-linejoin="round" stroke-miterlimit="10" d="
	M118.83,348.33h-1.27v-43.57h1.27V348.33z"/>
<path fill="none" stroke="#FFFFFF" stroke-width="1.9975" stroke-linecap="round" stroke-linejoin="round" stroke-miterlimit="10" d="
	M113.92,342.5H67.85v-29.45h46.07V342.5z"/>
<path fill="none" stroke="#FFFFFF" stroke-width="1.9975" stroke-linecap="round" stroke-linejoin="round" stroke-miterlimit="10" d="
	M90.86,313.16v29.16"/>
<path fill="none" stroke="#FFFFFF" stroke-width="1.9975" stroke-linecap="round" stroke-linejoin="round" stroke-miterlimit="10" d="
	M79.18,313.16v29.16"/>
<path fill="none" stroke="#FFFFFF" stroke-width="1.9975" stroke-linecap="round" stroke-linejoin="round" stroke-miterlimit="10" d="
	M102.45,313.16v29.16"/>
<path fill="none" stroke="#FFFFFF" stroke-width="1.9975" stroke-linecap="round" stroke-linejoin="round" stroke-miterlimit="10" d="
	M73.52,313.37v29.16"/>
<path fill="none" stroke="#FFFFFF" stroke-width="1.9975" stroke-linecap="round" stroke-linejoin="round" stroke-miterlimit="10" d="
	M85.07,313.23v29.16"/>
<path fill="none" stroke="#FFFFFF" stroke-width="1.9975" stroke-linecap="round" stroke-linejoin="round" stroke-miterlimit="10" d="
	M96.7,313.27v29.16"/>
<path fill="none" stroke="#FFFFFF" stroke-width="1.9975" stroke-linecap="round" stroke-linejoin="round" stroke-miterlimit="10" d="
	M108.2,313.37v29.16"/>
<path fill="none" stroke="#FFFFFF" stroke-width="1.9975" stroke-linecap="round" stroke-linejoin="round" stroke-miterlimit="10" d="
	M168.68,342.48h-46.07v-29.45h46.07V342.48z"/>
<path fill="none" stroke="#FFFFFF" stroke-width="1.9975" stroke-linecap="round" stroke-linejoin="round" stroke-miterlimit="10" d="
	M145.63,313.15v29.16"/>
<path fill="none" stroke="#FFFFFF" stroke-width="1.9975" stroke-linecap="round" stroke-linejoin="round" stroke-miterlimit="10" d="
	M133.94,313.15v29.16"/>
<path fill="none" stroke="#FFFFFF" stroke-width="1.9975" stroke-linecap="round" stroke-linejoin="round" stroke-miterlimit="10" d="
	M157.21,313.15v29.16"/>
<path fill="none" stroke="#FFFFFF" stroke-width="1.9975" stroke-linecap="round" stroke-linejoin="round" stroke-miterlimit="10" d="
	M128.28,313.36v28.97"/>
<path fill="none" stroke="#FFFFFF" stroke-width="1.9975" stroke-linecap="round" stroke-linejoin="round" stroke-miterlimit="10" d="
	M139.84,313.22v29.16"/>
<path fill="none" stroke="#FFFFFF" stroke-width="1.9975" stroke-linecap="round" stroke-linejoin="round" stroke-miterlimit="10" d="
	M151.46,313.25v29.16"/>
<path fill="none" stroke="#FFFFFF" stroke-width="1.9975" stroke-linecap="round" stroke-linejoin="round" stroke-miterlimit="10" d="
	M162.96,313.36v29.16"/>
<path fill="#FFFFFF" d="M125.08,351.69h-13.64v-5.67h13.64V351.69"/>
<path fill="none" stroke="#FFFFFF" stroke-width="1.9975" stroke-linecap="round" stroke-linejoin="round" stroke-miterlimit="10" d="
	M125.08,351.69h-13.64v-5.67h13.64V351.69z"/>
<path fill="#FFFFFF" d="M70.47,351.81H56.84v-5.66h13.63V351.81"/>
<path fill="none" stroke="#FFFFFF" stroke-width="1.9975" stroke-linecap="round" stroke-linejoin="round" stroke-miterlimit="10" d="
	M70.47,351.81H56.84v-5.66h13.63V351.81z"/>
<path fill="#FFFFFF" d="M173.64,348.39h-1.79v-43.57h1.79V348.39"/>
<path fill="none" stroke="#FFFFFF" stroke-width="1.9975" stroke-linecap="round" stroke-linejoin="round" stroke-miterlimit="10" d="
	M173.64,348.39h-1.79v-43.57h1.79V348.39z"/>
<path fill="#FFFFFF" d="M179.85,351.87h-13.63v-5.66h13.63V351.87"/>
<path fill="none" stroke="#FFFFFF" stroke-width="1.9975" stroke-linecap="round" stroke-linejoin="round" stroke-miterlimit="10" d="
	M179.85,351.87h-13.63v-5.66h13.63V351.87z"/>
<path fill="#FFFFFF" d="M401.79,124.12c0-5.25,1.8-9.82,3.98-10.22c2.14-0.38,3.84,3.41,3.84,8.46c0,5.05-1.7,9.61-3.84,10.18
	C403.6,133.13,401.79,129.37,401.79,124.12"/>
<path fill="none" stroke="#040606" stroke-width="1.4981" stroke-linecap="round" stroke-linejoin="round" stroke-miterlimit="10" d="
	M401.79,124.12c0-5.25,1.8-9.82,3.98-10.22c2.14-0.38,3.84,3.41,3.84,8.46c0,5.05-1.7,9.61-3.84,10.18
	C403.6,133.13,401.79,129.37,401.79,124.12z"/>
<path fill="#F9A672" d="M402.96,130.14l-8.57-5.25c0,0-0.71-0.18-0.71-1.77c0-1.58,0.71-1.66,0.71-1.66l8.57-5.01
	c0,0,2.24,1.07,2.24,6.53S402.96,130.14,402.96,130.14"/>
<path fill="none" stroke="#040606" stroke-width="1.4981" stroke-linecap="round" stroke-linejoin="round" stroke-miterlimit="10" d="
	M402.96,130.14l-8.57-5.25c0,0-0.71-0.18-0.71-1.77c0-1.58,0.71-1.66,0.71-1.66l8.57-5.01c0,0,2.24,1.07,2.24,6.53
	S402.96,130.14,402.96,130.14z"/>
<path fill="#FFFFFF" stroke="#040606" stroke-width="1.4981" stroke-linecap="round" stroke-linejoin="round" stroke-miterlimit="10" d="
	M381.05,116.6l-6.53,0.49v2.12l-2.29,0.17v6.3l2.29,0.06v2.61l3.42,0.22v6.7"/>
<path fill="#BDBCBC" stroke="#040606" stroke-width="1.4981" stroke-linecap="round" stroke-linejoin="round" stroke-miterlimit="10" d="
	M362.73,134.91l-14.15,2.24v69.37l14.15,2.7"/>
<path fill="#F25C19" d="M354.98,123.04h-23.22v-2.05h23.22V123.04"/>
<path fill="#F25C19" d="M354.98,128.75l-20.11,11.61l-1.02-1.77l20.11-11.61L354.98,128.75"/>
<path fill="#F25C19" d="M333.85,105.41l20.11,11.61l1.03-1.77l-20.11-11.61L333.85,105.41"/>
<path fill="#F25C19" d="M412.68,124.55h21.13v-1.86h-21.13V124.55"/>
<path fill="#F25C19" d="M412.68,129.75l18.3,10.56l0.93-1.61l-18.3-10.56L412.68,129.75"/>
<path fill="#F25C19" d="M431.91,108.5l-18.3,10.57l-0.93-1.61l18.3-10.57L431.91,108.5"/>
<path fill="#FFFFFF" d="M388.65,135.54v-6.74l4.37,0.11v-3.01h1.86v-5.79l-1.86-0.11v-2.66l-11.97-0.74v2.41l-1.79,0.05v6.64
	l1.79,0.11v2.75l4.36,0.17v6.68l-22.69-0.51v74.3l48.61-2.27v-70.62L388.65,135.54"/>
<path fill="none" stroke="#040606" stroke-width="1.4981" stroke-linecap="round" stroke-linejoin="round" stroke-miterlimit="10" d="
	M388.65,135.54v-6.74l4.37,0.11v-3.01h1.86v-5.79l-1.86-0.11v-2.66l-11.97-0.74v2.41l-1.79,0.05v6.64l1.79,0.11v2.75l4.36,0.17v6.68
	l-22.69-0.51v74.3l48.61-2.27v-70.62L388.65,135.54z"/>
<path fill="#FAB78A" d="M367.75,168.38c-1.06,0-1.91-0.86-1.91-1.91v-8.03c0-1.05,0.86-1.91,1.91-1.91l38.86,0.51
	c1.05,0,1.91,0.86,1.91,1.91v7.52c0,1.05-0.86,1.91-1.91,1.91H367.75"/>
<path fill="#231F20" d="M367.75,156.02L367.75,156.02c-1.34,0-2.42,1.08-2.42,2.41v8.03c0,1.33,1.08,2.41,2.41,2.41h38.85
	c1.33,0,2.41-1.08,2.41-2.41v-7.52c0-1.33-1.08-2.41-2.41-2.41L367.75,156.02L367.75,156.02z M367.75,157.02l38.85,0.51
	c0.78,0,1.41,0.64,1.41,1.41v7.52c0,0.78-0.64,1.41-1.41,1.41h-38.85c-0.78,0-1.42-0.64-1.42-1.41v-8.03
	C366.33,157.66,366.97,157.02,367.75,157.02"/>
<path fill="#FFFFFF" d="M398.36,161.18v2.61h-20.6v1.25l-1.97-2.55l2.07-2.58v1.29L398.36,161.18"/>
<path fill="#FAB78A" d="M367.72,151.88c-1.05,0-1.91-0.86-1.91-1.92v-8.03c0-1.05,0.86-1.91,1.91-1.91l38.86,0.85
	c1.05,0,1.9,0.86,1.9,1.92v7.58c0,1.05-0.86,1.91-1.91,1.91L367.72,151.88"/>
<path fill="#231F20" d="M367.73,139.52h-0.01c-1.33,0-2.41,1.08-2.41,2.41v8.03c0,1.33,1.08,2.41,2.41,2.41l38.84,0.4
	c1.34,0,2.42-1.08,2.42-2.41v-7.58c0-1.33-1.08-2.41-2.41-2.41l-38.83-0.85H367.73z M367.72,140.52l38.85,0.85
	c0.78,0,1.42,0.64,1.42,1.42v7.58c0,0.78-0.64,1.41-1.42,1.41l-38.85-0.39c-0.78,0-1.42-0.64-1.42-1.42v-8.03
	C366.3,141.15,366.95,140.52,367.72,140.52"/>
<path fill="#FFFFFF" d="M387.11,145.11v-1.18h-3.89v0.01h-0.01l0,2.73h-1.54v0l-1.18,0l0,2.71h-2.71v1.18h3.89v0h0l0-0.34v-0.84
	l0-1.54h2.72v-1.18h0l0-1.55H387.11"/>
<path fill="#FFFFFF" d="M375.94,150.55h-4.38v-9.07h4.38V150.55"/>
<path fill="#FFFFFF" d="M400.07,147.93l-2.16-1.32l-0.54-1.79l1.88-0.58l1.45,0.52l0.69-0.87l-2.05-0.73l-2.63,0.77l-0.09-0.3
	c0.21-0.17,0.37-0.4,0.42-0.68c0.13-0.65-0.3-1.27-0.94-1.39s-1.27,0.3-1.39,0.94s0.3,1.27,0.94,1.39c0.04,0.01,0.07,0,0.11,0
	l0.07,0.28l-2.43,0.75l-1.28-0.64l-0.54,0.95l1.82,0.82l2.5-0.76l0.45,1.7l-2.79,0.86l-1,2.79h1.24l0.61-1.98l2.91-0.91l2.41,1.36
	l2.58,0.38l0.1-1.25L400.07,147.93"/>
<path fill="#FAB78A" d="M367.75,184.96c-1.05,0-1.91-0.86-1.91-1.91v-8.04c0-1.05,0.86-1.91,1.91-1.91h38.85
	c1.05,0,1.91,0.86,1.91,1.91v7.3c0,1.05-0.86,1.91-1.91,1.91L367.75,184.96L367.75,184.96"/>
<path fill="#231F20" d="M406.6,172.6h-38.85c-1.33,0-2.41,1.09-2.41,2.41v8.04c0,1.33,1.08,2.41,2.41,2.41l38.87-0.74
	c1.31,0,2.39-1.08,2.39-2.41v-7.3C409.02,173.68,407.93,172.6,406.6,172.6z M406.6,173.6c0.78,0,1.41,0.64,1.41,1.41v7.3
	c0,0.78-0.64,1.41-1.41,1.41l-38.85,0.74c-0.78,0-1.42-0.64-1.42-1.41v-8.04c0-0.78,0.64-1.41,1.42-1.41H406.6"/>
<path fill="#FFFFFF" d="M376,177.75v2.61h20.6v1.26l1.97-2.55l-2.07-2.58v1.29L376,177.75"/>
<path fill="#F9A672" stroke="#040606" stroke-width="1.4981" stroke-linecap="round" stroke-linejoin="round" stroke-miterlimit="10" d="
	M366.97,114.95l8.98,5.5c0,0,0.74,0.2,0.74,1.86c0,1.66-0.74,1.73-0.74,1.73l-8.98,5.25"/>
<path fill="#FFFFFF" d="M368.2,121.27c0,5.5-1.89,10.29-4.18,10.7c-2.24,0.41-4.02-3.57-4.02-8.86s1.79-10.07,4.02-10.67
	C366.31,111.82,368.2,115.77,368.2,121.27"/>
<path fill="none" stroke="#040606" stroke-width="1.4981" stroke-linecap="round" stroke-linejoin="round" stroke-miterlimit="10" d="
	M368.2,121.27c0,5.5-1.89,10.29-4.18,10.7c-2.24,0.41-4.02-3.57-4.02-8.86s1.79-10.07,4.02-10.67
	C366.31,111.82,368.2,115.77,368.2,121.27z"/>
<path fill="none" stroke="#040606" stroke-width="1.4981" stroke-linecap="round" stroke-linejoin="round" stroke-miterlimit="10" d="
	M367.89,119.32l-2.87,0.05c0,0-2.17,0.01-2.17,2.69c0,2.46,2.23,2.69,2.23,2.69l2.36,0.23"/>
<path fill="none" stroke="#040606" stroke-width="1.4981" stroke-linecap="round" stroke-linejoin="round" stroke-miterlimit="10" d="
	M381.05,128.57l-6.53-0.22"/>
<path fill="#231F20" d="M385.41,129.3l-7.46,2.41l-0.01-2.53L385.41,129.3z"/>
<path fill="#BDBCBC" d="M115.97,148.66l-9.71-1.4v-14.38l9.39-0.37L115.97,148.66"/>
<path fill="none" stroke="#231F20" stroke-width="1.4981" stroke-linecap="round" stroke-linejoin="round" stroke-miterlimit="10" d="
	M115.97,148.66l-9.71-1.4v-14.38l9.39-0.37L115.97,148.66z"/>
<path fill="#BDBCBC" stroke="#231F20" stroke-width="1.4981" stroke-linecap="round" stroke-linejoin="round" stroke-miterlimit="10" d="
	M69.71,67.19l-8.63,1.34v64.3l8.63,0.94"/>
<path fill="#FFFFFF" d="M176.61,131.56l-106.9,2.21V67.19l106.9,6.4V131.56"/>
<path fill="none" stroke="#040606" stroke-width="1.4981" stroke-linecap="round" stroke-linejoin="round" stroke-miterlimit="10" d="
	M176.61,131.56l-106.9,2.21V67.19l106.9,6.4V131.56z"/>
<path fill="#FFFFFF" d="M134.54,147.92l-18.57,0.74v-18.97l18.57-0.34V147.92"/>
<path fill="none" stroke="#040606" stroke-width="1.4981" stroke-linecap="round" stroke-linejoin="round" stroke-miterlimit="10" d="
	M134.54,147.92l-18.57,0.74v-18.97l18.57-0.34V147.92z"/>
<path fill="#FCDAC0" stroke="#000000" d="M171.23,125.08l-96.83,1.13V71.55l96.83,5.32V125.08"/>
<g>
	<g>
		<path fill="#B1B2B4" d="M80.14,111.94c-1.12-9.24-1.68-13.9-2.8-23.31c1.14,0.06,1.71,0.09,2.84,0.15
			c0.7,6.41,1.05,9.6,1.75,15.93c1.12-6.32,1.69-9.46,2.81-15.69c1.32,0.07,1.98,0.11,3.29,0.18c0.84,6.37,1.26,9.54,2.09,15.83
			c0.95-6.27,1.43-9.39,2.38-15.59c1.11,0.06,1.67,0.09,2.78,0.15c-1.48,8.79-2.23,13.23-3.72,22.19c-1.18,0.02-1.78,0.03-2.96,0.04
			c-0.96-6.73-1.44-10.13-2.39-16.97c-1.22,6.76-1.83,10.17-3.05,17.05C81.95,111.91,81.35,111.92,80.14,111.94z"/>
		<path fill="#B1B2B4" d="M107.06,111.55c-1.2,0.02-1.81,0.03-3.01,0.04c-0.44-1.95-0.66-2.92-1.1-4.88c-2.19,0-3.29,0-5.48,0
			c-0.49,1.99-0.74,2.99-1.23,5c-1.17,0.02-1.76,0.03-2.94,0.04c2.31-8.93,3.46-13.32,5.76-21.97c1.18,0.06,1.77,0.09,2.95,0.16
			C104.03,98.73,105.04,103.05,107.06,111.55z M102.15,103.05c-0.7-3.22-1.05-4.85-1.75-8.11c-0.8,3.2-1.21,4.82-2.01,8.06
			C99.89,103.02,100.64,103.03,102.15,103.05z"/>
		<path fill="#B1B2B4" d="M107.6,111.54c0.16-8.51,0.25-12.77,0.41-21.29c2.33,0.12,3.49,0.19,5.82,0.31
			c1.46,0.08,2.52,0.32,3.18,0.73c0.66,0.4,1.17,1.09,1.55,2.05c0.38,0.96,0.56,2.05,0.54,3.26c-0.03,1.54-0.36,2.8-0.98,3.79
			s-2.74,1.86-2.74,1.86c-0.02,0.08,1.07,1.13,1.44,1.76c0.38,0.63,0.88,1.76,1.51,3.35c0.64,1.6,0.96,2.4,1.6,3.99
			c-1.32,0.02-1.99,0.03-3.31,0.05c-0.76-1.79-1.14-2.69-1.9-4.5c-0.68-1.62-1.15-2.65-1.4-3.08s-0.53-0.72-0.82-0.88
			c-0.29-0.16-0.75-0.25-1.39-0.26c-0.22,0-0.34,0-0.56-0.01c-0.07,3.53-0.1,5.29-0.17,8.81
			C109.26,111.52,108.7,111.52,107.6,111.54z M110.6,99.33c0.82,0.02,1.23,0.03,2.04,0.05c1.32,0.03,2.15-0.03,2.49-0.2
			c0.33-0.16,0.6-0.45,0.79-0.86s0.3-0.93,0.31-1.55c0.01-0.7-0.1-1.27-0.34-1.71c-0.24-0.44-0.59-0.74-1.02-0.86
			c-0.22-0.06-0.89-0.11-2.01-0.15c-0.86-0.04-1.29-0.05-2.15-0.09C110.66,96.11,110.64,97.18,110.6,99.33z"/>
		<path fill="#B1B2B4" d="M120.47,111.35c0.16-8.17,0.23-12.25,0.39-20.42c1.07,0.06,1.61,0.08,2.68,0.14
			c2.15,5.55,3.22,8.28,5.38,13.62c0.1-5.33,0.15-7.99,0.26-13.32c1.02,0.05,1.53,0.08,2.56,0.13c-0.15,7.87-0.23,11.81-0.38,19.68
			c-1.11,0.02-1.66,0.03-2.77,0.04c-2.12-5.19-3.18-7.83-5.3-13.22c-0.1,5.32-0.15,7.98-0.26,13.3
			C122.01,111.33,121.5,111.34,120.47,111.35z"/>
		<path fill="#B1B2B4" d="M133.23,111.17c0.15-7.82,0.23-11.73,0.38-19.56c1.11,0.06,1.66,0.09,2.77,0.15
			c-0.15,7.75-0.22,11.62-0.37,19.37C134.89,111.14,134.34,111.15,133.23,111.17z"/>
		<path fill="#B1B2B4" d="M137.74,111.1c0.15-7.7,0.22-11.55,0.37-19.25c1.07,0.06,1.61,0.08,2.68,0.14
			c2.15,5.24,3.23,7.81,5.39,12.84c0.1-5.02,0.14-7.52,0.24-12.54c1.02,0.05,1.53,0.08,2.56,0.14c-0.14,7.41-0.21,11.11-0.36,18.52
			c-1.11,0.02-1.66,0.02-2.77,0.04c-2.13-4.88-3.19-7.37-5.32-12.45c-0.1,5.01-0.14,7.52-0.24,12.53
			C139.28,111.08,138.77,111.09,137.74,111.1z"/>
		<path fill="#B1B2B4" d="M156.94,104.24c0.02-1.21,0.03-1.82,0.06-3.04c2.39,0.05,3.58,0.08,5.97,0.13c-0.05,2.8-0.08,4.2-0.13,7
			c-0.59,0.72-1.45,1.36-2.56,1.93c-1.11,0.56-2.23,0.86-3.36,0.88c-1.43,0.02-2.68-0.35-3.73-1.14c-1.05-0.79-1.83-1.93-2.34-3.43
			s-0.74-3.14-0.71-4.91c0.04-1.92,0.37-3.62,1-5.08s1.53-2.56,2.69-3.29c0.89-0.56,1.99-0.8,3.3-0.73c1.7,0.09,3.02,0.63,3.96,1.6
			c0.94,0.97,1.53,2.26,1.77,3.89c-1.11,0.22-1.66,0.34-2.76,0.56c-0.18-0.88-0.52-1.58-1.05-2.11c-0.52-0.53-1.18-0.81-1.98-0.85
			c-1.21-0.05-2.18,0.41-2.91,1.4s-1.12,2.49-1.16,4.5c-0.04,2.17,0.29,3.79,0.99,4.87s1.64,1.61,2.81,1.61
			c0.58,0,1.16-0.15,1.75-0.45c0.59-0.3,1.1-0.65,1.52-1.07c0.02-0.9,0.03-1.35,0.04-2.25
			C158.84,104.26,158.21,104.26,156.94,104.24z"/>
		<path fill="#B1B2B4" d="M165.12,106.21c-0.2-3.53-0.31-5.31-0.51-8.86c0.03-1.64,0.05-2.46,0.08-4.09
			c1.14,0.06,1.7,0.09,2.84,0.15c-0.03,1.62-0.05,2.43-0.08,4.05c-0.34,3.49-0.5,5.24-0.84,8.75
			C166.01,106.21,165.71,106.21,165.12,106.21z M164.47,110.72c0.03-1.34,0.04-2.01,0.06-3.35c1.05,0,1.58,0,2.63,0
			c-0.03,1.33-0.04,1.99-0.06,3.31C166.05,110.69,165.52,110.7,164.47,110.72z"/>
	</g>
</g>
<path fill="#7B7979" d="M283.43,67.18l8.55,52.08l3.63,0.52l-8.9-52.53L283.43,67.18"/>
<path fill="none" stroke="#231F20" stroke-width="1.4981" stroke-linecap="round" stroke-linejoin="round" stroke-miterlimit="10" d="
	M283.43,67.18l8.55,52.08l3.63,0.52l-8.9-52.53L283.43,67.18z"/>
<path fill="#BDBCBC" d="M264.42,121.32l-3.5-0.53l9.69-58c0,0,1.11-8.71,11.97-8.07l-8.86,8.9L264.42,121.32"/>
<path fill="none" stroke="#231F20" stroke-width="1.4981" stroke-linecap="round" stroke-linejoin="round" stroke-miterlimit="10" d="
	M264.42,121.32l-3.5-0.53l9.69-58c0,0,1.11-8.71,11.97-8.07l-8.86,8.9L264.42,121.32z"/>
<path fill="#FFFFFF" d="M300.63,119.56l-9.91-58.07c-0.79-3.87-4.03-6.78-8.13-6.78c-4.12,0-7.74,2.93-8.52,6.82l-9.64,59.79
	l4.91-0.2l8.61-54.16l8.77,0.3l8.9,52.53L300.63,119.56"/>
<path fill="none" stroke="#231F20" stroke-width="1.4981" stroke-linecap="round" stroke-linejoin="round" stroke-miterlimit="10" d="
	M300.63,119.56l-9.91-58.07c-0.79-3.87-4.03-6.78-8.13-6.78c-4.12,0-7.74,2.93-8.52,6.82l-9.64,59.79l4.91-0.2l8.61-54.16l8.77,0.3
	l8.9,52.53L300.63,119.56z"/>
<path fill="#040606" d="M286.68,67.39l-2.81,2.11l-0.38-2.08L286.68,67.39z"/>
<path fill="#FFFFFF" d="M295.86,98.95c18.4-0.79,31.48-15.83,32.18-36.46l-32.18-0.68V98.95z M291.99,61.53l-33.32-0.96
	c0.7,20.63,14.92,37.6,33.32,38.39V61.53z M291.95,19.81c-18.4,0.79-32.61,16.4-33.32,37.03l33.32,0.96V19.81z M295.82,58.08
	L328,58.76c-0.7-20.63-13.79-38.17-32.19-38.95V58.08z M331.77,59.33c0,24.16-16.34,43.75-37.89,43.75s-39.02-19.59-39.02-43.75
	c0-24.16,17.47-43.75,39.02-43.75S331.77,35.17,331.77,59.33"/>
<path fill="none" stroke="#231F20" stroke-width="1.4981" stroke-linecap="round" stroke-linejoin="round" stroke-miterlimit="10" d="
	M295.86,98.95c18.4-0.79,31.48-15.83,32.18-36.46l-32.18-0.68V98.95z M291.99,61.53l-33.32-0.96c0.7,20.63,14.92,37.6,33.32,38.39
	V61.53z M291.95,19.81c-18.4,0.79-32.61,16.4-33.32,37.03l33.32,0.96V19.81z M295.82,58.08L328,58.76
	c-0.7-20.63-13.79-38.17-32.19-38.95V58.08z M331.77,59.33c0,24.16-16.34,43.75-37.89,43.75s-39.02-19.59-39.02-43.75
	c0-24.16,17.47-43.75,39.02-43.75S331.77,35.17,331.77,59.33z"/>
<path fill="#BDBCBC" d="M219.81,79.68l-12.76,0.52v3.05h1.91v41.7l12.48,1.95V83.11L219.81,79.68"/>
<path fill="none" stroke="#231F20" stroke-width="1.4981" stroke-linecap="round" stroke-linejoin="round" stroke-miterlimit="10" d="
	M219.81,79.68l-12.76,0.52v3.05h1.91v41.7l12.48,1.95V83.11L219.81,79.68z"/>
<path fill="#FFFFFF" d="M219.81,79.68v3.43h1.63v43.79l24.33-1.25V83.33h1.66v-3.2L219.81,79.68"/>
<path fill="none" stroke="#231F20" stroke-width="1.4981" stroke-linecap="round" stroke-linejoin="round" stroke-miterlimit="10" d="
	M219.81,79.68v3.43h1.63v43.79l24.33-1.25V83.33h1.66v-3.2L219.81,79.68z"/>
<path fill="#FCDAC0" d="M242.24,103.89l-17.26,0.23V83.19l17.26,0.23V103.89"/>
<path fill="none" stroke="#231F20" stroke-width="1.4981" stroke-linecap="round" stroke-linejoin="round" stroke-miterlimit="10" d="
	M242.24,103.89l-17.26,0.23V83.19l17.26,0.23V103.89z"/>
<path fill="#FFFFFF" d="M226.98,84.91l5.66,16.54l2.33-0.05l-3.83-16.42L226.98,84.91"/>
<path fill="#918F8F" d="M288.67,22.61l-4.15,0.46l1.69,7.6l4.11-0.27L288.67,22.61"/>
<path fill="none" stroke="#918F8F" stroke-width="1.4981" stroke-linecap="round" stroke-linejoin="round" stroke-miterlimit="10" d="
	M288.67,22.61l-4.15,0.46l1.69,7.6l4.11-0.27L288.67,22.61z"/>
<path fill="none" stroke="#FBC8A4" stroke-width="1.4981" stroke-linecap="round" stroke-linejoin="round" stroke-miterlimit="10" d="
	M296.41,22.61h8.2l-1.65,7.79h-12.9l-1.65-7.79h6.73V11.28h1.18L296.41,22.61z"/>
<path fill="#FBC8A4" stroke="#000000" d="M296.41,22.61h8.2l-1.65,7.79h-12.9l-1.65-7.79h6.73V11.28h1.18L296.41,22.61"/>
<path fill="#F8A671" d="M297.42,13.68c1.36-0.07,1.18-0.46,1.3-0.96c0.19,0.53,1.43,0.94,2.95,0.94c1.5,0,2.72-0.4,2.94-0.92
	c0.17,0.54,1.41,0.96,2.95,0.96c1.65,0,2.98-0.48,2.98-1.08c0-0.22,0.11-0.42-0.2-0.59c-0.68-2.71-7.12-5.13-14.59-5.13
	c-7.34,0-13.68,2.34-14.55,4.98c-0.37,0.18-0.31,0.4-0.31,0.64c0,0.59,1.34,1.08,2.98,1.08c1.58,0,2.86-0.45,2.96-1
	c0.1,0.56,1.38,1.01,2.96,1.01c1.65,0,2.98-0.48,2.98-1.08c0,0,0,0,0,0h0.01c-0.01,0.03-0.02,0.05-0.02,0.08
	c0,0.55-0.11,1,1.36,1.07H297.42"/>
<path fill="none" stroke="#231F20" stroke-width="1.4981" stroke-linecap="round" stroke-linejoin="round" stroke-miterlimit="10" d="
	M297.42,13.68c1.36-0.07,1.18-0.46,1.3-0.96c0.19,0.53,1.43,0.94,2.95,0.94c1.5,0,2.72-0.4,2.94-0.92c0.17,0.54,1.41,0.96,2.95,0.96
	c1.65,0,2.98-0.48,2.98-1.08c0-0.22,0.11-0.42-0.2-0.59c-0.68-2.71-7.12-5.13-14.59-5.13c-7.34,0-13.68,2.34-14.55,4.98
	c-0.37,0.18-0.31,0.4-0.31,0.64c0,0.59,1.34,1.08,2.98,1.08c1.58,0,2.86-0.45,2.96-1c0.1,0.56,1.38,1.01,2.96,1.01
	c1.65,0,2.98-0.48,2.98-1.08c0,0,0,0,0,0h0.01c-0.01,0.03-0.02,0.05-0.02,0.08c0,0.55-0.11,1,1.36,1.07H297.42z"/>
<path fill="#231F20" d="M298.09,14.01l-3.74,1.54l-0.02-1.52L298.09,14.01z"/>
<path fill="#FBC8A4" d="M295.73,7.66c0,0,8.11-0.04,8.83,4.33c0,0,2.11,1.81,5.48,0.67C310.04,12.67,308.45,7.52,295.73,7.66"/>
<path fill="#918F8F" d="M288.44,105.82l-4.15,0.46l1.69,7.6l4.11-0.27L288.44,105.82"/>
<path fill="none" stroke="#918F8F" stroke-width="1.4981" stroke-linecap="round" stroke-linejoin="round" stroke-miterlimit="10" d="
	M288.44,105.82l-4.15,0.46l1.69,7.6l4.11-0.27L288.44,105.82z"/>
<path fill="none" stroke="#FBC8A4" stroke-width="1.4981" stroke-linecap="round" stroke-linejoin="round" stroke-miterlimit="10" d="
	M296.19,105.82h8.2l-1.65,7.79h-12.9l-1.65-7.79h6.73V94.49h1.18L296.19,105.82z"/>
<path fill="#FBC8A4" d="M323.1,93.14h8.04l-1.62,7.63h-12.64l-1.61-7.63h6.59V82.04h1.16L323.1,93.14"/>
<path fill="#FBC8A4" stroke="#000000" d="M296.19,105.82h8.2l-1.65,7.79h-12.9l-1.65-7.79h6.73V94.49h1.18L296.19,105.82"/>
<path fill="#F8A671" d="M297.19,96.89c1.36-0.07,1.18-0.47,1.31-0.97c0.18,0.53,1.43,0.95,2.95,0.95c1.5,0,2.72-0.4,2.94-0.92
	c0.17,0.54,1.42,0.96,2.95,0.96c1.64,0,2.98-0.48,2.98-1.08c0-0.21,0.11-0.42-0.2-0.59c-0.69-2.71-7.12-5.13-14.59-5.13
	c-7.35,0-13.68,2.34-14.55,4.98c-0.37,0.18-0.31,0.4-0.31,0.64c0,0.6,1.34,1.08,2.98,1.08c1.58,0,2.86-0.45,2.96-1.01
	c0.1,0.57,1.38,1.02,2.96,1.02c1.65,0,2.98-0.48,2.98-1.08c0,0,0,0,0,0h0.01c0,0.03-0.02,0.05-0.02,0.08c0,0.55-0.11,1,1.36,1.07
	H297.19"/>
<path fill="none" stroke="#231F20" stroke-width="1.4981" stroke-linecap="round" stroke-linejoin="round" stroke-miterlimit="10" d="
	M297.19,96.89c1.36-0.07,1.18-0.47,1.31-0.97c0.18,0.53,1.43,0.95,2.95,0.95c1.5,0,2.72-0.4,2.94-0.92
	c0.17,0.54,1.42,0.96,2.95,0.96c1.64,0,2.98-0.48,2.98-1.08c0-0.21,0.11-0.42-0.2-0.59c-0.69-2.71-7.12-5.13-14.59-5.13
	c-7.35,0-13.68,2.34-14.55,4.98c-0.37,0.18-0.31,0.4-0.31,0.64c0,0.6,1.34,1.08,2.98,1.08c1.58,0,2.86-0.45,2.96-1.01
	c0.1,0.57,1.38,1.02,2.96,1.02c1.65,0,2.98-0.48,2.98-1.08c0,0,0,0,0,0h0.01c0,0.03-0.02,0.05-0.02,0.08c0,0.55-0.11,1,1.36,1.07
	H297.19z"/>
<path fill="#231F20" d="M297.87,97.22l-3.68,1.54l-0.03-1.52L297.87,97.22z"/>
<path fill="#FBC8A4" d="M295.51,90.88c0,0,8.11-0.04,8.83,4.33c0,0,2.11,1.75,5.48,0.61C309.82,95.82,308.22,90.73,295.51,90.88"/>
<path fill="#918F8F" d="M251.2,63.27l-4.15,0.45l1.69,7.6l4.11-0.27L251.2,63.27"/>
<path fill="none" stroke="#918F8F" stroke-width="1.4981" stroke-linecap="round" stroke-linejoin="round" stroke-miterlimit="10" d="
	M251.2,63.27l-4.15,0.45l1.69,7.6l4.11-0.27L251.2,63.27z"/>
<path fill="none" stroke="#FBC8A4" stroke-width="1.4981" stroke-linecap="round" stroke-linejoin="round" stroke-miterlimit="10" d="
	M258.94,63.27h8.2l-1.65,7.79h-12.9l-1.65-7.79h6.73V51.93h1.18L258.94,63.27z"/>
<path fill="#FBC8A4" stroke="#000000" d="M258.94,63.27h8.2l-1.65,7.79h-12.9l-1.65-7.79h6.73V51.93h1.18L258.94,63.27"/>
<path fill="#F8A671" d="M259.95,54.32c1.36-0.07,1.18-0.46,1.3-0.96c0.19,0.53,1.43,0.94,2.95,0.94c1.5,0,2.72-0.4,2.94-0.92
	c0.17,0.54,1.41,0.96,2.95,0.96c1.65,0,2.98-0.48,2.98-1.08c0-0.22,0.11-0.42-0.2-0.59c-0.68-2.71-7.11-5.13-14.59-5.13
	c-7.34,0-13.68,2.34-14.54,4.98c-0.38,0.18-0.31,0.4-0.31,0.64c0,0.6,1.34,1.08,2.98,1.08c1.57,0,2.86-0.44,2.96-1
	c0.1,0.57,1.38,1.01,2.96,1.01c1.65,0,2.98-0.48,2.98-1.08c0,0,0,0,0,0h0.01c-0.01,0.03-0.02,0.05-0.02,0.08
	c0,0.55-0.11,1,1.36,1.07H259.95"/>
<path fill="none" stroke="#231F20" stroke-width="1.4981" stroke-linecap="round" stroke-linejoin="round" stroke-miterlimit="10" d="
	M259.95,54.32c1.36-0.07,1.18-0.46,1.3-0.96c0.19,0.53,1.43,0.94,2.95,0.94c1.5,0,2.72-0.4,2.94-0.92c0.17,0.54,1.41,0.96,2.95,0.96
	c1.65,0,2.98-0.48,2.98-1.08c0-0.22,0.11-0.42-0.2-0.59c-0.68-2.71-7.11-5.13-14.59-5.13c-7.34,0-13.68,2.34-14.54,4.98
	c-0.38,0.18-0.31,0.4-0.31,0.64c0,0.6,1.34,1.08,2.98,1.08c1.57,0,2.86-0.44,2.96-1c0.1,0.57,1.38,1.01,2.96,1.01
	c1.65,0,2.98-0.48,2.98-1.08c0,0,0,0,0,0h0.01c-0.01,0.03-0.02,0.05-0.02,0.08c0,0.55-0.11,1,1.36,1.07H259.95z"/>
<path fill="#231F20" d="M260.62,54.66l-3.68,1.54l-0.02-1.52L260.62,54.66z"/>
<path fill="#FBC8A4" d="M258.26,48.32c0,0,8.11-0.05,8.83,4.33c0,0,2.11,1.75,5.48,0.62C272.57,53.26,270.97,48.17,258.26,48.32"/>
<path fill="#918F8F" d="M320.46,64.98l-4.07,0.45l1.66,7.45l4.02-0.26L320.46,64.98"/>
<path fill="none" stroke="#918F8F" stroke-width="1.4981" stroke-linecap="round" stroke-linejoin="round" stroke-miterlimit="10" d="
	M320.46,64.98l-4.07,0.45l1.66,7.45l4.02-0.26L320.46,64.98z"/>
<path fill="none" stroke="#FBC8A4" stroke-width="1.4981" stroke-linecap="round" stroke-linejoin="round" stroke-miterlimit="10" d="
	M328.05,64.98h8.04l-1.62,7.63h-12.64l-1.61-7.63h6.59V53.87h1.16L328.05,64.98z"/>
<path fill="#F8A671" d="M329.04,56.22c1.33-0.07,1.15-0.46,1.28-0.95c0.18,0.52,1.4,0.92,2.89,0.92c1.47,0,2.67-0.39,2.88-0.9
	c0.16,0.53,1.39,0.94,2.89,0.94c1.61,0,2.92-0.47,2.92-1.06c0-0.21,0.11-0.41-0.19-0.57c-0.67-2.66-6.97-5.02-14.3-5.02
	c-7.2,0-13.41,2.29-14.25,4.88c-0.37,0.18-0.3,0.39-0.3,0.63c0,0.58,1.31,1.05,2.92,1.05c1.55,0,2.8-0.43,2.91-0.98
	c0.09,0.55,1.35,0.99,2.91,0.99c1.61,0,2.92-0.47,2.92-1.05c0,0,0,0,0,0h0.01c-0.01,0.02-0.02,0.05-0.02,0.08
	c0,0.54-0.11,0.98,1.33,1.04H329.04"/>
<path fill="#231F20" d="M329.82,56.55l-3.79,1.5l-0.02-1.49L329.82,56.55z"/>
<path fill="#FBC8A4" d="M327.39,50.33c0,0,7.95-0.05,8.65,4.24c0,0,2.07,1.72,5.37,0.61C341.41,55.18,339.84,50.19,327.39,50.33"/>
<path fill="#918F8F" d="M259.58,33.77l-4.15,0.46l1.69,7.6l4.11-0.27L259.58,33.77"/>
<path fill="none" stroke="#918F8F" stroke-width="1.4981" stroke-linecap="round" stroke-linejoin="round" stroke-miterlimit="10" d="
	M259.58,33.77l-4.15,0.46l1.69,7.6l4.11-0.27L259.58,33.77z"/>
<path fill="none" stroke="#FBC8A4" stroke-width="1.4981" stroke-linecap="round" stroke-linejoin="round" stroke-miterlimit="10" d="
	M267.32,33.77h8.2l-1.65,7.79h-12.9l-1.65-7.79h6.73V22.44h1.18L267.32,33.77z"/>
<path fill="#FBC8A4" stroke="#000000" d="M267.32,33.77h8.2l-1.65,7.79h-12.9l-1.65-7.79h6.73V22.44h1.18L267.32,33.77"/>
<path fill="#F8A671" d="M268.33,24.84c1.36-0.07,1.18-0.46,1.3-0.96c0.19,0.53,1.43,0.94,2.95,0.94c1.5,0,2.72-0.4,2.94-0.92
	c0.17,0.54,1.41,0.96,2.95,0.96c1.65,0,2.98-0.48,2.98-1.08c0-0.22,0.11-0.42-0.2-0.59c-0.68-2.71-7.11-5.13-14.59-5.13
	c-7.34,0-13.68,2.34-14.55,4.98c-0.37,0.18-0.31,0.4-0.31,0.64c0,0.59,1.34,1.08,2.98,1.08c1.58,0,2.86-0.45,2.96-1
	c0.1,0.56,1.38,1.01,2.96,1.01c1.65,0,2.98-0.48,2.98-1.08c0,0,0,0,0-0.01h0.01c-0.01,0.03-0.02,0.05-0.02,0.08
	c0,0.55-0.11,1,1.36,1.07H268.33"/>
<path fill="none" stroke="#231F20" stroke-width="1.4981" stroke-linecap="round" stroke-linejoin="round" stroke-miterlimit="10" d="
	M268.33,24.84c1.36-0.07,1.18-0.46,1.3-0.96c0.19,0.53,1.43,0.94,2.95,0.94c1.5,0,2.72-0.4,2.94-0.92c0.17,0.54,1.41,0.96,2.95,0.96
	c1.65,0,2.98-0.48,2.98-1.08c0-0.22,0.11-0.42-0.2-0.59c-0.68-2.71-7.11-5.13-14.59-5.13c-7.34,0-13.68,2.34-14.55,4.98
	c-0.37,0.18-0.31,0.4-0.31,0.64c0,0.59,1.34,1.08,2.98,1.08c1.58,0,2.86-0.45,2.96-1c0.1,0.56,1.38,1.01,2.96,1.01
	c1.65,0,2.98-0.48,2.98-1.08c0,0,0,0,0-0.01h0.01c-0.01,0.03-0.02,0.05-0.02,0.08c0,0.55-0.11,1,1.36,1.07H268.33z"/>
<path fill="#231F20" d="M269,25.17l-3.68,1.54l-0.02-1.52L269,25.17z"/>
<path fill="#FBC8A4" d="M266.64,18.82c0,0,8.11-0.04,8.83,4.33c0,0,2.11,1.75,5.48,0.62C280.95,23.77,279.36,18.68,266.64,18.82"/>
<path fill="#918F8F" d="M315.49,37.05l-4.07,0.45l1.66,7.45l4.02-0.26L315.49,37.05"/>
<path fill="none" stroke="#918F8F" stroke-width="1.4981" stroke-linecap="round" stroke-linejoin="round" stroke-miterlimit="10" d="
	M315.49,37.05l-4.07,0.45l1.66,7.45l4.02-0.26L315.49,37.05z"/>
<path fill="none" stroke="#FBC8A4" stroke-width="2" stroke-linecap="round" stroke-linejoin="round" stroke-miterlimit="10" d="
	M323.08,37.05h8.04l-1.62,7.63h-12.64l-1.61-7.63h6.6V25.94H323L323.08,37.05z"/>
<path fill="#FBC8A4" stroke="#000000" d="M323.08,37.05h8.04l-1.62,7.63h-12.64l-1.61-7.63h6.6V25.94H323L323.08,37.05"/>
<path fill="#231F20" d="M324.28,28.61l-3.22,1.51l-0.02-1.49L324.28,28.61z"/>
<path fill="#F8A671" d="M324.06,28.29c1.34-0.07,1.15-0.46,1.28-0.95c0.18,0.52,1.4,0.93,2.89,0.93c1.47,0,2.67-0.39,2.88-0.9
	c0.16,0.53,1.39,0.94,2.89,0.94c1.61,0,2.93-0.48,2.93-1.06c0-0.21,0.11-0.41-0.19-0.58c-0.67-2.66-6.97-5.02-14.3-5.02
	c-7.2,0-13.41,2.29-14.25,4.88c-0.36,0.18-0.3,0.39-0.3,0.63c0,0.59,1.31,1.06,2.93,1.06c1.55,0,2.8-0.43,2.9-0.98
	c0.09,0.55,1.35,0.99,2.91,0.99c1.61,0,2.92-0.47,2.92-1.06c0,0,0,0,0,0h0.01c-0.01,0.03-0.02,0.05-0.02,0.08
	c0,0.54-0.11,0.98,1.33,1.05H324.06"/>
<path fill="#FBC8A4" d="M322.41,22.4c0,0,7.95-0.05,8.65,4.24c0,0,2.07,1.72,5.37,0.61C336.43,27.25,334.87,22.26,322.41,22.4"/>
<path fill="#918F8F" d="M259.55,92.41l-4.15,0.46l1.69,7.6l4.11-0.27L259.55,92.41"/>
<path fill="none" stroke="#918F8F" stroke-width="1.4981" stroke-linecap="round" stroke-linejoin="round" stroke-miterlimit="10" d="
	M259.55,92.41l-4.15,0.46l1.69,7.6l4.11-0.27L259.55,92.41z"/>
<path fill="none" stroke="#FBC8A4" stroke-width="1.4981" stroke-linecap="round" stroke-linejoin="round" stroke-miterlimit="10" d="
	M267.3,92.41h8.2l-1.65,7.79h-12.9l-1.65-7.79h6.73V81.08h1.18L267.3,92.41z"/>
<path fill="#FBC8A4" stroke="#000000" d="M267.3,92.41h8.2l-1.65,7.79h-12.9l-1.65-7.79h6.73V81.08h1.18L267.3,92.41"/>
<path fill="#F8A671" d="M268.3,83.47c1.36-0.07,1.18-0.46,1.3-0.96c0.19,0.53,1.43,0.94,2.95,0.94c1.5,0,2.72-0.4,2.94-0.92
	c0.17,0.54,1.42,0.96,2.95,0.96c1.65,0,2.98-0.48,2.98-1.08c0-0.22,0.11-0.42-0.2-0.59c-0.69-2.71-7.12-5.13-14.59-5.13
	c-7.34,0-13.68,2.34-14.55,4.98c-0.38,0.18-0.31,0.4-0.31,0.64c0,0.59,1.34,1.08,2.98,1.08c1.58,0,2.86-0.45,2.96-1
	c0.1,0.56,1.38,1.01,2.96,1.01c1.65,0,2.98-0.48,2.98-1.08c0,0,0,0,0,0h0.01c-0.01,0.02-0.02,0.05-0.02,0.08
	c0,0.55-0.11,1,1.36,1.07H268.3"/>
<path fill="none" stroke="#231F20" stroke-width="1.4981" stroke-linecap="round" stroke-linejoin="round" stroke-miterlimit="10" d="
	M268.3,83.47c1.36-0.07,1.18-0.46,1.3-0.96c0.19,0.53,1.43,0.94,2.95,0.94c1.5,0,2.72-0.4,2.94-0.92c0.17,0.54,1.42,0.96,2.95,0.96
	c1.65,0,2.98-0.48,2.98-1.08c0-0.22,0.11-0.42-0.2-0.59c-0.69-2.71-7.12-5.13-14.59-5.13c-7.34,0-13.68,2.34-14.55,4.98
	c-0.38,0.18-0.31,0.4-0.31,0.64c0,0.59,1.34,1.08,2.98,1.08c1.58,0,2.86-0.45,2.96-1c0.1,0.56,1.38,1.01,2.96,1.01
	c1.65,0,2.98-0.48,2.98-1.08c0,0,0,0,0,0h0.01c-0.01,0.02-0.02,0.05-0.02,0.08c0,0.55-0.11,1,1.36,1.07H268.3z"/>
<path fill="#231F20" d="M268.98,83.8l-3.68,1.54l-0.03-1.52L268.98,83.8z"/>
<path fill="#FBC8A4" d="M266.62,77.46c0,0,8.11-0.04,8.83,4.33c0,0,2.11,1.75,5.48,0.62C280.93,82.41,279.33,77.32,266.62,77.46"/>
<path fill="#918F8F" d="M315.51,93.14l-4.07,0.45l1.66,7.45l4.02-0.26L315.51,93.14"/>
<path fill="none" stroke="#918F8F" stroke-width="1.4981" stroke-linecap="round" stroke-linejoin="round" stroke-miterlimit="10" d="
	M315.51,93.14l-4.07,0.45l1.66,7.45l4.02-0.26L315.51,93.14z"/>
<path fill="none" stroke="#000000" d="M323.1,93.14h8.04l-1.62,7.63h-12.64l-1.61-7.63h6.59V82.04h1.16L323.1,93.14z"/>
<path fill="#F8A671" d="M324.08,84.38c1.34-0.07,1.15-0.45,1.28-0.95c0.18,0.52,1.4,0.93,2.89,0.93c1.46,0,2.67-0.39,2.88-0.9
	c0.16,0.53,1.39,0.94,2.89,0.94c1.61,0,2.92-0.48,2.92-1.06c0-0.21,0.11-0.41-0.19-0.58c-0.67-2.66-6.97-5.02-14.3-5.02
	c-7.2,0-13.41,2.29-14.25,4.88c-0.36,0.18-0.3,0.39-0.3,0.63c0,0.59,1.31,1.06,2.93,1.06c1.54,0,2.8-0.44,2.9-0.98
	c0.09,0.55,1.35,0.99,2.91,0.99c1.61,0,2.92-0.47,2.92-1.06v0h0.01c0,0.03-0.02,0.05-0.02,0.08c0,0.54-0.11,0.98,1.33,1.04H324.08"
	/>
<path fill="none" stroke="#231F20" stroke-width="1.4981" stroke-linecap="round" stroke-linejoin="round" stroke-miterlimit="10" d="
	M324.08,84.38c1.34-0.07,1.15-0.45,1.28-0.95c0.18,0.52,1.4,0.93,2.89,0.93c1.46,0,2.67-0.39,2.88-0.9
	c0.16,0.53,1.39,0.94,2.89,0.94c1.61,0,2.92-0.48,2.92-1.06c0-0.21,0.11-0.41-0.19-0.58c-0.67-2.66-6.97-5.02-14.3-5.02
	c-7.2,0-13.41,2.29-14.25,4.88c-0.36,0.18-0.3,0.39-0.3,0.63c0,0.59,1.31,1.06,2.93,1.06c1.54,0,2.8-0.44,2.9-0.98
	c0.09,0.55,1.35,0.99,2.91,0.99c1.61,0,2.92-0.47,2.92-1.06v0h0.01c0,0.03-0.02,0.05-0.02,0.08c0,0.54-0.11,0.98,1.33,1.04H324.08z"
	/>
<path fill="#231F20" d="M324.81,84.71l-3.73,1.51l-0.02-1.49L324.81,84.71z"/>
<path fill="#FBC8A4" d="M322.43,78.49c0,0,7.95-0.05,8.65,4.24c0,0,2.07,1.72,5.37,0.61C336.45,83.34,334.89,78.35,322.43,78.49"/>
<path fill="#7B7979" d="M302.6,66.39l9.07,55.31l3.86,0.55l-9.45-55.78L302.6,66.39"/>
<path fill="none" stroke="#231F20" stroke-width="1.4981" stroke-linecap="round" stroke-linejoin="round" stroke-miterlimit="10" d="
	M302.6,66.39l9.07,55.31l3.86,0.55l-9.45-55.78L302.6,66.39z"/>
<path fill="#BDBCBC" d="M282.41,123.89l-3.72-0.56l10.29-61.6c0,0,1.18-9.26,12.71-8.58l-9.4,9.46L282.41,123.89"/>
<path fill="none" stroke="#231F20" stroke-width="1.4981" stroke-linecap="round" stroke-linejoin="round" stroke-miterlimit="10" d="
	M282.41,123.89l-3.72-0.56l10.29-61.6c0,0,1.18-9.26,12.71-8.58l-9.4,9.46L282.41,123.89z"/>
<path fill="#FFFFFF" d="M320.86,122.03l-10.53-61.67c-0.84-4.11-4.28-7.2-8.64-7.2c-4.38,0-8.22,3.12-9.04,7.25l-10.23,63.49
	l5.21-0.22l9.14-57.52l9.32,0.32l9.45,55.78L320.86,122.03"/>
<path fill="none" stroke="#231F20" stroke-width="1.4981" stroke-linecap="round" stroke-linejoin="round" stroke-miterlimit="10" d="
	M320.86,122.03l-10.53-61.67c-0.84-4.11-4.28-7.2-8.64-7.2c-4.38,0-8.22,3.12-9.04,7.25l-10.23,63.49l5.21-0.22l9.14-57.52
	l9.32,0.32l9.45,55.78L320.86,122.03z"/>
<path fill="#FFFFFF" d="M304.31,60.01c0,1.53-0.84,2.77-2.38,2.77c-1.53,0-2.38-1.24-2.38-2.77s0.85-2.77,2.38-2.77
	C303.47,57.24,304.31,58.48,304.31,60.01"/>
<path fill="none" stroke="#231F20" stroke-width="1.4981" stroke-linecap="round" stroke-linejoin="round" stroke-miterlimit="10" d="
	M304.31,60.01c0,1.53-0.84,2.77-2.38,2.77c-1.53,0-2.38-1.24-2.38-2.77s0.85-2.77,2.38-2.77C303.47,57.24,304.31,58.48,304.31,60.01
	z"/>
<path fill="#040606" d="M306.05,66.63l-2.98,2.23l-0.4-2.21L306.05,66.63z"/>
<path fill="#BDBCBC" d="M213.87,79.93v-9.7c0,0-0.05-1.72,2.96-1.75c3-0.03,2.89,1.96,2.89,1.96v9.28L213.87,79.93"/>
<path fill="none" stroke="#040606" stroke-width="1.4981" stroke-linecap="round" stroke-linejoin="round" stroke-miterlimit="10" d="
	M213.87,79.93v-9.7c0,0-0.05-1.72,2.96-1.75c3-0.03,2.89,1.96,2.89,1.96v9.28L213.87,79.93z"/>
<path fill="#F25C19" d="M231.43,68.54l12.31-0.4l0.06-1.47l-12.31,0.4L231.43,68.54"/>
<path fill="#F25C19" d="M231.27,72.65l10.7,5.94l0.79-1.3l-10.7-5.94L231.27,72.65"/>
<path fill="#F25C19" d="M243.32,57.69l-10.98,6.5l-0.68-1.25l10.98-6.5L243.32,57.69"/>
<path fill="#F9A672" stroke="#040606" stroke-width="1.4981" stroke-linecap="round" stroke-linejoin="round" stroke-miterlimit="10" d="
	M223.05,62.99l-6.6,4.14c0,0-0.54,0.16-0.59,1.35c-0.05,1.19,0.48,1.23,0.48,1.23l6.29,3.58"/>
<path fill="#FFFFFF" d="M221.99,67.55c-0.16,3.95,1.06,7.36,2.7,7.6c1.6,0.25,2.99-2.65,3.14-6.45c0.15-3.81-0.99-7.2-2.58-7.59
	C223.62,60.73,222.15,63.6,221.99,67.55"/>
<path fill="none" stroke="#040606" stroke-width="1.4981" stroke-linecap="round" stroke-linejoin="round" stroke-miterlimit="10" d="
	M221.99,67.55c-0.16,3.95,1.06,7.36,2.7,7.6c1.6,0.25,2.99-2.65,3.14-6.45c0.15-3.81-0.99-7.2-2.58-7.59
	C223.62,60.73,222.15,63.6,221.99,67.55z"/>
<path fill="none" stroke="#040606" stroke-width="1.4981" stroke-linecap="round" stroke-linejoin="round" stroke-miterlimit="10" d="
	M222.27,66.14l2.06-0.02c0,0,1.56-0.04,1.48,1.89c-0.07,1.77-1.68,1.98-1.68,1.98l-1.7,0.21"/>
<path fill="#231F20" d="M219.73,74.7l-5.89-3.23l0.05-2.3l2.46,0.54l3.35,2.01L219.73,74.7"/>
<g>
	<circle fill="none" cx="231.96" cy="231.54" r="76.25"/>
	<path d="M174.7,286.73l-0.92-1.16c0.82-0.62,1.67-0.9,2.54-0.85c0.87,0.05,1.66,0.41,2.35,1.08c0.87,0.84,1.29,1.8,1.26,2.88
		c-0.02,1.08-0.55,2.14-1.57,3.2c-0.66,0.68-1.36,1.17-2.08,1.46c-0.72,0.29-1.44,0.34-2.15,0.15c-0.71-0.19-1.34-0.55-1.88-1.08
		c-0.69-0.67-1.08-1.39-1.18-2.16c-0.1-0.77,0.1-1.54,0.6-2.3l1.2,0.85c-0.31,0.52-0.45,1.01-0.4,1.47c0.04,0.46,0.25,0.86,0.6,1.21
		c0.54,0.52,1.17,0.76,1.88,0.7c0.71-0.06,1.48-0.51,2.29-1.35c0.82-0.85,1.26-1.63,1.31-2.33c0.05-0.7-0.19-1.31-0.71-1.82
		c-0.42-0.41-0.9-0.62-1.43-0.64C175.86,286.04,175.29,286.27,174.7,286.73z"/>
	<path d="M171.86,285.51c-1.27,1.03-2.49,1.44-3.68,1.23c-0.98-0.18-1.82-0.69-2.51-1.54c-0.76-0.94-1.08-1.96-0.95-3.06
		s0.74-2.09,1.83-2.97c0.88-0.71,1.68-1.14,2.4-1.29s1.42-0.08,2.11,0.2c0.69,0.28,1.27,0.72,1.76,1.31
		c0.78,0.96,1.1,1.98,0.96,3.07S173.02,284.57,171.86,285.51z M170.9,284.32c0.88-0.71,1.38-1.43,1.51-2.17s-0.05-1.39-0.52-1.98
		c-0.47-0.58-1.07-0.88-1.82-0.91c-0.75-0.03-1.57,0.32-2.47,1.05c-0.85,0.69-1.33,1.4-1.46,2.14c-0.13,0.74,0.04,1.39,0.51,1.97
		c0.47,0.58,1.08,0.89,1.82,0.92C169.21,285.37,170.02,285.03,170.9,284.32z"/>
	<path d="M169.16,274.97l-7.48,4.67l-0.71-1.14l1.06-0.66c-1.16-0.04-2.07-0.57-2.72-1.61c-0.28-0.45-0.46-0.92-0.53-1.39
		c-0.07-0.48-0.04-0.89,0.11-1.25c0.15-0.35,0.38-0.68,0.69-0.98c0.21-0.19,0.6-0.47,1.19-0.84l4.6-2.87l0.79,1.27l-4.55,2.84
		c-0.52,0.32-0.87,0.61-1.07,0.87c-0.19,0.26-0.29,0.56-0.28,0.91s0.11,0.69,0.32,1.03c0.34,0.54,0.8,0.9,1.39,1.08
		s1.36-0.03,2.32-0.63l4.08-2.55L169.16,274.97z"/>
	<path d="M161.8,264.79l1.08-0.79c0.27,0.33,0.48,0.65,0.63,0.95c0.25,0.48,0.36,0.9,0.34,1.24c-0.02,0.34-0.12,0.63-0.32,0.87
		c-0.19,0.24-0.69,0.55-1.49,0.96l-4.53,2.29l0.5,0.98l-1.04,0.53l-0.49-0.98l-1.95,0.99l-1.47-0.92l2.75-1.39l-0.68-1.34l1.04-0.53
		l0.68,1.34l4.6-2.33c0.38-0.19,0.61-0.34,0.7-0.44c0.08-0.1,0.13-0.22,0.14-0.36c0.01-0.14-0.04-0.31-0.13-0.5
		C162.07,265.2,161.96,265.01,161.8,264.79z"/>
	<path d="M159.19,257.88c0.64,0.34,1.14,0.72,1.51,1.12c0.37,0.41,0.66,0.88,0.87,1.43c0.35,0.9,0.41,1.68,0.16,2.34
		c-0.25,0.66-0.72,1.12-1.4,1.39c-0.4,0.16-0.8,0.21-1.21,0.16c-0.4-0.05-0.76-0.19-1.08-0.4c-0.32-0.22-0.6-0.49-0.85-0.82
		c-0.18-0.25-0.41-0.63-0.69-1.15c-0.58-1.07-1.06-1.83-1.45-2.29c-0.19,0.07-0.31,0.11-0.37,0.13c-0.57,0.22-0.91,0.51-1.04,0.87
		c-0.17,0.48-0.12,1.07,0.15,1.77c0.26,0.65,0.56,1.09,0.91,1.31c0.35,0.22,0.85,0.29,1.49,0.21l0.35,1.43
		c-0.63,0.11-1.18,0.09-1.65-0.06c-0.47-0.14-0.91-0.44-1.31-0.9c-0.4-0.46-0.75-1.04-1.02-1.75c-0.27-0.7-0.42-1.3-0.42-1.8
		c-0.01-0.5,0.07-0.91,0.24-1.21c0.17-0.3,0.43-0.57,0.78-0.81c0.22-0.14,0.64-0.33,1.26-0.57l1.85-0.73
		c1.29-0.51,2.1-0.86,2.42-1.05c0.32-0.19,0.6-0.44,0.85-0.74l0.57,1.45C159.86,257.46,159.56,257.68,159.19,257.88z M156.13,259.21
		c0.4,0.42,0.88,1.11,1.42,2.07c0.31,0.54,0.56,0.91,0.75,1.1c0.2,0.2,0.42,0.32,0.67,0.37c0.25,0.05,0.49,0.03,0.74-0.07
		c0.37-0.15,0.63-0.41,0.76-0.79s0.1-0.84-0.11-1.38c-0.21-0.54-0.52-0.97-0.91-1.29s-0.84-0.51-1.32-0.54
		c-0.37-0.03-0.87,0.08-1.48,0.32L156.13,259.21z"/>
	<path d="M154.47,249.44l-0.19-1.47c1.02-0.1,1.89,0.09,2.61,0.58c0.72,0.49,1.21,1.21,1.45,2.14c0.31,1.17,0.18,2.21-0.4,3.12
		c-0.57,0.91-1.57,1.55-3,1.93c-0.92,0.24-1.77,0.3-2.54,0.18c-0.77-0.12-1.41-0.45-1.92-0.98s-0.86-1.16-1.06-1.9
		c-0.25-0.92-0.21-1.74,0.1-2.46c0.31-0.71,0.88-1.27,1.69-1.66l0.59,1.35c-0.54,0.29-0.9,0.64-1.1,1.05
		c-0.2,0.42-0.23,0.87-0.11,1.35c0.19,0.73,0.61,1.25,1.25,1.57c0.64,0.32,1.53,0.33,2.66,0.03c1.14-0.3,1.92-0.74,2.32-1.32
		c0.4-0.58,0.51-1.22,0.32-1.92c-0.15-0.57-0.45-0.99-0.9-1.28C155.82,249.45,155.22,249.35,154.47,249.44z"/>
	<path d="M155.18,242.89l1.26-0.44c0.16,0.4,0.27,0.76,0.32,1.09c0.09,0.53,0.08,0.96-0.04,1.29c-0.12,0.32-0.3,0.57-0.56,0.74
		c-0.25,0.17-0.82,0.33-1.71,0.48l-5,0.87l0.19,1.08l-1.15,0.2l-0.19-1.08l-2.15,0.37l-1.14-1.31l3.03-0.53l-0.26-1.48l1.14-0.2
		l0.26,1.48l5.08-0.88c0.42-0.07,0.69-0.15,0.8-0.22c0.11-0.07,0.19-0.17,0.24-0.3c0.05-0.13,0.06-0.3,0.02-0.52
		C155.32,243.36,155.26,243.15,155.18,242.89z"/>
	<path d="M153.19,237.16l-0.27-1.47c0.59-0.1,1.04-0.34,1.34-0.73c0.31-0.39,0.45-0.92,0.43-1.6c-0.02-0.69-0.17-1.19-0.46-1.52
		c-0.29-0.32-0.62-0.48-1-0.47c-0.34,0.01-0.6,0.16-0.79,0.46c-0.13,0.21-0.28,0.72-0.47,1.54c-0.25,1.1-0.47,1.87-0.66,2.3
		c-0.19,0.43-0.46,0.76-0.81,0.98c-0.35,0.23-0.74,0.35-1.17,0.36c-0.39,0.01-0.76-0.07-1.1-0.24c-0.34-0.17-0.62-0.41-0.85-0.71
		c-0.18-0.23-0.33-0.54-0.46-0.94c-0.13-0.4-0.2-0.83-0.21-1.29c-0.02-0.69,0.07-1.3,0.25-1.83c0.19-0.53,0.45-0.92,0.78-1.18
		c0.33-0.26,0.78-0.44,1.35-0.55l0.24,1.45c-0.45,0.08-0.8,0.28-1.05,0.6c-0.25,0.32-0.36,0.78-0.35,1.36
		c0.02,0.69,0.14,1.17,0.38,1.46s0.5,0.43,0.81,0.42c0.19,0,0.37-0.07,0.52-0.2c0.16-0.13,0.29-0.32,0.38-0.58
		c0.05-0.15,0.17-0.59,0.35-1.33c0.26-1.06,0.47-1.81,0.64-2.23c0.17-0.42,0.42-0.76,0.76-1c0.34-0.25,0.76-0.38,1.27-0.39
		c0.5-0.01,0.97,0.12,1.42,0.4c0.45,0.28,0.8,0.69,1.05,1.23c0.25,0.54,0.39,1.16,0.41,1.85c0.03,1.15-0.19,2.02-0.65,2.63
		C154.82,236.57,154.12,236.97,153.19,237.16z"/>
	<path d="M155.78,226.59l-9.06,1.73l0.17-1.54l5.21-0.84l1.94-0.31c-0.09-0.03-0.68-0.25-1.76-0.65l-4.98-1.95l0.17-1.53l5.23-0.76
		l1.72-0.25l-1.64-0.69l-4.9-2.05l0.16-1.44l8.47,3.69l-0.17,1.54l-5.4,0.82l-1.53,0.18l6.55,2.51L155.78,226.59z"/>
	<path d="M147.06,213.86l-1.68-0.36l0.32-1.46l1.68,0.36L147.06,213.86z M157.27,216.08l-8.61-1.87l0.32-1.46l8.61,1.87
		L157.27,216.08z"/>
	<path d="M157.66,209.04l1.33,0.14c-0.03,0.43-0.08,0.8-0.17,1.12c-0.14,0.52-0.34,0.9-0.58,1.15c-0.24,0.24-0.52,0.39-0.82,0.43
		c-0.3,0.04-0.88-0.05-1.75-0.29l-4.89-1.34l-0.29,1.06l-1.12-0.31l0.29-1.06l-2.1-0.58l-0.47-1.67l2.97,0.82l0.4-1.45l1.12,0.31
		l-0.4,1.45l4.97,1.37c0.41,0.11,0.68,0.16,0.81,0.14c0.13-0.02,0.25-0.08,0.35-0.17c0.1-0.1,0.18-0.25,0.24-0.46
		C157.59,209.53,157.63,209.32,157.66,209.04z"/>
	<path d="M158.21,201.75l0.69-1.31c0.9,0.5,1.5,1.16,1.81,1.98c0.31,0.82,0.3,1.68-0.03,2.58c-0.42,1.13-1.12,1.91-2.11,2.32
		c-0.99,0.42-2.18,0.37-3.56-0.14c-0.89-0.33-1.62-0.76-2.18-1.3c-0.56-0.54-0.9-1.18-1.01-1.9c-0.11-0.73-0.04-1.45,0.22-2.16
		c0.33-0.9,0.83-1.55,1.49-1.96c0.66-0.4,1.44-0.53,2.34-0.39l-0.29,1.44c-0.6-0.07-1.11,0-1.51,0.23c-0.4,0.23-0.69,0.57-0.86,1.04
		c-0.26,0.71-0.22,1.37,0.13,2s1.06,1.14,2.16,1.54c1.11,0.41,2,0.49,2.66,0.25c0.66-0.24,1.12-0.7,1.37-1.39
		c0.2-0.55,0.2-1.07,0-1.56C159.31,202.53,158.88,202.11,158.21,201.75z"/>
	<path d="M162.29,200.31l-10.85-5.51l0.68-1.33l3.89,1.98c-0.4-0.99-0.37-1.96,0.11-2.9c0.29-0.58,0.67-1.03,1.11-1.34
		c0.45-0.31,0.92-0.46,1.42-0.44s1.13,0.23,1.9,0.62l4.98,2.53l-0.68,1.33l-4.98-2.53c-0.67-0.34-1.22-0.44-1.67-0.3
		c-0.45,0.13-0.81,0.47-1.08,0.99c-0.2,0.39-0.29,0.82-0.26,1.27s0.18,0.84,0.46,1.17c0.27,0.33,0.72,0.65,1.34,0.96l4.3,2.18
		L162.29,200.31z"/>
	<path d="M157.76,186.67l-1.46-0.9l0.79-1.27l1.46,0.9L157.76,186.67z M166.66,192.16l-7.5-4.63l0.79-1.27l7.5,4.63L166.66,192.16z"
		/>
	<path d="M168.5,189.11l-7.09-5.25l0.8-1.08l1.01,0.75c-0.39-1.1-0.23-2.14,0.5-3.12c0.32-0.43,0.68-0.76,1.1-1.01
		c0.42-0.24,0.82-0.36,1.2-0.36c0.38,0.01,0.77,0.1,1.16,0.28c0.26,0.12,0.66,0.38,1.22,0.8l4.36,3.23l-0.89,1.2l-4.31-3.19
		c-0.49-0.36-0.89-0.59-1.2-0.67c-0.31-0.09-0.63-0.06-0.95,0.07c-0.32,0.13-0.6,0.36-0.84,0.68c-0.38,0.51-0.54,1.07-0.49,1.69
		c0.05,0.61,0.53,1.25,1.44,1.92l3.87,2.86L168.5,189.11z"/>
	<path d="M174.49,182.4l1.16-0.91c0.37,0.26,0.72,0.37,1.06,0.31c0.46-0.08,0.9-0.35,1.35-0.82c0.48-0.5,0.74-0.98,0.8-1.45
		c0.06-0.46-0.05-0.92-0.32-1.35c-0.17-0.27-0.61-0.73-1.32-1.4c0.11,1-0.17,1.86-0.84,2.57c-0.83,0.88-1.8,1.26-2.89,1.14
		c-1.09-0.12-2.08-0.6-2.97-1.44c-0.61-0.58-1.07-1.22-1.38-1.93c-0.31-0.71-0.4-1.41-0.29-2.09c0.12-0.69,0.44-1.31,0.98-1.88
		c0.72-0.76,1.61-1.09,2.69-1l-0.77-0.73l0.95-1l5.53,5.24c1,0.94,1.61,1.71,1.83,2.31s0.25,1.23,0.07,1.9
		c-0.18,0.67-0.57,1.32-1.18,1.97c-0.72,0.76-1.48,1.22-2.27,1.36C175.9,183.33,175.17,183.07,174.49,182.4z M171.5,177.85
		c0.84,0.8,1.61,1.21,2.31,1.24c0.7,0.03,1.29-0.2,1.77-0.71c0.47-0.5,0.68-1.1,0.61-1.8s-0.51-1.44-1.33-2.22
		c-0.78-0.74-1.54-1.13-2.27-1.16c-0.73-0.03-1.32,0.2-1.79,0.69c-0.46,0.48-0.65,1.08-0.58,1.79
		C170.31,176.4,170.73,177.12,171.5,177.85z"/>
	<path d="M285.51,175.71c-0.73-0.02-1.34-0.14-1.85-0.33c-0.51-0.2-0.98-0.5-1.42-0.89c-0.72-0.65-1.11-1.32-1.18-2.02
		c-0.07-0.7,0.15-1.32,0.64-1.87c0.29-0.32,0.63-0.55,1.01-0.68c0.39-0.13,0.77-0.17,1.15-0.12c0.38,0.05,0.75,0.17,1.13,0.36
		c0.27,0.14,0.65,0.38,1.13,0.73c0.99,0.7,1.76,1.17,2.32,1.41c0.14-0.15,0.23-0.24,0.27-0.28c0.41-0.45,0.59-0.86,0.55-1.24
		c-0.06-0.51-0.36-1.01-0.92-1.52c-0.52-0.47-0.99-0.73-1.4-0.77c-0.41-0.04-0.89,0.11-1.43,0.47l-0.95-1.13
		c0.52-0.37,1.02-0.6,1.5-0.68c0.48-0.08,1.01,0,1.57,0.23c0.57,0.23,1.13,0.6,1.69,1.11c0.56,0.51,0.95,0.98,1.18,1.43
		c0.23,0.45,0.34,0.84,0.32,1.19c-0.02,0.35-0.13,0.7-0.34,1.06c-0.13,0.22-0.42,0.58-0.87,1.07l-1.34,1.48
		c-0.93,1.03-1.5,1.7-1.7,2.02c-0.2,0.32-0.34,0.66-0.43,1.04l-1.16-1.05C285.1,176.38,285.27,176.04,285.51,175.71z M287.66,173.15
		c-0.55-0.2-1.28-0.61-2.19-1.22c-0.51-0.35-0.9-0.56-1.17-0.65c-0.26-0.09-0.52-0.1-0.76-0.04c-0.25,0.06-0.46,0.19-0.63,0.39
		c-0.27,0.29-0.38,0.64-0.33,1.04c0.05,0.4,0.28,0.79,0.71,1.18c0.43,0.39,0.89,0.64,1.39,0.75c0.5,0.11,0.98,0.08,1.43-0.1
		c0.35-0.14,0.74-0.46,1.18-0.94L287.66,173.15z"/>
	<path d="M291.05,183.3l0.98-0.85c-1.2,0.13-2.19-0.24-2.96-1.13c-0.34-0.39-0.58-0.83-0.73-1.3c-0.14-0.47-0.17-0.89-0.09-1.25
		c0.08-0.36,0.26-0.72,0.54-1.07c0.18-0.24,0.51-0.57,1-0.98l4.13-3.58l0.98,1.13l-3.7,3.2c-0.59,0.51-0.97,0.88-1.13,1.1
		c-0.24,0.33-0.34,0.68-0.31,1.06c0.03,0.38,0.19,0.73,0.48,1.07c0.29,0.34,0.66,0.58,1.09,0.73c0.43,0.15,0.85,0.15,1.26,0.02
		c0.41-0.14,0.89-0.45,1.46-0.94l3.57-3.09l0.98,1.13l-6.66,5.77L291.05,183.3z"/>
	<path d="M296.46,190.8l0.92-0.62c-1.04,0.02-1.86-0.41-2.46-1.31c-0.39-0.58-0.59-1.23-0.6-1.93c-0.01-0.71,0.19-1.39,0.58-2.04
		c0.39-0.66,0.97-1.24,1.72-1.74c0.73-0.49,1.47-0.81,2.23-0.97s1.46-0.1,2.1,0.18c0.64,0.27,1.17,0.71,1.57,1.31
		c0.3,0.44,0.47,0.9,0.51,1.36c0.05,0.47-0.01,0.91-0.16,1.33l3.62-2.44l0.83,1.23l-10.1,6.79L296.46,190.8z M297.48,184.42
		c-0.94,0.63-1.5,1.3-1.7,2.01c-0.2,0.71-0.12,1.33,0.24,1.86c0.36,0.54,0.89,0.85,1.59,0.94c0.7,0.08,1.5-0.19,2.41-0.8
		c1-0.67,1.61-1.36,1.81-2.06s0.12-1.33-0.26-1.9c-0.37-0.55-0.91-0.86-1.6-0.93C299.28,183.48,298.45,183.77,297.48,184.42z"/>
	<path d="M298.24,193.8l7.7-4.29l0.73,1.31l-7.7,4.29L298.24,193.8z M307.37,188.71l1.5-0.84l0.73,1.31l-1.5,0.84L307.37,188.71z"/>
	<path d="M303.85,194.69c1.49-0.67,2.78-0.75,3.87-0.24c0.91,0.42,1.58,1.13,2.03,2.13c0.5,1.11,0.54,2.17,0.13,3.2
		c-0.41,1.03-1.25,1.83-2.53,2.4c-1.04,0.47-1.92,0.68-2.65,0.63c-0.73-0.04-1.4-0.29-1.99-0.74c-0.59-0.45-1.05-1.02-1.37-1.72
		c-0.51-1.13-0.55-2.2-0.14-3.22C301.61,196.11,302.49,195.3,303.85,194.69z M304.48,196.09c-1.03,0.46-1.7,1.03-2.01,1.71
		c-0.31,0.68-0.31,1.36-0.01,2.04c0.3,0.68,0.81,1.12,1.53,1.34c0.72,0.22,1.6,0.09,2.66-0.38c0.99-0.45,1.65-1.01,1.96-1.69
		c0.31-0.68,0.31-1.36,0.01-2.03c-0.31-0.68-0.82-1.13-1.53-1.35C306.38,195.5,305.51,195.63,304.48,196.09z"/>
	<path d="M309.73,214.99l0.17,1.47c-1.02,0.09-1.89-0.12-2.6-0.63c-0.72-0.5-1.19-1.23-1.42-2.16c-0.29-1.17-0.14-2.21,0.45-3.11
		s1.6-1.53,3.03-1.88c0.92-0.23,1.77-0.27,2.54-0.14c0.77,0.14,1.4,0.47,1.9,1.01c0.5,0.54,0.84,1.18,1.02,1.92
		c0.23,0.93,0.18,1.75-0.14,2.45c-0.32,0.71-0.9,1.25-1.72,1.63l-0.57-1.36c0.54-0.28,0.92-0.62,1.12-1.03
		c0.21-0.41,0.25-0.86,0.13-1.34c-0.18-0.73-0.59-1.26-1.22-1.59c-0.64-0.33-1.52-0.35-2.66-0.07c-1.15,0.28-1.93,0.71-2.34,1.28
		c-0.41,0.57-0.53,1.21-0.36,1.92c0.14,0.57,0.43,1,0.88,1.3C308.38,214.96,308.98,215.07,309.73,214.99z"/>
	<path d="M311.5,217.54c1.62-0.2,2.88,0.1,3.77,0.91c0.74,0.67,1.18,1.55,1.31,2.63c0.15,1.2-0.13,2.24-0.82,3.1
		c-0.7,0.86-1.74,1.38-3.13,1.55c-1.13,0.14-2.03,0.08-2.72-0.18c-0.69-0.26-1.25-0.69-1.69-1.29c-0.44-0.6-0.7-1.28-0.79-2.05
		c-0.15-1.23,0.12-2.26,0.81-3.12C308.94,218.24,310.03,217.72,311.5,217.54z M311.69,219.07c-1.12,0.14-1.93,0.49-2.43,1.04
		c-0.5,0.56-0.7,1.21-0.61,1.95c0.09,0.74,0.45,1.31,1.07,1.73c0.62,0.42,1.5,0.56,2.65,0.42c1.08-0.13,1.87-0.48,2.37-1.04
		c0.5-0.56,0.7-1.21,0.61-1.94c-0.09-0.74-0.44-1.32-1.06-1.74C313.68,219.07,312.81,218.93,311.69,219.07z"/>
	<path d="M308.21,227.9l8.82-0.01l0,1.35l-1.25,0c0.97,0.65,1.46,1.58,1.46,2.8c0,0.53-0.09,1.02-0.29,1.47
		c-0.19,0.45-0.44,0.78-0.75,1c-0.31,0.22-0.68,0.38-1.1,0.47c-0.28,0.06-0.76,0.08-1.45,0.08l-5.42,0.01l0-1.49l5.36-0.01
		c0.61,0,1.06-0.06,1.37-0.18c0.3-0.12,0.54-0.32,0.72-0.62c0.18-0.3,0.27-0.64,0.27-1.04c0-0.64-0.21-1.19-0.61-1.65
		c-0.41-0.46-1.17-0.69-2.3-0.69l-4.81,0.01L308.21,227.9z"/>
	<path d="M309.08,240.44l-1.33,0.1c-0.05-0.43-0.06-0.81-0.03-1.14c0.05-0.54,0.17-0.95,0.37-1.23c0.2-0.28,0.44-0.47,0.73-0.57
		c0.29-0.1,0.88-0.11,1.77-0.03l5.05,0.44l0.09-1.09l1.16,0.1l-0.1,1.09l2.17,0.19l0.76,1.56l-3.07-0.27l-0.13,1.5l-1.16-0.1
		l0.13-1.5l-5.13-0.45c-0.42-0.04-0.7-0.04-0.83,0.01s-0.23,0.12-0.31,0.23c-0.08,0.11-0.13,0.28-0.15,0.5
		C309.06,239.94,309.06,240.16,309.08,240.44z"/>
	<path d="M307.57,241.72l8.71,1.37l-0.21,1.33l-1.32-0.21c0.56,0.44,0.92,0.81,1.08,1.13c0.15,0.32,0.2,0.65,0.15,0.99
		c-0.08,0.5-0.32,0.98-0.71,1.44l-1.29-0.72c0.27-0.33,0.43-0.67,0.49-1.03c0.05-0.32,0-0.63-0.15-0.92
		c-0.15-0.29-0.39-0.51-0.72-0.67c-0.5-0.25-1.06-0.42-1.68-0.52l-4.56-0.72L307.57,241.72z"/>
	<path d="M311.1,247.78c1.58,0.41,2.64,1.15,3.17,2.23c0.44,0.9,0.53,1.87,0.25,2.93c-0.3,1.17-0.94,2.03-1.9,2.58
		c-0.96,0.55-2.12,0.64-3.47,0.29c-1.1-0.29-1.92-0.67-2.46-1.17c-0.54-0.49-0.91-1.1-1.09-1.82s-0.18-1.45,0.01-2.2
		c0.31-1.19,0.94-2.06,1.9-2.6S309.66,247.41,311.1,247.78z M310.71,249.27c-1.09-0.28-1.97-0.26-2.64,0.08
		c-0.67,0.33-1.09,0.86-1.28,1.59c-0.19,0.72-0.07,1.39,0.35,2c0.42,0.62,1.19,1.07,2.31,1.36c1.05,0.27,1.92,0.24,2.58-0.1
		c0.67-0.34,1.1-0.86,1.28-1.58c0.19-0.72,0.07-1.39-0.34-2.01S311.8,249.55,310.71,249.27z"/>
	<path d="M304.14,256.19l11.47,4.06l-0.5,1.41l-11.47-4.06L304.14,256.19z"/>
</g>
<g>
	<path stroke="#000000" stroke-width="0.25" d="M212.98,292.81l1.47,0.2c-0.16,1.01-0.57,1.8-1.23,2.38
		c-0.66,0.57-1.47,0.86-2.43,0.86c-1.2,0-2.17-0.4-2.9-1.19s-1.1-1.92-1.1-3.4c0-0.95,0.16-1.79,0.47-2.5s0.79-1.25,1.44-1.61
		c0.64-0.36,1.34-0.54,2.1-0.54c0.95,0,1.74,0.24,2.34,0.73c0.61,0.49,1,1.17,1.17,2.07l-1.45,0.22c-0.14-0.59-0.38-1.04-0.73-1.33
		c-0.35-0.3-0.77-0.45-1.27-0.45c-0.75,0-1.36,0.27-1.83,0.81s-0.7,1.4-0.7,2.56c0,1.19,0.23,2.05,0.68,2.59
		c0.45,0.54,1.04,0.81,1.77,0.81c0.58,0,1.07-0.18,1.46-0.54S212.88,293.56,212.98,292.81z"/>
	<path stroke="#000000" stroke-width="0.25" d="M215.33,291.63c0-1.64,0.45-2.85,1.36-3.64c0.76-0.65,1.68-0.98,2.77-0.98
		c1.21,0,2.2,0.4,2.97,1.19c0.77,0.79,1.15,1.89,1.15,3.3c0,1.14-0.17,2.03-0.51,2.68c-0.34,0.65-0.84,1.16-1.49,1.52
		c-0.65,0.36-1.36,0.54-2.13,0.54c-1.24,0-2.23-0.4-3-1.19S215.33,293.12,215.33,291.63z M216.87,291.63c0,1.13,0.25,1.98,0.74,2.54
		c0.49,0.56,1.12,0.84,1.87,0.84c0.74,0,1.36-0.28,1.86-0.85c0.49-0.57,0.74-1.43,0.74-2.59c0-1.09-0.25-1.92-0.75-2.48
		s-1.11-0.84-1.85-0.84c-0.75,0-1.37,0.28-1.87,0.84S216.87,290.49,216.87,291.63z"/>
	<path stroke="#000000" stroke-width="0.25" d="M225.23,296.04v-8.83h1.34v1.25c0.65-0.97,1.58-1.46,2.8-1.46
		c0.53,0,1.02,0.1,1.46,0.29s0.78,0.44,1,0.75s0.38,0.68,0.46,1.11c0.06,0.28,0.08,0.76,0.08,1.46v5.43h-1.5v-5.37
		c0-0.61-0.06-1.07-0.17-1.37c-0.12-0.3-0.32-0.54-0.62-0.72c-0.29-0.18-0.64-0.27-1.04-0.27c-0.63,0-1.18,0.2-1.64,0.61
		c-0.46,0.4-0.69,1.17-0.69,2.3v4.82H225.23z"/>
	<path stroke="#000000" stroke-width="0.25" d="M237.65,294.7l0.2,1.32c-0.42,0.09-0.8,0.13-1.13,0.13c-0.54,0-0.96-0.09-1.26-0.26
		s-0.51-0.4-0.63-0.68c-0.12-0.28-0.18-0.87-0.18-1.77v-5.08h-1.11v-1.16h1.11v-2.18l1.5-0.9v3.08h1.5v1.16h-1.5v5.17
		c0,0.43,0.03,0.7,0.08,0.82c0.05,0.12,0.14,0.22,0.26,0.29c0.12,0.07,0.29,0.11,0.51,0.11
		C237.16,294.76,237.38,294.74,237.65,294.7z"/>
	<path stroke="#000000" stroke-width="0.25" d="M239.05,296.04v-8.83h1.34v1.33c0.34-0.63,0.66-1.04,0.95-1.24
		c0.29-0.2,0.61-0.3,0.96-0.3c0.5,0,1.01,0.16,1.53,0.49l-0.52,1.39c-0.36-0.22-0.73-0.32-1.09-0.32c-0.32,0-0.62,0.1-0.88,0.29
		c-0.26,0.2-0.44,0.47-0.55,0.82c-0.17,0.53-0.25,1.11-0.25,1.75v4.62H239.05z"/>
	<path stroke="#000000" stroke-width="0.25" d="M244.07,291.63c0-1.64,0.45-2.85,1.36-3.64c0.76-0.65,1.68-0.98,2.78-0.98
		c1.21,0,2.2,0.4,2.97,1.19c0.77,0.79,1.16,1.89,1.16,3.3c0,1.14-0.17,2.03-0.51,2.68c-0.34,0.65-0.84,1.16-1.49,1.52
		c-0.65,0.36-1.36,0.54-2.13,0.54c-1.24,0-2.23-0.4-3-1.19S244.07,293.12,244.07,291.63z M245.6,291.63c0,1.13,0.25,1.98,0.74,2.54
		c0.49,0.56,1.12,0.84,1.87,0.84c0.74,0,1.36-0.28,1.86-0.85c0.49-0.57,0.74-1.43,0.74-2.59c0-1.09-0.25-1.92-0.75-2.48
		c-0.5-0.56-1.11-0.84-1.85-0.84c-0.75,0-1.37,0.28-1.87,0.84S245.6,290.49,245.6,291.63z"/>
	<path stroke="#000000" stroke-width="0.25" d="M253.96,296.04v-12.17h1.5v12.17H253.96z"/>
	<path stroke="#000000" stroke-width="0.25" d="M214.99,308.81l1.47,0.2c-0.16,1.01-0.57,1.8-1.23,2.38
		c-0.66,0.57-1.47,0.86-2.43,0.86c-1.2,0-2.17-0.4-2.9-1.19s-1.1-1.92-1.1-3.4c0-0.95,0.16-1.79,0.47-2.5s0.79-1.25,1.44-1.61
		c0.64-0.36,1.34-0.54,2.1-0.54c0.95,0,1.74,0.24,2.34,0.73c0.61,0.49,1,1.17,1.17,2.07l-1.45,0.22c-0.14-0.59-0.38-1.04-0.73-1.33
		c-0.35-0.3-0.77-0.45-1.27-0.45c-0.75,0-1.36,0.27-1.83,0.81s-0.7,1.4-0.7,2.56c0,1.19,0.23,2.05,0.68,2.59
		c0.45,0.54,1.04,0.81,1.77,0.81c0.58,0,1.07-0.18,1.46-0.54S214.89,309.56,214.99,308.81z"/>
	<path stroke="#000000" stroke-width="0.25" d="M223.9,309.2l1.54,0.2c-0.24,0.9-0.69,1.6-1.35,2.1c-0.66,0.5-1.5,0.75-2.52,0.75
		c-1.29,0-2.31-0.4-3.07-1.19c-0.76-0.79-1.13-1.91-1.13-3.35c0-1.49,0.38-2.64,1.15-3.46c0.76-0.82,1.75-1.23,2.97-1.23
		c1.18,0,2.14,0.4,2.89,1.21c0.75,0.8,1.12,1.94,1.12,3.39c0,0.09,0,0.22-0.01,0.4h-6.59c0.06,0.97,0.33,1.71,0.82,2.23
		c0.49,0.51,1.11,0.77,1.85,0.77c0.55,0,1.02-0.14,1.41-0.43C223.37,310.29,223.68,309.83,223.9,309.2z M218.98,306.78h4.94
		c-0.07-0.74-0.26-1.3-0.57-1.67c-0.48-0.58-1.1-0.86-1.86-0.86c-0.69,0-1.27,0.23-1.74,0.69
		C219.29,305.39,219.03,306.01,218.98,306.78z"/>
	<path stroke="#000000" stroke-width="0.25" d="M227.16,312.04v-8.83h1.34v1.25c0.65-0.97,1.58-1.46,2.8-1.46
		c0.53,0,1.02,0.1,1.46,0.29c0.44,0.19,0.78,0.44,1,0.75s0.38,0.68,0.46,1.11c0.05,0.28,0.08,0.76,0.08,1.46v5.43h-1.5v-5.37
		c0-0.61-0.06-1.07-0.17-1.37c-0.12-0.3-0.32-0.54-0.62-0.72c-0.29-0.18-0.64-0.27-1.04-0.27c-0.63,0-1.18,0.2-1.64,0.61
		c-0.46,0.4-0.69,1.17-0.69,2.3v4.82H227.16z"/>
	<path stroke="#000000" stroke-width="0.25" d="M239.58,310.7l0.2,1.32c-0.42,0.09-0.8,0.13-1.13,0.13c-0.54,0-0.96-0.09-1.26-0.26
		s-0.51-0.4-0.63-0.68c-0.12-0.28-0.18-0.87-0.18-1.77v-5.08h-1.11v-1.16h1.11v-2.18l1.5-0.9v3.08h1.5v1.16h-1.5v5.17
		c0,0.43,0.03,0.7,0.08,0.82s0.14,0.22,0.26,0.29c0.12,0.07,0.29,0.11,0.51,0.11C239.09,310.76,239.31,310.74,239.58,310.7z"/>
	<path stroke="#000000" stroke-width="0.25" d="M246.83,309.2l1.54,0.2c-0.24,0.9-0.69,1.6-1.35,2.1c-0.66,0.5-1.5,0.75-2.52,0.75
		c-1.29,0-2.31-0.4-3.07-1.19c-0.75-0.79-1.13-1.91-1.13-3.35c0-1.49,0.38-2.64,1.15-3.46c0.76-0.82,1.75-1.23,2.97-1.23
		c1.18,0,2.14,0.4,2.89,1.21c0.75,0.8,1.12,1.94,1.12,3.39c0,0.09,0,0.22-0.01,0.4h-6.58c0.06,0.97,0.33,1.71,0.82,2.23
		c0.49,0.51,1.11,0.77,1.85,0.77c0.55,0,1.02-0.14,1.41-0.43C246.3,310.29,246.6,309.83,246.83,309.2z M241.91,306.78h4.94
		c-0.07-0.74-0.25-1.3-0.57-1.67c-0.48-0.58-1.1-0.86-1.86-0.86c-0.69,0-1.27,0.23-1.74,0.69
		C242.22,305.39,241.96,306.01,241.91,306.78z"/>
	<path stroke="#000000" stroke-width="0.25" d="M250.08,312.04v-8.83h1.34v1.33c0.34-0.63,0.66-1.04,0.95-1.24
		c0.29-0.2,0.61-0.3,0.96-0.3c0.5,0,1.01,0.16,1.53,0.49l-0.51,1.39c-0.36-0.22-0.73-0.32-1.09-0.32c-0.33,0-0.62,0.1-0.88,0.29
		c-0.26,0.2-0.44,0.47-0.55,0.82c-0.17,0.53-0.25,1.11-0.25,1.75v4.62H250.08z"/>
</g>
<path fill="#FBC8A4" stroke="#000000" d="M328.05,64.98h8.04l-1.62,7.63h-12.64l-1.61-7.63h6.59V53.87h1.16L328.05,64.98"/>
<path fill="none" stroke="#231F20" stroke-width="1.4981" stroke-linecap="round" stroke-linejoin="round" stroke-miterlimit="10" d="
	M329.04,56.22c1.33-0.07,1.15-0.46,1.28-0.95c0.18,0.52,1.4,0.92,2.89,0.92c1.47,0,2.67-0.39,2.88-0.9
	c0.16,0.53,1.39,0.94,2.89,0.94c1.61,0,2.92-0.47,2.92-1.06c0-0.21,0.11-0.41-0.19-0.57c-0.67-2.66-6.97-5.02-14.3-5.02
	c-7.2,0-13.41,2.29-14.25,4.88c-0.37,0.18-0.3,0.39-0.3,0.63c0,0.58,1.31,1.05,2.92,1.05c1.55,0,2.8-0.43,2.91-0.98
	c0.09,0.55,1.35,0.99,2.91,0.99c1.61,0,2.92-0.47,2.92-1.05c0,0,0,0,0,0h0.01c-0.01,0.02-0.02,0.05-0.02,0.08
	c0,0.54-0.11,0.98,1.33,1.04H329.04z"/>
<path fill="none" stroke="#231F20" stroke-width="1.4981" stroke-linecap="round" stroke-linejoin="round" stroke-miterlimit="10" d="
	M324.06,28.29c1.34-0.07,1.15-0.46,1.28-0.95c0.18,0.52,1.4,0.93,2.89,0.93c1.47,0,2.67-0.39,2.88-0.9
	c0.16,0.53,1.39,0.94,2.89,0.94c1.61,0,2.93-0.48,2.93-1.06c0-0.21,0.11-0.41-0.19-0.58c-0.67-2.66-6.97-5.02-14.3-5.02
	c-7.2,0-13.41,2.29-14.25,4.88c-0.36,0.18-0.3,0.39-0.3,0.63c0,0.59,1.31,1.06,2.93,1.06c1.55,0,2.8-0.43,2.9-0.98
	c0.09,0.55,1.35,0.99,2.91,0.99c1.61,0,2.92-0.47,2.92-1.06c0,0,0,0,0,0h0.01c-0.01,0.03-0.02,0.05-0.02,0.08
	c0,0.54-0.11,0.98,1.33,1.05H324.06z"/>
<g>
</g>
</svg>
