<?xml version="1.0" encoding="utf-8"?>
<svg version="1.1" xmlns="http://www.w3.org/2000/svg" width="1050.405" height="82.0" viewBox="-0.5 -0.5 1050.405 82.0" xml:space="preserve">
<g>
			<path fill="#4D4D4D" d="M0,0.688h26.75l32.935,47.026h0.003V0.688H77v64.375H50.25L17.315,18.036h-0.003v47.026H0V0.688z"/>
			<path fill="#4D4D4D" d="M89.017,0.688h17.313v64.375H89.017V0.688z"/>
			<path fill="#4D4D4D" d="M118.578,0.688h17.313v23.625h8.248l21.799-23.625h23.516l-30.438,31.399l33.938,32.976h-24.619
				L143.606,40.25h-7.716v24.813h-17.313V0.688z"/>
			<path fill="#4D4D4D" d="M196.715,42.651v-18.99c0-8.42,1.827-14.462,5.483-18.124C205.878,1.846,212.238,0,221.275,0h28.558
				c8.834,0,15.116,1.846,18.848,5.537s5.598,9.632,5.598,17.821v19.249c-0.127,8.363-2.031,14.318-5.712,17.865
				c-3.655,3.519-9.836,5.277-18.543,5.277h-28.748c-8.605,0-14.851-1.729-18.733-5.19C198.657,57.07,196.715,51.101,196.715,42.651
				z M214.59,29.548v6.266c0,5.473,0.71,9.088,2.131,10.844c1.42,1.729,4.197,2.593,8.332,2.593h21.42
				c4.007,0,6.657-0.922,7.951-2.766c1.318-1.871,1.979-5.299,1.979-10.282v-6.524c0-5.127-0.812-8.598-2.435-10.412
				c-1.599-1.844-4.376-2.766-8.332-2.766h-20.013c-4.135,0-7.014,0.937-8.637,2.809C215.389,21.182,214.59,24.595,214.59,29.548z"
				/>
			<path fill="#4D4D4D" d="M301.442,44.313c0.229,2.889,0.748,4.796,1.561,5.72c0.813,0.896,2.805,1.343,5.978,1.343h22.234
				c4.568,0,6.853-1.805,6.853-5.415c0-2.311-0.901-3.885-2.702-4.723c-1.777-0.866-6.078-1.3-12.904-1.3h-10.658
				c-8.273,0-14.363-0.533-18.271-1.601c-3.883-1.067-6.472-3.058-7.766-5.972c-1.092-2.394-1.637-6.533-1.637-12.418
				c0-8.048,1.712-13.385,5.138-16.01C292.719,1.313,298.529,0,306.699,0h24.358c8.551,0,14.336,1.354,17.355,4.063
				s4.529,7.493,4.529,14.353v2.334H335.63c0-2.544-0.521-4.235-1.561-5.074c-1.041-0.867-3.376-1.301-7.005-1.301h-18.541
				c-4.721,0-7.081,1.706-7.081,5.117c0,3.412,1.649,5.189,4.948,5.334c3.324,0.116,6.445,0.174,9.364,0.174h11.762
				c8.044,0,14.021,0.605,17.929,1.816c3.933,1.212,6.622,3.346,8.069,6.402c1.243,2.625,1.865,6.735,1.865,12.329
				c0,5.682-0.647,9.85-1.941,12.502c-1.421,2.885-4.009,4.889-7.764,6.013c-3.73,1.125-9.466,1.688-17.204,1.688h-22.646
				c-8.373,0-14.082-1.268-17.127-3.804c-3.045-2.535-4.567-6.929-4.567-13.182v-4.452H301.442z"/>
			<path fill="#4D4D4D" d="M406.598,0.688h20.063V7.75h-13.375V58h13.375v7.063h-20.063V0.688z"/>
			<path fill="#FF6600" d="M479.583,26.313V0.688h6.688v64.375h-6.25v-7.625c-1.775,5.542-6.671,8.313-14.687,8.313h-9.36
				c-7.406-0.087-12.632-1.601-15.676-4.542c-3.019-2.971-4.527-7.917-4.527-14.839v-7.483c0.051-7.585,1.609-12.733,4.678-15.444
				c3.093-2.711,8.722-4.066,16.886-4.066h9.547c3.828,0,6.718,0.55,8.671,1.647C477.529,22.093,478.873,23.855,479.583,26.313z
				 M442.458,38.323v8.392c0,4.932,1.001,8.306,3.005,10.122c2.003,1.817,5.109,2.726,9.319,2.726h11.411
				c5.047,0,8.533-1.038,10.461-3.114c1.952-2.105,2.929-5.623,2.929-10.555v-7.268c0-5.047-1.091-8.479-3.271-10.295
				c-2.156-1.846-5.846-2.769-11.068-2.769h-9.814c-4.869,0-8.254,0.923-10.156,2.769C443.395,30.177,442.458,33.508,442.458,38.323
				z"/>
			<path fill="#FF6600" d="M499.596,1.375h6.688v8.313h-6.688V1.375z M499.596,20.063h6.688v45h-6.688V20.063z"/>
			<path fill="#FF6600" d="M524.305,49.125v2.382c0.025,2.888,0.711,4.952,2.059,6.193c1.371,1.242,3.621,1.862,6.746,1.862h15.82
				c4.98,0,8.271-0.433,9.873-1.298c1.625-0.865,2.439-2.912,2.439-6.142c0-2.711-0.674-4.513-2.018-5.407
				c-1.346-0.894-3.781-1.341-7.307-1.341h-20.59c-4.668,0-7.955-0.98-9.857-2.941c-1.903-1.961-2.854-4.903-2.854-8.825v-2.855
				c0-4.037,1.433-6.936,4.299-8.695c2.866-1.788,7.95-2.683,15.252-2.683h11.488c6.289,0,10.625,0.921,13.01,2.763
				c2.383,1.813,3.576,4.676,3.576,8.59v2.46h-6.25c0-2.871-0.623-4.854-1.867-5.945c-1.244-1.119-3.553-1.68-6.93-1.68h-15.078
				c-4.391,0-7.297,0.433-8.719,1.298c-1.396,0.836-2.094,2.466-2.094,4.888v1.946c0,2.019,0.57,3.446,1.713,4.282
				c1.166,0.808,3.373,1.211,6.621,1.211h19.143c5.531,0,9.439,1.039,11.723,3.115c2.283,2.048,3.426,5.466,3.426,10.253
				c0,4.73-1.385,8.119-4.15,10.166c-2.742,2.02-7.271,3.028-13.592,3.028h-16.066c-6.041,0-10.23-1.097-12.564-3.29
				c-2.336-2.223-3.503-5.802-3.503-10.737v-2.598H524.305z"/>
			<path fill="#FF6600" d="M585.263,27.688c1.775-5.541,6.188-8.313,13.241-8.313h13.05c11.973,0,17.959,6.432,17.959,19.294v7.527
				c0,7.037-1.433,12.056-4.298,15.055c-2.865,3-7.783,4.499-14.756,4.499H597.68c-3.474,0-6.148-0.492-8.024-1.475
				c-1.877-0.982-3.195-2.803-3.955-5.463V81h-6.688V20.063h6.25V27.688z M585.7,46.672c0,4.499,0.938,7.772,2.814,9.819
				c1.902,2.048,4.971,3.071,9.205,3.071h12.211c4.691,0,8.013-0.879,9.966-2.639c1.952-1.759,2.929-5.133,2.929-10.122v-8.349
				c0-4.672-0.888-7.988-2.663-9.949s-4.818-2.941-9.129-2.941H597.72c-8.014,0-12.02,4.384-12.02,13.15V46.672z"/>
			<path fill="#FF6600" d="M682.967,44.125v-9.368c0-3.527-0.939-5.941-2.816-7.242c-1.878-1.301-5.507-1.952-10.886-1.952h-11
				c-4.111,0-6.813,0.488-8.106,1.465c-1.295,0.977-1.941,2.657-1.941,5.04v1.12h-6.688v-2.288c0-3.826,1.204-6.704,3.614-8.633
				c2.409-1.928,6.67-2.892,12.782-2.892h11.223c7.685,0,13.023,1.212,16.017,3.634c2.992,2.395,4.489,6.664,4.489,12.807v29.247
				h-6.688v-4.875c-1.117,2.492-2.614,4.042-4.492,4.649c-1.879,0.608-4.772,0.913-8.681,0.913h-17.628
				c-4.391,0-7.563-1.095-9.518-3.284c-1.955-2.219-2.932-5.604-2.932-10.156v-2.68c0-4.234,1.116-7.245,3.351-9.032
				c2.233-1.814,7.106-2.723,14.619-2.723h11.765C677.192,37.875,681.697,39.959,682.967,44.125z M646.404,51.101v1.597
				c0,2.563,0.749,4.347,2.247,5.354s3.936,1.511,7.313,1.511h11.388c6.043,0,10.156-0.475,12.34-1.425
				c2.184-0.949,3.275-2.691,3.275-5.225v-1.899c0-2.647-1.003-4.461-3.009-5.44c-2.006-1.007-5.726-1.511-11.159-1.511H657.83
				c-4.621,0-7.681,0.489-9.179,1.468S646.404,48.366,646.404,51.101z"/>
			<path fill="#FF6600" d="M698.185,20.063h8.688V9.688h6.688v10.375h26.813v6.188H713.56v22.237c0,4.385,0.799,7.326,2.397,8.825
				c1.598,1.5,4.146,2.25,7.647,2.25h2.32c3.5,0,6.075-0.532,7.725-1.599c1.648-1.094,2.473-4.492,2.473-10.195v-3.456h5.438v6.224
				c0,6.022-1.256,10.071-3.766,12.146c-2.485,2.046-6.302,3.068-11.448,3.068h-3.499c-5.503,0-9.547-1.183-12.133-3.548
				c-2.562-2.394-3.842-6.1-3.842-11.118V26.25h-8.688V20.063z"/>
			<path fill="#FF6600" d="M793.516,48.438l6.25,0.004v1.73c0,5.223-1.294,9.131-3.882,11.727
				c-2.563,2.568-7.016,3.852-13.358,3.852H767.34c-11.342,0-17.012-6.027-17.012-18.083v-9.646c0-6.575,1.509-11.319,4.526-14.233
				c3.043-2.941,8.102-4.412,15.177-4.412h11.867c11.411,0,17.117,5.008,17.117,15.023V36h0.011l-6.25,0.004h-0.011v-1.343
				c0-3.206-0.851-5.517-2.551-6.933c-1.701-1.443-4.607-2.166-8.719-2.166H768.59c-4.29,0-7.298,1.038-9.023,3.114
				c-1.701,2.048-2.551,5.336-2.551,9.863v8.392c0,4.614,1.117,7.873,3.353,9.776s5.715,2.854,10.439,2.854h10.744
				c7.976,0,11.964-3.218,11.964-9.653V48.438z"/>
			<path fill="#FF6600" d="M810.311,0.688h6.688v27.688c1.521-3.951,3.615-6.433,6.279-7.442c2.664-1.038,5.835-1.558,9.515-1.558
				h10.01c11.214,0,16.821,5.12,16.821,15.359v30.328h-6.688V36.812c0-4.441-1.117-7.427-3.351-8.956
				c-2.208-1.528-6.167-2.293-11.877-2.293h-1.903c-7.209,0-12.146,0.938-14.81,2.813c-2.665,1.875-3.997,5.466-3.997,10.772v25.915
				h-6.688V0.688z"/>
			<path fill="#FF6600" d="M877.612,43.938l-0.011,2.986c0,4.646,1.142,7.921,3.425,9.825c2.283,1.876,6.443,2.813,12.482,2.813
				h11.073c3.932,0,6.672-0.646,8.22-1.938c1.572-1.32,2.423-3.444,2.55-6.374l6.688,0.004v0.992
				c0,9.003-6.581,13.504-19.742,13.504h-12.629c-6.594,0-11.375-1.441-14.342-4.326c-2.941-2.884-4.412-7.599-4.412-14.146v-9.345
				c0-6.172,1.42-10.801,4.261-13.887c2.84-3.114,7.48-4.672,13.922-4.672h12.705c6.948,0,12.059,1.543,15.33,4.627
				c3.271,3.057,4.907,8.044,4.907,14.963l0.011,4.973H877.612z M877.612,37.75h37.75l-0.011-2.68c0-6.338-4.375-9.508-13.125-9.508
				h-0.875h-10.881c-5.809,0-9.409,1.196-10.804,3.587C878.297,31.541,877.612,34.408,877.612,37.75z"/>
			<path fill="#FF6600" d="M933.386,20.063h6.25v7.063c1.801-5.166,5.962-7.75,12.482-7.75h6.279c6.063,0,10.3,1.213,12.71,3.637
				c2.436,2.424,3.653,6.393,3.653,11.904V40.5h-6.25v-2.295c0-5.253-0.8-8.674-2.398-10.262c-1.6-1.587-5.279-2.381-11.04-2.381
				h-4.226c-3.604,0-6.307,0.995-8.108,2.985c-1.777,1.961-2.665,4.673-2.665,8.134v28.381h-6.688V20.063z"/>
			<path fill="#4D4D4D" d="M996.638,65.063h-20.063V58h13.375V7.75h-13.375V0.688h20.063V65.063z"/>
			<path fill="#4D4D4D" d="M1008.28,31.575c0-3.806,0.938-6.502,2.817-8.088c1.878-1.614,4.987-2.565,9.328-2.854l9.823-0.692
				c6.168-0.403,9.938-0.951,11.309-1.644c1.396-0.691,2.094-2.378,2.094-5.06c0-2.854-0.56-4.83-1.678-5.926
				c-1.093-1.124-3.088-1.687-5.985-1.687h-13.877c-3.203,0-5.389,0.519-6.557,1.556c-1.145,1.008-1.716,3.197-1.716,6.566
				l0.004,1.253l-5.438-0.021l-0.004-3.62c0-3.878,1.028-6.65,3.086-8.316c2.057-1.695,5.333-2.543,9.829-2.543h15.391
				c4.317,0,7.454,0.894,9.41,2.68c1.98,1.758,2.972,4.971,2.972,9.638c0,4.409-0.901,7.319-2.703,8.73
				c-1.803,1.384-5.192,2.248-10.167,2.594l-13.251,0.95c-3.707,0.289-6.182,0.793-7.425,1.513
				c-1.219,0.721-1.828,2.248-1.828,4.582v2.42v0.019h35.687l0.004,5.125h-41.129L1008.28,31.575z"/>
		</g>
</svg>
