<?xml version="1.0" encoding="utf-8"?>
<svg version="1.1" xmlns="http://www.w3.org/2000/svg" width="356.378" height="66.750" viewBox="344.188 -0.500 356.378 66.750" xml:space="preserve">
<g>
			<path fill="#4D4D4D" d="M344.688,0.688h26.75l32.935,47.026h0.003V0.688h17.313v64.375h-26.75l-32.935-47.026h-0.003v47.026
				h-17.313V0.688z"/>
			<path fill="#4D4D4D" d="M433.706,0.688h17.313v64.375h-17.313V0.688z"/>
			<path fill="#4D4D4D" d="M463.267,0.688h17.313v23.625h8.248l21.799-23.625h23.516l-30.438,31.399l33.938,32.976h-24.619
				L488.295,40.25h-7.716v24.813h-17.313V0.688z"/>
			<path fill="#4D4D4D" d="M541.403,42.651v-18.99c0-8.42,1.828-14.462,5.484-18.124C550.567,1.846,556.927,0,565.964,0h28.557
				c8.834,0,15.117,1.846,18.848,5.537c3.732,3.691,5.598,9.632,5.598,17.821v19.249c-0.127,8.363-2.031,14.318-5.711,17.865
				c-3.656,3.519-9.836,5.277-18.543,5.277h-28.748c-8.605,0-14.852-1.729-18.734-5.19C543.345,57.07,541.403,51.101,541.403,42.651
				z M559.278,29.548v6.266c0,5.473,0.711,9.088,2.131,10.844c1.42,1.729,4.197,2.593,8.332,2.593h21.42
				c4.008,0,6.658-0.922,7.951-2.766c1.318-1.871,1.979-5.299,1.979-10.282v-6.524c0-5.127-0.811-8.598-2.434-10.412
				c-1.6-1.844-4.377-2.766-8.332-2.766h-20.014c-4.135,0-7.014,0.937-8.637,2.809C560.077,21.182,559.278,24.595,559.278,29.548z"
				/>
			<path fill="#4D4D4D" d="M646.131,44.313c0.229,2.889,0.748,4.796,1.561,5.72c0.813,0.896,2.805,1.343,5.978,1.343h22.234
				c4.568,0,6.853-1.805,6.853-5.415c0-2.311-0.901-3.885-2.702-4.723c-1.777-0.866-6.078-1.3-12.904-1.3h-10.658
				c-8.273,0-14.363-0.533-18.271-1.601c-3.883-1.067-6.472-3.058-7.766-5.972c-1.092-2.394-1.637-6.533-1.637-12.418
				c0-8.048,1.712-13.385,5.138-16.01C637.407,1.313,643.218,0,651.388,0h24.358c8.551,0,14.336,1.354,17.355,4.063
				s4.529,7.493,4.529,14.353v2.334h-17.313c0-2.544-0.521-4.235-1.561-5.074c-1.041-0.867-3.376-1.301-7.005-1.301h-18.541
				c-4.721,0-7.081,1.706-7.081,5.117c0,3.412,1.649,5.189,4.948,5.334c3.324,0.116,6.445,0.174,9.364,0.174h11.762
				c8.044,0,14.021,0.605,17.929,1.816c3.933,1.212,6.622,3.346,8.069,6.402c1.243,2.625,1.865,6.735,1.865,12.329
				c0,5.682-0.647,9.85-1.941,12.502c-1.421,2.885-4.009,4.889-7.764,6.013c-3.73,1.125-9.466,1.688-17.204,1.688h-22.646
				c-8.373,0-14.082-1.268-17.127-3.804c-3.045-2.535-4.567-6.929-4.567-13.182v-4.452H646.131z"/>
		</g>
</svg>
