<?xml version="1.0" encoding="utf-8"?>
<svg version="1.1" xmlns="http://www.w3.org/2000/svg" width="748.895" height="66.75" viewBox="-0.5 -0.5 748.895 66.75" xml:space="preserve">
<g>
			<path fill="#4D4D4D" d="M0,0.688h26.75l32.935,47.026h0.003V0.688H77v64.375H50.25L17.315,18.036h-0.003v47.026H0V0.688z"/>
			<path fill="#4D4D4D" d="M89.017,0.688h17.313v64.375H89.017V0.688z"/>
			<path fill="#4D4D4D" d="M118.578,0.688h17.313v23.625h8.248l21.799-23.625h23.516l-30.438,31.399l33.938,32.976h-24.619
				L143.606,40.25h-7.716v24.813h-17.313V0.688z"/>
			<path fill="#4D4D4D" d="M196.715,42.651v-18.99c0-8.42,1.827-14.462,5.483-18.124C205.878,1.846,212.238,0,221.275,0h28.558
				c8.834,0,15.116,1.846,18.848,5.537s5.598,9.632,5.598,17.821v19.249c-0.127,8.363-2.031,14.318-5.712,17.865
				c-3.655,3.519-9.836,5.277-18.543,5.277h-28.748c-8.605,0-14.851-1.729-18.733-5.19C198.657,57.07,196.715,51.101,196.715,42.651
				z M214.59,29.548v6.266c0,5.473,0.71,9.088,2.131,10.844c1.42,1.729,4.197,2.593,8.332,2.593h21.42
				c4.007,0,6.657-0.922,7.951-2.766c1.318-1.871,1.979-5.299,1.979-10.282v-6.524c0-5.127-0.812-8.598-2.435-10.412
				c-1.599-1.844-4.376-2.766-8.332-2.766h-20.013c-4.135,0-7.014,0.937-8.637,2.809C215.389,21.182,214.59,24.595,214.59,29.548z"
				/>
			<path fill="#4D4D4D" d="M301.442,44.313c0.229,2.889,0.748,4.796,1.561,5.72c0.813,0.896,2.805,1.343,5.978,1.343h22.234
				c4.568,0,6.853-1.805,6.853-5.415c0-2.311-0.901-3.885-2.702-4.723c-1.777-0.866-6.078-1.3-12.904-1.3h-10.658
				c-8.273,0-14.363-0.533-18.271-1.601c-3.883-1.067-6.472-3.058-7.766-5.972c-1.092-2.394-1.637-6.533-1.637-12.418
				c0-8.048,1.712-13.385,5.138-16.01C292.719,1.313,298.529,0,306.699,0h24.358c8.551,0,14.336,1.354,17.355,4.063
				s4.529,7.493,4.529,14.353v2.334H335.63c0-2.544-0.521-4.235-1.561-5.074c-1.041-0.867-3.376-1.301-7.005-1.301h-18.541
				c-4.721,0-7.081,1.706-7.081,5.117c0,3.412,1.649,5.189,4.948,5.334c3.324,0.116,6.445,0.174,9.364,0.174h11.762
				c8.044,0,14.021,0.605,17.929,1.816c3.933,1.212,6.622,3.346,8.069,6.402c1.243,2.625,1.865,6.735,1.865,12.329
				c0,5.682-0.647,9.85-1.941,12.502c-1.421,2.885-4.009,4.889-7.764,6.013c-3.73,1.125-9.466,1.688-17.204,1.688h-22.646
				c-8.373,0-14.082-1.268-17.127-3.804c-3.045-2.535-4.567-6.929-4.567-13.182v-4.452H301.442z"/>
			<path fill="#4D4D4D" d="M406.598,0.688h20.063V7.75h-13.375V58h13.375v7.063h-20.063V0.688z"/>
			<path fill="#FF6600" d="M430.965,20.063h8.5v-3.849c0-10.351,4.399-15.526,13.199-15.526h12.363l0.011,6.191l-11.575-0.004
				c-4.874,0-7.311,2.565-7.311,7.696v5.491h18.875v6.188h-18.875v38.813h-6.688V26.25h-8.5V20.063z"/>
			<path fill="#FF6600" d="M475.271,65.063V0.688h6.688v64.375H475.271z"/>
			<path fill="#FF6600" d="M536.714,44.125v-9.368c0-3.527-0.939-5.941-2.816-7.242c-1.879-1.301-5.508-1.952-10.886-1.952h-11
				c-4.111,0-6.813,0.488-8.106,1.465c-1.295,0.977-1.941,2.657-1.941,5.04v1.12h-6.688v-2.288c0-3.826,1.204-6.704,3.614-8.633
				c2.409-1.928,6.67-2.892,12.782-2.892h11.223c7.684,0,13.024,1.212,16.016,3.634c2.992,2.395,4.49,6.664,4.49,12.807v29.247
				h-6.688v-4.875c-1.117,2.492-2.615,4.042-4.492,4.649c-1.879,0.608-4.773,0.913-8.681,0.913h-17.628
				c-4.391,0-7.563-1.095-9.518-3.284c-1.955-2.219-2.932-5.604-2.932-10.156v-2.68c0-4.234,1.116-7.245,3.351-9.032
				c2.233-1.814,7.106-2.723,14.619-2.723h11.765C530.938,37.875,535.444,39.959,536.714,44.125z M500.151,51.101v1.597
				c0,2.563,0.749,4.347,2.247,5.354s3.936,1.511,7.313,1.511h11.388c6.043,0,10.157-0.475,12.34-1.425
				c2.184-0.949,3.275-2.691,3.275-5.225v-1.899c0-2.647-1.004-4.461-3.01-5.44c-2.006-1.007-5.725-1.511-11.159-1.511h-10.969
				c-4.621,0-7.681,0.489-9.179,1.468S500.151,48.366,500.151,51.101z"/>
			<path fill="#FF6600" d="M560.411,49.125v2.382c0.025,2.888,0.711,4.952,2.059,6.193c1.372,1.242,3.621,1.862,6.747,1.862h15.819
				c4.98,0,8.271-0.433,9.873-1.298c1.626-0.865,2.439-2.912,2.439-6.142c0-2.711-0.673-4.513-2.017-5.407
				c-1.346-0.894-3.781-1.341-7.308-1.341h-20.59c-4.668,0-7.954-0.98-9.856-2.941c-1.903-1.961-2.854-4.903-2.854-8.825v-2.855
				c0-4.037,1.433-6.936,4.299-8.695c2.865-1.788,7.949-2.683,15.253-2.683h11.488c6.289,0,10.625,0.921,13.009,2.763
				c2.384,1.813,3.576,4.676,3.576,8.59v2.46h-6.25c0-2.871-0.622-4.854-1.866-5.945c-1.244-1.119-3.554-1.68-6.93-1.68h-15.078
				c-4.392,0-7.298,0.433-8.72,1.298c-1.396,0.836-2.094,2.466-2.094,4.888v1.946c0,2.019,0.57,3.446,1.713,4.282
				c1.166,0.808,3.374,1.211,6.622,1.211h19.143c5.531,0,9.438,1.039,11.723,3.115c2.283,2.048,3.425,5.466,3.425,10.253
				c0,4.73-1.384,8.119-4.149,10.166c-2.742,2.02-7.272,3.028-13.593,3.028h-16.066c-6.041,0-10.229-1.097-12.563-3.29
				c-2.336-2.223-3.503-5.802-3.503-10.737v-2.598H560.411z"/>
			<path fill="#FF6600" d="M615.118,0.688h6.688v27.688c1.521-3.951,3.615-6.433,6.279-7.442c2.664-1.038,5.835-1.558,9.515-1.558
				h10.01c11.214,0,16.821,5.12,16.821,15.359v30.328h-6.688V36.812c0-4.441-1.117-7.427-3.351-8.956
				c-2.208-1.528-6.167-2.293-11.877-2.293h-1.903c-7.209,0-12.146,0.938-14.81,2.813c-2.665,1.875-3.997,5.466-3.997,10.772v25.915
				h-6.688V0.688z"/>
			<path fill="#4D4D4D" d="M695.127,65.063h-20.063V58h13.375V7.75h-13.375V0.688h20.063V65.063z"/>
			<path fill="#4D4D4D" d="M706.77,31.575c0-3.806,0.938-6.502,2.817-8.088c1.878-1.614,4.987-2.565,9.328-2.854l9.823-0.692
				c6.168-0.403,9.938-0.951,11.309-1.644c1.396-0.691,2.094-2.378,2.094-5.06c0-2.854-0.56-4.83-1.678-5.926
				c-1.093-1.124-3.088-1.687-5.985-1.687h-13.877c-3.203,0-5.389,0.519-6.557,1.556c-1.145,1.008-1.716,3.197-1.716,6.566
				L712.332,15l-5.438-0.021l-0.004-3.62c0-3.878,1.028-6.65,3.086-8.316c2.057-1.695,5.333-2.543,9.829-2.543h15.391
				c4.317,0,7.454,0.894,9.41,2.68c1.98,1.758,2.972,4.971,2.972,9.638c0,4.409-0.901,7.319-2.703,8.73
				c-1.803,1.384-5.192,2.248-10.167,2.594l-13.251,0.95c-3.707,0.289-6.182,0.793-7.425,1.513
				c-1.219,0.721-1.828,2.248-1.828,4.582v2.42v0.019h35.687l0.004,5.125h-41.129L706.77,31.575z"/>
		</g>
</svg>
