<?xml version="1.0" encoding="utf-8"?>
<svg version="1.1" xmlns="http://www.w3.org/2000/svg" width="856.979" height="83.065" viewBox="-0.5 -0.5 856.979 83.065" xml:space="preserve">
<g>
			<path fill="#4D4D4D" d="M0,0.688h26.75l32.935,47.026h0.003V0.688H77v64.375H50.25L17.315,18.036h-0.003v47.026H0V0.688z"/>
			<path fill="#4D4D4D" d="M89.017,0.688h17.313v64.375H89.017V0.688z"/>
			<path fill="#4D4D4D" d="M118.578,0.688h17.313v23.625h8.248l21.799-23.625h23.516l-30.438,31.399l33.938,32.976h-24.619
				L143.606,40.25h-7.716v24.813h-17.313V0.688z"/>
			<path fill="#4D4D4D" d="M196.715,42.651v-18.99c0-8.42,1.827-14.462,5.483-18.124C205.878,1.846,212.238,0,221.275,0h28.558
				c8.834,0,15.116,1.846,18.848,5.537s5.598,9.632,5.598,17.821v19.249c-0.127,8.363-2.031,14.318-5.712,17.865
				c-3.655,3.519-9.836,5.277-18.543,5.277h-28.748c-8.605,0-14.851-1.729-18.733-5.19C198.657,57.07,196.715,51.101,196.715,42.651
				z M214.59,29.548v6.266c0,5.473,0.71,9.088,2.131,10.844c1.42,1.729,4.197,2.593,8.332,2.593h21.42
				c4.007,0,6.657-0.922,7.951-2.766c1.318-1.871,1.979-5.299,1.979-10.282v-6.524c0-5.127-0.812-8.598-2.435-10.412
				c-1.599-1.844-4.376-2.766-8.332-2.766h-20.013c-4.135,0-7.014,0.937-8.637,2.809C215.389,21.182,214.59,24.595,214.59,29.548z"
				/>
			<path fill="#4D4D4D" d="M301.442,44.313c0.229,2.889,0.748,4.796,1.561,5.72c0.813,0.896,2.805,1.343,5.978,1.343h22.234
				c4.568,0,6.853-1.805,6.853-5.415c0-2.311-0.901-3.885-2.702-4.723c-1.777-0.866-6.078-1.3-12.904-1.3h-10.658
				c-8.273,0-14.363-0.533-18.271-1.601c-3.883-1.067-6.472-3.058-7.766-5.972c-1.092-2.394-1.637-6.533-1.637-12.418
				c0-8.048,1.712-13.385,5.138-16.01C292.719,1.313,298.529,0,306.699,0h24.358c8.551,0,14.336,1.354,17.355,4.063
				s4.529,7.493,4.529,14.353v2.334H335.63c0-2.544-0.521-4.235-1.561-5.074c-1.041-0.867-3.376-1.301-7.005-1.301h-18.541
				c-4.721,0-7.081,1.706-7.081,5.117c0,3.412,1.649,5.189,4.948,5.334c3.324,0.116,6.445,0.174,9.364,0.174h11.762
				c8.044,0,14.021,0.605,17.929,1.816c3.933,1.212,6.622,3.346,8.069,6.402c1.243,2.625,1.865,6.735,1.865,12.329
				c0,5.682-0.647,9.85-1.941,12.502c-1.421,2.885-4.009,4.889-7.764,6.013c-3.73,1.125-9.466,1.688-17.204,1.688h-22.646
				c-8.373,0-14.082-1.268-17.127-3.804c-3.045-2.535-4.567-6.929-4.567-13.182v-4.452H301.442z"/>
			<path fill="#4D4D4D" d="M406.598,0.688h20.063V7.75h-13.375V58h13.375v7.063h-20.063V0.688z"/>
			<path fill="#FF6600" d="M442.593,43.938l-0.011,2.986c0,4.646,1.142,7.921,3.425,9.825c2.283,1.876,6.443,2.813,12.482,2.813
				h11.073c3.932,0,6.672-0.646,8.22-1.938c1.572-1.32,2.423-3.444,2.55-6.374l6.688,0.004v0.992
				c0,9.003-6.581,13.504-19.742,13.504h-12.629c-6.594,0-11.375-1.441-14.342-4.326c-2.941-2.884-4.412-7.599-4.412-14.146v-9.345
				c0-6.172,1.42-10.801,4.261-13.887c2.84-3.114,7.48-4.672,13.922-4.672h12.705c6.948,0,12.059,1.543,15.33,4.627
				c3.271,3.057,4.907,8.044,4.907,14.963l0.011,4.973H442.593z M442.593,37.75h37.75l-0.011-2.68c0-6.338-4.375-9.508-13.125-9.508
				h-0.875h-10.881c-5.809,0-9.409,1.196-10.804,3.587C443.277,31.541,442.593,34.408,442.593,37.75z"/>
			<path fill="#FF6600" d="M498.06,65.063v-45h6.25v8.313c1.345-3.288,3.108-5.581,5.292-6.88c2.208-1.326,5.863-2.033,10.966-2.12
				h9.976c11.219,0,16.828,5.12,16.828,15.359v30.328h-6.688V36.812c0-4.557-1.129-7.571-3.387-9.043
				c-2.26-1.471-5.953-2.206-11.08-2.206h-2.664c-7.209,0-12.146,0.938-14.81,2.813c-2.665,1.875-3.997,5.466-3.997,10.772v25.915
				H498.06z"/>
			<path fill="#FF6600" d="M565.362,43.938l-0.011,2.986c0,4.646,1.142,7.921,3.425,9.825c2.283,1.876,6.443,2.813,12.482,2.813
				h11.073c3.932,0,6.672-0.646,8.22-1.938c1.572-1.32,2.423-3.444,2.55-6.374l6.688,0.004v0.992
				c0,9.003-6.581,13.504-19.742,13.504h-12.629c-6.594,0-11.375-1.441-14.342-4.326c-2.941-2.884-4.412-7.599-4.412-14.146v-9.345
				c0-6.172,1.42-10.801,4.261-13.887c2.84-3.114,7.48-4.672,13.922-4.672h12.705c6.948,0,12.059,1.543,15.33,4.627
				c3.271,3.057,4.907,8.044,4.907,14.963l0.011,4.973H565.362z M565.362,37.75h37.75l-0.011-2.68c0-6.338-4.375-9.508-13.125-9.508
				h-0.875h-10.881c-5.809,0-9.409,1.196-10.804,3.587C566.047,31.541,565.362,34.408,565.362,37.75z"/>
			<path fill="#FF6600" d="M621.136,20.063h6.25v7.063c1.801-5.166,5.962-7.75,12.482-7.75h6.279c6.063,0,10.3,1.213,12.71,3.637
				c2.436,2.424,3.653,6.393,3.653,11.904V40.5h-6.25v-2.295c0-5.253-0.8-8.674-2.398-10.262c-1.6-1.587-5.279-2.381-11.04-2.381
				h-4.226c-3.604,0-6.307,0.995-8.108,2.985c-1.777,1.961-2.665,4.673-2.665,8.134v28.381h-6.688V20.063z"/>
			<path fill="#FF6600" d="M672.661,66.25h6.25v1.214c0,5.232,3.948,7.849,11.846,7.849h7.618c7.795,0,12.557-0.896,14.283-2.686
				c1.752-1.791,2.628-5.126,2.628-10.005v-7.06c-0.862,2.689-2.333,4.599-4.412,5.727c-2.079,1.1-5.121,1.648-9.127,1.648h-13.502
				c-11.182,0-16.771-6.07-16.771-18.212v-6.1c0.076-6.95,1.521-11.896,4.338-14.839c2.814-2.941,7.368-4.412,13.659-4.412h13.812
				c3.195,0,5.758,0.618,7.686,1.854c1.953,1.237,3.538,3.682,4.756,7.333v-8.5h6.25v44.866c0,11.047-6.431,16.571-19.291,16.571
				h-14.041c-5.175,0-9.132-1.242-11.871-3.726c-2.74-2.514-4.109-5.777-4.109-9.791V66.25z M678.161,35.165v8.868
				c0,4.845,0.888,8.175,2.663,9.991c1.8,1.817,4.665,2.726,8.596,2.726h12.972c8.596,0,12.895-4.022,12.895-12.068v-6.099
				c0-8.68-4.007-13.021-12.02-13.021h-13.352C682.079,25.563,678.161,28.764,678.161,35.165z"/>
			<path fill="#FF6600" d="M731.207,20.063h7.524L757.96,60.04h0.003l17.149-39.978h7.22l-22.616,51.573
				c-1.878,4.355-4.136,7.182-6.773,8.479c-2.613,1.298-6.813,1.947-12.597,1.947l-0.951,0.004v-6.191h1.218
				c4.643,0,7.814-0.563,9.515-1.688c1.699-1.125,3.184-3.259,4.452-6.402l0.799-1.947h-1.642L731.207,20.063z"/>
			<path fill="#4D4D4D" d="M803.211,65.063h-20.063V58h13.375V7.75h-13.375V0.688h20.063V65.063z"/>
			<path fill="#4D4D4D" d="M814.854,31.575c0-3.806,0.938-6.502,2.817-8.088c1.878-1.614,4.987-2.565,9.328-2.854l9.823-0.692
				c6.168-0.403,9.938-0.951,11.309-1.644c1.396-0.691,2.094-2.378,2.094-5.06c0-2.854-0.56-4.83-1.678-5.926
				c-1.093-1.124-3.088-1.687-5.985-1.687h-13.877c-3.203,0-5.389,0.519-6.557,1.556c-1.145,1.008-1.716,3.197-1.716,6.566
				L820.416,15l-5.438-0.021l-0.004-3.62c0-3.878,1.028-6.65,3.086-8.316c2.057-1.695,5.333-2.543,9.829-2.543h15.391
				c4.317,0,7.454,0.894,9.41,2.68c1.98,1.758,2.972,4.971,2.972,9.638c0,4.409-0.901,7.319-2.703,8.73
				c-1.803,1.384-5.192,2.248-10.167,2.594l-13.251,0.95c-3.707,0.289-6.182,0.793-7.425,1.513
				c-1.219,0.721-1.828,2.248-1.828,4.582v2.42v0.019h35.687l0.004,5.125H814.85L814.854,31.575z"/>
		</g>
</svg>
