<svg xmlns="http://www.w3.org/2000/svg" viewBox="0 0 805.6 81.0" width="805.6" height="81.0">
  <path fill="#4D4D4D" d="M0,0.688h26.75l32.935,47.026h0.003V0.688H77v64.375H50.25L17.315,18.036h-0.003v47.026H0V0.688z"/>
  <path fill="#4D4D4D" d="M89.017,0.688h17.313v64.375H89.017V0.688z"/>
  <path fill="#4D4D4D" d="M118.578,0.688h17.313v23.625h8.248l21.799-23.625h23.516l-30.438,31.399l33.938,32.976h-24.619
				L143.606,40.25h-7.716v24.813h-17.313V0.688z"/>
  <path fill="#4D4D4D" d="M196.715,42.651v-18.99c0-8.42,1.827-14.462,5.483-18.124C205.878,1.846,212.238,0,221.275,0h28.558
				c8.834,0,15.116,1.846,18.848,5.537s5.598,9.632,5.598,17.821v19.249c-0.127,8.363-2.031,14.318-5.712,17.865
				c-3.655,3.519-9.836,5.277-18.543,5.277h-28.748c-8.605,0-14.851-1.729-18.733-5.19C198.657,57.07,196.715,51.101,196.715,42.651
				z M214.59,29.548v6.266c0,5.473,0.71,9.088,2.131,10.844c1.42,1.729,4.197,2.593,8.332,2.593h21.42
				c4.007,0,6.657-0.922,7.951-2.766c1.318-1.871,1.979-5.299,1.979-10.282v-6.524c0-5.127-0.812-8.598-2.435-10.412
				c-1.599-1.844-4.376-2.766-8.332-2.766h-20.013c-4.135,0-7.014,0.937-8.637,2.809C215.389,21.182,214.59,24.595,214.59,29.548z"/>
  <path fill="#4D4D4D" d="M301.442,44.313c0.229,2.889,0.748,4.796,1.561,5.72c0.813,0.896,2.805,1.343,5.978,1.343h22.234
				c4.568,0,6.853-1.805,6.853-5.415c0-2.311-0.901-3.885-2.702-4.723c-1.777-0.866-6.078-1.3-12.904-1.3h-10.658
				c-8.273,0-14.363-0.533-18.271-1.601c-3.883-1.067-6.472-3.058-7.766-5.972c-1.092-2.394-1.637-6.533-1.637-12.418
				c0-8.048,1.712-13.385,5.138-16.01C292.719,1.313,298.529,0,306.699,0h24.358c8.551,0,14.336,1.354,17.355,4.063
				s4.529,7.493,4.529,14.353v2.334H335.63c0-2.544-0.521-4.235-1.561-5.074c-1.041-0.867-3.376-1.301-7.005-1.301h-18.541
				c-4.721,0-7.081,1.706-7.081,5.117c0,3.412,1.649,5.189,4.948,5.334c3.324,0.116,6.445,0.174,9.364,0.174h11.762
				c8.044,0,14.021,0.605,17.929,1.816c3.933,1.212,6.622,3.346,8.069,6.402c1.243,2.625,1.865,6.735,1.865,12.329
				c0,5.682-0.647,9.85-1.941,12.502c-1.421,2.885-4.009,4.889-7.764,6.013c-3.73,1.125-9.466,1.688-17.204,1.688h-22.646
				c-8.373,0-14.082-1.268-17.127-3.804c-3.045-2.535-4.567-6.929-4.567-13.182v-4.452H301.442z"/>
  <path fill="#4D4D4D" d="M406.598,0.688h20.063V7.75h-13.375V58h13.375v7.063h-20.063V0.688z"/>
  <path fill="#FF6600" d="M479.082,48.438l6.25,0.004v1.73c0,5.223-1.294,9.131-3.882,11.727
				c-2.563,2.568-7.016,3.852-13.358,3.852h-15.186c-11.342,0-17.012-6.027-17.012-18.083v-9.646c0-6.575,1.509-11.319,4.526-14.233
				c3.043-2.941,8.102-4.412,15.177-4.412h11.867c11.411,0,17.117,5.008,17.117,15.023V36h0.011l-6.25,0.004h-0.011v-1.343
				c0-3.206-0.851-5.517-2.551-6.933c-1.701-1.443-4.607-2.166-8.719-2.166h-12.906c-4.29,0-7.298,1.038-9.023,3.114
				c-1.701,2.048-2.551,5.336-2.551,9.863v8.392c0,4.614,1.117,7.873,3.353,9.776s5.715,2.854,10.439,2.854h10.744
				c7.976,0,11.964-3.218,11.964-9.653V48.438z"/>
  <path fill="#FF6600" d="M496.487,65.063V0.688h6.688v64.375H496.487z"/>
  <path fill="#FF6600" d="M557.929,44.125v-9.368c0-3.527-0.939-5.941-2.816-7.242s-5.506-1.952-10.885-1.952h-11
				c-4.111,0-6.814,0.488-8.107,1.465c-1.294,0.977-1.941,2.657-1.941,5.04v1.12h-6.688v-2.288c0-3.826,1.204-6.704,3.614-8.633
				c2.409-1.928,6.67-2.892,12.782-2.892h11.223c7.686,0,13.023,1.212,16.018,3.634c2.992,2.395,4.488,6.664,4.488,12.807v29.247
				h-6.688v-4.875c-1.117,2.492-2.613,4.042-4.492,4.649c-1.879,0.608-4.771,0.913-8.68,0.913h-17.629
				c-4.39,0-7.563-1.095-9.517-3.284c-1.955-2.219-2.932-5.604-2.932-10.156v-2.68c0-4.234,1.116-7.245,3.351-9.032
				c2.233-1.814,7.106-2.723,14.62-2.723h11.764C552.155,37.875,556.659,39.959,557.929,44.125z M521.367,51.101v1.597
				c0,2.563,0.749,4.347,2.247,5.354c1.499,1.008,3.936,1.511,7.313,1.511h11.387c6.043,0,10.156-0.475,12.34-1.425
				c2.184-0.949,3.275-2.691,3.275-5.225v-1.899c0-2.647-1.002-4.461-3.008-5.44c-2.006-1.007-5.727-1.511-11.16-1.511h-10.969
				c-4.621,0-7.68,0.489-9.178,1.468C522.116,46.509,521.367,48.366,521.367,51.101z"/>
  <path fill="#FF6600" d="M576.822,20.063h6.25v5.563c2.031-4.166,6.299-6.25,12.803-6.25h11.011
				c6.427,0,10.656,2.771,12.688,8.313c2.182-5.541,7.104-8.313,14.767-8.313h8.602c5.48,0,9.73,1.37,12.75,4.11
				c3.045,2.711,4.567,6.576,4.567,11.595v29.982h-6.688V36.205c0-4.268-1.358-7.181-4.075-8.739
				c-2.133-1.269-5.637-1.903-10.512-1.903h-3.618c-5.18,0-8.785,1.154-10.816,3.461c-1.777,2.02-2.666,5.235-2.666,9.648v26.391
				h-6.688v-27.3c0-4.066-0.609-6.922-1.828-8.566c-1.828-2.422-5.421-3.634-10.778-3.634h-6.817
				c-8.176,0-12.264,3.75-12.264,11.249v28.251h-6.688V20.063z"/>
  <path fill="#FF6600" d="M679.178,27.688c1.775-5.541,6.188-8.313,13.241-8.313h13.05c11.973,0,17.959,6.432,17.959,19.294v7.527
				c0,7.037-1.433,12.056-4.298,15.055c-2.865,3-7.783,4.499-14.756,4.499h-12.779c-3.474,0-6.148-0.492-8.024-1.475
				c-1.877-0.982-3.195-2.803-3.955-5.463V81h-6.688V20.063h6.25V27.688z M679.615,46.672c0,4.499,0.938,7.772,2.814,9.819
				c1.902,2.048,4.971,3.071,9.205,3.071h12.211c4.691,0,8.013-0.879,9.966-2.639c1.952-1.759,2.929-5.133,2.929-10.122v-8.349
				c0-4.672-0.888-7.988-2.663-9.949s-4.818-2.941-9.129-2.941h-13.313c-8.014,0-12.02,4.384-12.02,13.15V46.672z"/>
  <path fill="#4D4D4D" d="M752.851,65.063h-20.063V58h13.375V7.75h-13.375V0.688h20.063V65.063z"/>
  <path fill="#4D4D4D" d="M764.493,31.575c0-3.806,0.938-6.502,2.817-8.088c1.878-1.614,4.987-2.565,9.328-2.854l9.823-0.692
				c6.168-0.403,9.938-0.951,11.309-1.644c1.396-0.691,2.094-2.378,2.094-5.06c0-2.854-0.56-4.83-1.678-5.926
				c-1.093-1.124-3.088-1.687-5.985-1.687h-13.877c-3.203,0-5.389,0.519-6.557,1.556c-1.145,1.008-1.716,3.197-1.716,6.566
				L770.056,15l-5.438-0.021l-0.004-3.62c0-3.878,1.028-6.65,3.086-8.316c2.057-1.695,5.333-2.543,9.829-2.543h15.391
				c4.317,0,7.454,0.894,9.41,2.68c1.98,1.758,2.972,4.971,2.972,9.638c0,4.409-0.901,7.319-2.703,8.73
				c-1.803,1.384-5.192,2.248-10.167,2.594l-13.251,0.95c-3.707,0.289-6.182,0.793-7.425,1.513
				c-1.219,0.721-1.828,2.248-1.828,4.582v2.42v0.019h35.687l0.004,5.125h-41.129L764.493,31.575z"/>
</svg>
