<?xml version="1.0" encoding="utf-8"?>
<svg version="1.1" xmlns="http://www.w3.org/2000/svg" width="778.098" height="66.751" viewBox="-0.5 -0.5 778.098 66.751" xml:space="preserve">
<g>
			<path fill="#4D4D4D" d="M0,0.688h26.75l32.935,47.026h0.003V0.688H77v64.375H50.25L17.315,18.036h-0.003v47.026H0V0.688z"/>
			<path fill="#4D4D4D" d="M89.017,0.688h17.313v64.375H89.017V0.688z"/>
			<path fill="#4D4D4D" d="M118.578,0.688h17.313v23.625h8.248l21.799-23.625h23.516l-30.438,31.399l33.938,32.976h-24.619
				L143.606,40.25h-7.716v24.813h-17.313V0.688z"/>
			<path fill="#4D4D4D" d="M196.715,42.651v-18.99c0-8.42,1.827-14.462,5.483-18.124C205.878,1.846,212.238,0,221.275,0h28.558
				c8.834,0,15.116,1.846,18.848,5.537s5.598,9.632,5.598,17.821v19.249c-0.127,8.363-2.031,14.318-5.712,17.865
				c-3.655,3.519-9.836,5.277-18.543,5.277h-28.748c-8.605,0-14.851-1.729-18.733-5.19C198.657,57.07,196.715,51.101,196.715,42.651
				z M214.59,29.548v6.266c0,5.473,0.71,9.088,2.131,10.844c1.42,1.729,4.197,2.593,8.332,2.593h21.42
				c4.007,0,6.657-0.922,7.951-2.766c1.318-1.871,1.979-5.299,1.979-10.282v-6.524c0-5.127-0.812-8.598-2.435-10.412
				c-1.599-1.844-4.376-2.766-8.332-2.766h-20.013c-4.135,0-7.014,0.937-8.637,2.809C215.389,21.182,214.59,24.595,214.59,29.548z"
				/>
			<path fill="#4D4D4D" d="M301.442,44.313c0.229,2.889,0.748,4.796,1.561,5.72c0.813,0.896,2.805,1.343,5.978,1.343h22.234
				c4.568,0,6.853-1.805,6.853-5.415c0-2.311-0.901-3.885-2.702-4.723c-1.777-0.866-6.078-1.3-12.904-1.3h-10.658
				c-8.273,0-14.363-0.533-18.271-1.601c-3.883-1.067-6.472-3.058-7.766-5.972c-1.092-2.394-1.637-6.533-1.637-12.418
				c0-8.048,1.712-13.385,5.138-16.01C292.719,1.313,298.529,0,306.699,0h24.358c8.551,0,14.336,1.354,17.355,4.063
				s4.529,7.493,4.529,14.353v2.334H335.63c0-2.544-0.521-4.235-1.561-5.074c-1.041-0.867-3.376-1.301-7.005-1.301h-18.541
				c-4.721,0-7.081,1.706-7.081,5.117c0,3.412,1.649,5.189,4.948,5.334c3.324,0.116,6.445,0.174,9.364,0.174h11.762
				c8.044,0,14.021,0.605,17.929,1.816c3.933,1.212,6.622,3.346,8.069,6.402c1.243,2.625,1.865,6.735,1.865,12.329
				c0,5.682-0.647,9.85-1.941,12.502c-1.421,2.885-4.009,4.889-7.764,6.013c-3.73,1.125-9.466,1.688-17.204,1.688h-22.646
				c-8.373,0-14.082-1.268-17.127-3.804c-3.045-2.535-4.567-6.929-4.567-13.182v-4.452H301.442z"/>
			<path fill="#4D4D4D" d="M406.598,0.688h20.063V7.75h-13.375V58h13.375v7.063h-20.063V0.688z"/>
			<path fill="#FF6600" d="M479.518,44.125v-9.368c0-3.527-0.939-5.941-2.816-7.242c-1.878-1.301-5.507-1.952-10.886-1.952h-11
				c-4.111,0-6.813,0.488-8.106,1.465c-1.295,0.977-1.941,2.657-1.941,5.04v1.12h-6.688v-2.288c0-3.826,1.204-6.704,3.614-8.633
				c2.409-1.928,6.67-2.892,12.782-2.892H465.7c7.685,0,13.023,1.212,16.017,3.634c2.992,2.395,4.489,6.664,4.489,12.807v29.247
				h-6.688v-4.875c-1.117,2.492-2.614,4.042-4.492,4.649c-1.879,0.608-4.772,0.913-8.681,0.913h-17.628
				c-4.391,0-7.563-1.095-9.518-3.284c-1.955-2.219-2.932-5.604-2.932-10.156v-2.68c0-4.234,1.116-7.245,3.351-9.032
				c2.233-1.814,7.106-2.723,14.619-2.723h11.765C473.744,37.875,478.249,39.959,479.518,44.125z M442.956,51.101v1.597
				c0,2.563,0.749,4.347,2.247,5.354s3.936,1.511,7.313,1.511h11.388c6.043,0,10.156-0.475,12.34-1.425
				c2.184-0.949,3.275-2.691,3.275-5.225v-1.899c0-2.647-1.003-4.461-3.009-5.44c-2.006-1.007-5.726-1.511-11.159-1.511h-10.969
				c-4.621,0-7.681,0.489-9.179,1.468S442.956,48.366,442.956,51.101z"/>
			<path fill="#FF6600" d="M498.177,20.063h6.688v28.251c0,5.164,1.294,8.337,3.883,9.519c2.614,1.154,6.092,1.73,10.432,1.73h2.816
				c7.183,0,12.107-0.938,14.771-2.813c2.689-1.874,4.035-5.465,4.035-10.772V20.063h6.688v45h-6.25V56.75
				c-1.447,3.692-3.465,6.115-6.053,7.27c-2.564,1.153-5.992,1.73-10.281,1.73h-9.938c-5.838,0-10.103-1.226-12.793-3.678
				c-2.666-2.48-3.998-6.374-3.998-11.682V20.063z"/>
			<path fill="#FF6600" d="M602.688,26.313V0.688h6.688v64.375h-6.25v-7.625c-1.775,5.542-6.671,8.313-14.687,8.313h-9.36
				c-7.406-0.087-12.632-1.601-15.676-4.542c-3.019-2.971-4.527-7.917-4.527-14.839v-7.483c0.051-7.585,1.609-12.733,4.678-15.444
				c3.093-2.711,8.722-4.066,16.886-4.066h9.547c3.828,0,6.718,0.55,8.671,1.647C600.634,22.093,601.978,23.855,602.688,26.313z
				 M565.563,38.323v8.392c0,4.932,1.001,8.306,3.005,10.122c2.003,1.817,5.109,2.726,9.319,2.726h11.411
				c5.047,0,8.533-1.038,10.461-3.114c1.952-2.105,2.929-5.623,2.929-10.555v-7.268c0-5.047-1.091-8.479-3.271-10.295
				c-2.156-1.846-5.846-2.769-11.068-2.769h-9.814c-4.869,0-8.254,0.923-10.156,2.769C566.5,30.177,565.563,33.508,565.563,38.323z"
				/>
			<path fill="#FF6600" d="M622.701,1.375h6.688v8.313h-6.688V1.375z M622.701,20.063h6.688v45h-6.688V20.063z"/>
			<path fill="#FF6600" d="M641.371,47.278v-9.345c0.076-6.69,1.788-11.449,5.136-14.275c3.348-2.855,8.787-4.283,16.319-4.283
				h10.348c7.456,0,12.946,1.442,16.472,4.326c3.525,2.885,5.288,7.542,5.288,13.973v9.69c0,6.721-1.826,11.465-5.478,14.232
				c-3.652,2.77-9.042,4.153-16.168,4.153h-10.157c-7.381,0-12.858-1.428-16.434-4.283
				C643.146,58.612,641.371,53.883,641.371,47.278z M648.059,38.453v7.354c0,5.076,0.938,8.638,2.816,10.685
				c1.877,2.048,5.087,3.071,9.628,3.071h14.386c4.541,0,7.902-0.937,10.085-2.812c2.182-1.874,3.272-5.233,3.272-10.079v-8.306
				c0-4.44-0.965-7.685-2.893-9.732c-1.928-2.047-5.341-3.071-10.237-3.071h-13.7c-4.922,0-8.385,0.995-10.389,2.984
				C649.048,30.508,648.059,33.811,648.059,38.453z"/>
			<path fill="#4D4D4D" d="M724.33,65.063h-20.063V58h13.375V7.75h-13.375V0.688h20.063V65.063z"/>
			<path fill="#4D4D4D" d="M735.973,31.575c0-3.806,0.938-6.502,2.817-8.088c1.878-1.614,4.987-2.565,9.328-2.854l9.823-0.692
				c6.168-0.403,9.938-0.951,11.309-1.644c1.396-0.691,2.094-2.378,2.094-5.06c0-2.854-0.56-4.83-1.678-5.926
				c-1.093-1.124-3.088-1.687-5.985-1.687h-13.877c-3.203,0-5.389,0.519-6.557,1.556c-1.145,1.008-1.716,3.197-1.716,6.566
				L741.535,15l-5.438-0.021l-0.004-3.62c0-3.878,1.028-6.65,3.086-8.316c2.057-1.695,5.333-2.543,9.829-2.543h15.391
				c4.317,0,7.454,0.894,9.41,2.68c1.98,1.758,2.972,4.971,2.972,9.638c0,4.409-0.901,7.319-2.703,8.73
				c-1.803,1.384-5.192,2.248-10.167,2.594l-13.251,0.95c-3.707,0.289-6.182,0.793-7.425,1.513
				c-1.219,0.721-1.828,2.248-1.828,4.582v2.42v0.019h35.687l0.004,5.125h-41.129L735.973,31.575z"/>
		</g>
</svg>
