<?xml version="1.0" encoding="utf-8"?>
<svg version="1.1" xmlns="http://www.w3.org/2000/svg" width="802.939" height="66.75" viewBox="-0.5 -0.5 802.939 66.75" xml:space="preserve">
<g>
			<path fill="#4D4D4D" d="M0,0.688h26.75l32.935,47.026h0.003V0.688H77v64.375H50.25L17.315,18.036h-0.003v47.026H0V0.688z"/>
			<path fill="#4D4D4D" d="M89.017,0.688h17.313v64.375H89.017V0.688z"/>
			<path fill="#4D4D4D" d="M118.578,0.688h17.313v23.625h8.248l21.799-23.625h23.516l-30.438,31.399l33.938,32.976h-24.619
				L143.606,40.25h-7.716v24.813h-17.313V0.688z"/>
			<path fill="#4D4D4D" d="M196.715,42.651v-18.99c0-8.42,1.827-14.462,5.483-18.124C205.878,1.846,212.238,0,221.275,0h28.558
				c8.834,0,15.116,1.846,18.848,5.537s5.598,9.632,5.598,17.821v19.249c-0.127,8.363-2.031,14.318-5.712,17.865
				c-3.655,3.519-9.836,5.277-18.543,5.277h-28.748c-8.605,0-14.851-1.729-18.733-5.19C198.657,57.07,196.715,51.101,196.715,42.651
				z M214.59,29.548v6.266c0,5.473,0.71,9.088,2.131,10.844c1.42,1.729,4.197,2.593,8.332,2.593h21.42
				c4.007,0,6.657-0.922,7.951-2.766c1.318-1.871,1.979-5.299,1.979-10.282v-6.524c0-5.127-0.812-8.598-2.435-10.412
				c-1.599-1.844-4.376-2.766-8.332-2.766h-20.013c-4.135,0-7.014,0.937-8.637,2.809C215.389,21.182,214.59,24.595,214.59,29.548z"
				/>
			<path fill="#4D4D4D" d="M301.442,44.313c0.229,2.889,0.748,4.796,1.561,5.72c0.813,0.896,2.805,1.343,5.978,1.343h22.234
				c4.568,0,6.853-1.805,6.853-5.415c0-2.311-0.901-3.885-2.702-4.723c-1.777-0.866-6.078-1.3-12.904-1.3h-10.658
				c-8.273,0-14.363-0.533-18.271-1.601c-3.883-1.067-6.472-3.058-7.766-5.972c-1.092-2.394-1.637-6.533-1.637-12.418
				c0-8.048,1.712-13.385,5.138-16.01C292.719,1.313,298.529,0,306.699,0h24.358c8.551,0,14.336,1.354,17.355,4.063
				s4.529,7.493,4.529,14.353v2.334H335.63c0-2.544-0.521-4.235-1.561-5.074c-1.041-0.867-3.376-1.301-7.005-1.301h-18.541
				c-4.721,0-7.081,1.706-7.081,5.117c0,3.412,1.649,5.189,4.948,5.334c3.324,0.116,6.445,0.174,9.364,0.174h11.762
				c8.044,0,14.021,0.605,17.929,1.816c3.933,1.212,6.622,3.346,8.069,6.402c1.243,2.625,1.865,6.735,1.865,12.329
				c0,5.682-0.647,9.85-1.941,12.502c-1.421,2.885-4.009,4.889-7.764,6.013c-3.73,1.125-9.466,1.688-17.204,1.688h-22.646
				c-8.373,0-14.082-1.268-17.127-3.804c-3.045-2.535-4.567-6.929-4.567-13.182v-4.452H301.442z"/>
			<path fill="#4D4D4D" d="M406.598,0.688h20.063V7.75h-13.375V58h13.375v7.063h-20.063V0.688z"/>
			<path fill="#FF6600" d="M438.161,65.063V0.688h45.687c6.999,0,11.843,1.27,14.531,3.807c2.688,2.538,4.032,7.239,4.032,14.103
				v5.234c0,4.269-0.825,7.297-2.476,9.084c-1.65,1.789-4.367,2.942-8.149,3.461c6.583,1.212,9.875,5.365,9.875,12.461v16.226h-7.13
				V50.819c0-4.358-0.813-7.317-2.436-8.876c-1.624-1.587-4.681-2.381-9.171-2.381h-37.139v25.5H438.161z M445.786,32.5h36.55
				c4.061,0,7.145-0.649,9.252-1.95c2.132-1.301,3.198-3.8,3.198-7.499v-5.722c0-3.871-1.016-6.429-3.046-7.672
				c-2.006-1.271-5.521-1.907-10.546-1.907h-35.408V32.5z"/>
			<path fill="#FF6600" d="M512.346,41.563l7.125-0.029v5.978c0,4.795,0.876,7.856,2.629,9.185c1.777,1.328,4.915,1.992,9.411,1.992
				h13.717c4.877,0,8.141-0.75,9.791-2.251c1.676-1.5,2.516-4.228,2.516-8.181V0.688h7.625v46.244
				c0,6.922-1.383,11.796-4.148,14.622c-2.74,2.798-7.686,4.196-14.838,4.196h-15.602c-6.976,0-11.757-1.41-14.344-4.232
				c-2.588-2.822-3.881-7.142-3.881-12.958V41.563z"/>
			<path fill="#FF6600" d="M576.941,41.464l46.188-40.776h10.438v43.875h9.375v7.063h-9.375v13.438h-7.188V51.625h-49.438V41.464z
				 M583.9,44.533v0.029h42.479V6.871h-0.021L583.9,44.533z"/>
			<path fill="#FF6600" d="M654.902,45.658l7.188,0.029l-0.005,1.43c0,4.305,0.85,7.31,2.55,9.014
				c1.699,1.705,4.668,2.557,8.905,2.557h22.339c6.469,0,10.719-0.839,12.748-2.517c2.055-1.678,3.083-5.191,3.083-10.542v-5.424
				c0-4.541-1.129-7.679-3.386-9.414c-2.258-1.735-6.023-2.604-11.298-2.604h-22.443c-3.729,0-6.441,0.49-8.14,1.471
				c-1.674,0.953-2.866,2.713-3.576,5.279l-6.845-0.029l0.005-34.221h60.87l0.005,7.063H663.21v0.021V28
				c1.166-2.738,2.814-4.568,4.945-5.491c2.129-0.922,5.844-1.384,11.145-1.384h20.389c6.821,0,11.729,1.399,14.721,4.198
				c2.992,2.771,4.488,7.518,4.488,14.24v7.878c0,7.82-1.738,12.826-5.213,15.02c-3.476,2.193-8.574,3.289-15.296,3.289H672.02
				c-5.986,0-10.337-1.327-13.051-3.983c-2.715-2.656-4.071-7.376-4.071-14.16L654.902,45.658z"/>
			<path fill="#4D4D4D" d="M749.171,65.063h-20.063V58h13.375V7.75h-13.375V0.688h20.063V65.063z"/>
			<path fill="#4D4D4D" d="M760.813,31.575c0-3.806,0.938-6.502,2.817-8.088c1.878-1.614,4.987-2.565,9.328-2.854l9.823-0.692
				c6.168-0.403,9.938-0.951,11.309-1.644c1.396-0.691,2.094-2.378,2.094-5.06c0-2.854-0.56-4.83-1.678-5.926
				c-1.093-1.124-3.088-1.687-5.985-1.687h-13.877c-3.203,0-5.389,0.519-6.557,1.556c-1.145,1.008-1.716,3.197-1.716,6.566
				L766.376,15l-5.438-0.021l-0.004-3.62c0-3.878,1.028-6.65,3.086-8.316c2.057-1.695,5.333-2.543,9.829-2.543h15.391
				c4.317,0,7.454,0.894,9.41,2.68c1.98,1.758,2.972,4.971,2.972,9.638c0,4.409-0.901,7.319-2.703,8.73
				c-1.803,1.384-5.192,2.248-10.167,2.594l-13.251,0.95c-3.707,0.289-6.182,0.793-7.425,1.513
				c-1.219,0.721-1.828,2.248-1.828,4.582v2.42v0.019h35.687l0.004,5.125H760.81L760.813,31.575z"/>
		</g>
</svg>
