<?xml version="1.0" encoding="utf-8"?>
<svg version="1.1" xmlns="http://www.w3.org/2000/svg"
     width="355.38" height="65.75"
     viewBox="0 0 355.38 65.75" xml:space="preserve">
<g>
	<path fill="#4D4D4D" d="M0,0.69h26.75l32.93,47.03h0V0.69H77v64.38H50.25L17.32,18.04h0v47.03H0V0.69z"/>
	<path fill="#4D4D4D" d="M89.02,0.69h17.31v64.38H89.02V0.69z"/>
	<path fill="#4D4D4D" d="M118.58,0.69h17.31v23.63h8.25l21.8-23.63h23.52l-30.44,31.4l33.94,32.98h-24.62l-24.73-24.81h-7.72v24.81
		h-17.31V0.69z"/>
	<path fill="#4D4D4D" d="M196.71,42.65V23.66c0-8.42,1.83-14.46,5.48-18.12C205.88,1.85,212.24,0,221.28,0h28.56
		c8.83,0,15.12,1.85,18.85,5.54c3.73,3.69,5.6,9.63,5.6,17.82v19.25c-0.13,8.36-2.03,14.32-5.71,17.87
		c-3.66,3.52-9.84,5.28-18.54,5.28h-28.75c-8.61,0-14.85-1.73-18.73-5.19C198.66,57.07,196.71,51.1,196.71,42.65z M214.59,29.55
		v6.27c0,5.47,0.71,9.09,2.13,10.84c1.42,1.73,4.2,2.59,8.33,2.59h21.42c4.01,0,6.66-0.92,7.95-2.77c1.32-1.87,1.98-5.3,1.98-10.28
		v-6.52c0-5.13-0.81-8.6-2.43-10.41c-1.6-1.84-4.38-2.77-8.33-2.77h-20.01c-4.13,0-7.01,0.94-8.64,2.81
		C215.39,21.18,214.59,24.59,214.59,29.55z"/>
	<path fill="#4D4D4D" d="M301.44,44.31c0.23,2.89,0.75,4.8,1.56,5.72c0.81,0.9,2.8,1.34,5.98,1.34h22.23c4.57,0,6.85-1.8,6.85-5.42
		c0-2.31-0.9-3.88-2.7-4.72c-1.78-0.87-6.08-1.3-12.9-1.3H311.8c-8.27,0-14.36-0.53-18.27-1.6c-3.88-1.07-6.47-3.06-7.77-5.97
		c-1.09-2.39-1.64-6.53-1.64-12.42c0-8.05,1.71-13.38,5.14-16.01C292.72,1.31,298.53,0,306.7,0h24.36c8.55,0,14.34,1.35,17.36,4.06
		s4.53,7.49,4.53,14.35v2.33h-17.31c0-2.54-0.52-4.24-1.56-5.07c-1.04-0.87-3.38-1.3-7-1.3h-18.54c-4.72,0-7.08,1.71-7.08,5.12
		c0,3.41,1.65,5.19,4.95,5.33c3.32,0.12,6.45,0.17,9.36,0.17h11.76c8.04,0,14.02,0.61,17.93,1.82c3.93,1.21,6.62,3.35,8.07,6.4
		c1.24,2.63,1.87,6.74,1.87,12.33c0,5.68-0.65,9.85-1.94,12.5c-1.42,2.88-4.01,4.89-7.76,6.01c-3.73,1.13-9.47,1.69-17.2,1.69
		h-22.65c-8.37,0-14.08-1.27-17.13-3.8c-3.04-2.54-4.57-6.93-4.57-13.18v-4.45H301.44z"/>
</g>
</svg>