<?xml version="1.0" encoding="utf-8"?>
<svg version="1.1" xmlns="http://www.w3.org/2000/svg" width="748.284" height="66.75" viewBox="-0.5 -0.5 748.284 66.75" xml:space="preserve">
<g>
			<path fill="#4D4D4D" d="M0,0.688h26.75l32.935,47.026h0.003V0.688H77v64.375H50.25L17.315,18.036h-0.003v47.026H0V0.688z"/>
			<path fill="#4D4D4D" d="M89.017,0.688h17.313v64.375H89.017V0.688z"/>
			<path fill="#4D4D4D" d="M118.578,0.688h17.313v23.625h8.248l21.799-23.625h23.516l-30.438,31.399l33.938,32.976h-24.619
				L143.606,40.25h-7.716v24.813h-17.313V0.688z"/>
			<path fill="#4D4D4D" d="M196.715,42.651v-18.99c0-8.42,1.827-14.462,5.483-18.124C205.878,1.846,212.238,0,221.275,0h28.558
				c8.834,0,15.116,1.846,18.848,5.537s5.598,9.632,5.598,17.821v19.249c-0.127,8.363-2.031,14.318-5.712,17.865
				c-3.655,3.519-9.836,5.277-18.543,5.277h-28.748c-8.605,0-14.851-1.729-18.733-5.19C198.657,57.07,196.715,51.101,196.715,42.651
				z M214.59,29.548v6.266c0,5.473,0.71,9.088,2.131,10.844c1.42,1.729,4.197,2.593,8.332,2.593h21.42
				c4.007,0,6.657-0.922,7.951-2.766c1.318-1.871,1.979-5.299,1.979-10.282v-6.524c0-5.127-0.812-8.598-2.435-10.412
				c-1.599-1.844-4.376-2.766-8.332-2.766h-20.013c-4.135,0-7.014,0.937-8.637,2.809C215.389,21.182,214.59,24.595,214.59,29.548z"
				/>
			<path fill="#4D4D4D" d="M301.442,44.313c0.229,2.889,0.748,4.796,1.561,5.72c0.813,0.896,2.805,1.343,5.978,1.343h22.234
				c4.568,0,6.853-1.805,6.853-5.415c0-2.311-0.901-3.885-2.702-4.723c-1.777-0.866-6.078-1.3-12.904-1.3h-10.658
				c-8.273,0-14.363-0.533-18.271-1.601c-3.883-1.067-6.472-3.058-7.766-5.972c-1.092-2.394-1.637-6.533-1.637-12.418
				c0-8.048,1.712-13.385,5.138-16.01C292.719,1.313,298.529,0,306.699,0h24.358c8.551,0,14.336,1.354,17.355,4.063
				s4.529,7.493,4.529,14.353v2.334H335.63c0-2.544-0.521-4.235-1.561-5.074c-1.041-0.867-3.376-1.301-7.005-1.301h-18.541
				c-4.721,0-7.081,1.706-7.081,5.117c0,3.412,1.649,5.189,4.948,5.334c3.324,0.116,6.445,0.174,9.364,0.174h11.762
				c8.044,0,14.021,0.605,17.929,1.816c3.933,1.212,6.622,3.346,8.069,6.402c1.243,2.625,1.865,6.735,1.865,12.329
				c0,5.682-0.647,9.85-1.941,12.502c-1.421,2.885-4.009,4.889-7.764,6.013c-3.73,1.125-9.466,1.688-17.204,1.688h-22.646
				c-8.373,0-14.082-1.268-17.127-3.804c-3.045-2.535-4.567-6.929-4.567-13.182v-4.452H301.442z"/>
			<path fill="#4D4D4D" d="M406.598,0.688h20.063V7.75h-13.375V58h13.375v7.063h-20.063V0.688z"/>
			<path fill="#FF6600" d="M437.302,0.688h6.688v27.688c1.521-3.951,3.615-6.433,6.279-7.442c2.664-1.038,5.835-1.558,9.515-1.558
				h10.01c11.214,0,16.821,5.12,16.821,15.359v30.328h-6.688V36.812c0-4.441-1.117-7.427-3.351-8.956
				c-2.208-1.528-6.167-2.293-11.877-2.293h-1.903c-7.209,0-12.146,0.938-14.81,2.813c-2.665,1.875-3.997,5.466-3.997,10.772v25.915
				h-6.688V0.688z"/>
			<path fill="#FF6600" d="M498.009,47.278v-9.345c0.076-6.69,1.788-11.449,5.136-14.275c3.348-2.855,8.787-4.283,16.319-4.283
				h10.348c7.456,0,12.946,1.442,16.472,4.326c3.525,2.885,5.288,7.542,5.288,13.973v9.69c0,6.721-1.826,11.465-5.478,14.232
				c-3.652,2.77-9.042,4.153-16.168,4.153h-10.157c-7.381,0-12.858-1.428-16.434-4.283
				C499.784,58.612,498.009,53.883,498.009,47.278z M504.696,38.453v7.354c0,5.076,0.938,8.638,2.816,10.685
				c1.877,2.048,5.087,3.071,9.628,3.071h14.386c4.541,0,7.902-0.937,10.085-2.812c2.182-1.874,3.272-5.233,3.272-10.079v-8.306
				c0-4.44-0.965-7.685-2.893-9.732c-1.928-2.047-5.341-3.071-10.237-3.071h-13.7c-4.922,0-8.385,0.995-10.389,2.984
				C505.686,30.508,504.696,33.811,504.696,38.453z"/>
			<path fill="#FF6600" d="M563.447,20.063h6.25v7.063c1.801-5.166,5.962-7.75,12.482-7.75h6.279c6.063,0,10.3,1.213,12.71,3.637
				c2.436,2.424,3.653,6.393,3.653,11.904V40.5h-6.25v-2.295c0-5.253-0.8-8.674-2.398-10.262c-1.6-1.587-5.279-2.381-11.04-2.381
				h-4.226c-3.604,0-6.307,0.995-8.108,2.985c-1.777,1.961-2.665,4.673-2.665,8.134v28.381h-6.688V20.063z"/>
			<path fill="#FF6600" d="M614.507,65.063v-45h6.25v8.313c1.345-3.288,3.108-5.581,5.292-6.88c2.208-1.326,5.863-2.033,10.966-2.12
				h9.976c11.219,0,16.829,5.12,16.829,15.359v30.328h-6.688V36.812c0-4.557-1.13-7.571-3.388-9.043
				c-2.26-1.471-5.952-2.206-11.079-2.206h-2.664c-7.209,0-12.146,0.938-14.81,2.813c-2.665,1.875-3.997,5.466-3.997,10.772v25.915
				H614.507z"/>
			<path fill="#4D4D4D" d="M694.516,65.063h-20.063V58h13.375V7.75h-13.375V0.688h20.063V65.063z"/>
			<path fill="#4D4D4D" d="M706.158,31.575c0-3.806,0.938-6.502,2.817-8.088c1.878-1.614,4.987-2.565,9.328-2.854l9.823-0.692
				c6.168-0.403,9.938-0.951,11.309-1.644c1.396-0.691,2.094-2.378,2.094-5.06c0-2.854-0.56-4.83-1.678-5.926
				c-1.093-1.124-3.088-1.687-5.985-1.687h-13.877c-3.203,0-5.389,0.519-6.557,1.556c-1.145,1.008-1.716,3.197-1.716,6.566
				L711.721,15l-5.438-0.021l-0.004-3.62c0-3.878,1.028-6.65,3.086-8.316c2.057-1.695,5.333-2.543,9.829-2.543h15.391
				c4.317,0,7.454,0.894,9.41,2.68c1.98,1.758,2.972,4.971,2.972,9.638c0,4.409-0.901,7.319-2.703,8.73
				c-1.803,1.384-5.192,2.248-10.167,2.594l-13.251,0.95c-3.707,0.289-6.182,0.793-7.425,1.513
				c-1.219,0.721-1.828,2.248-1.828,4.582v2.42v0.019h35.687l0.004,5.125h-41.129L706.158,31.575z"/>
		</g>
</svg>
